<svg width="116" height="56" viewBox="0 0 116 56" fill="none" xmlns="http://www.w3.org/2000/svg">
<path d="M14.4825 11.7096C15.0357 11.4442 14.6735 9.74757 14.5793 9.25397C14.4304 8.27917 14.2568 7.30686 13.8798 6.37919C13.7756 6.10634 13.6838 5.82854 13.5549 5.56562C13.4432 5.38951 13.2969 5.22828 13.1505 5.0745C12.91 5.25805 12.8157 5.54577 12.7066 5.80125C12.5528 6.21548 12.3965 6.63219 12.2402 7.04642C11.9575 7.83518 11.8062 8.65867 11.6325 9.47224C11.4788 10.3131 11.3771 11.1812 11.5457 12.0271C12.1063 11.913 12.6842 11.8485 13.2572 11.8212C13.664 11.8063 14.103 11.8584 14.485 11.7096H14.4825ZM29.1665 48.4195C29.3228 49.2355 29.3674 50.0665 29.2607 50.8875C29.1913 51.7556 29.097 52.6957 28.4422 53.3828C28.1148 53.7151 27.7179 53.983 27.331 54.2534C26.2644 54.9281 24.5009 55.2356 23.2086 55.2083C22.7026 55.1984 22.1966 55.1538 21.698 55.067C21.2441 54.9975 20.7703 54.9479 20.3511 54.7668C18.8629 54.1442 18.5653 52.5568 18.3867 51.2347C17.9129 48.4319 17.97 45.5794 18.0717 42.7518C18.1089 40.1994 17.717 37.6645 17.464 35.127C17.2258 32.7062 17.0473 30.2828 16.829 27.8594C16.6678 25.6593 16.4867 23.4617 16.0948 21.2839C15.9782 20.2694 15.7922 19.2574 15.5913 18.2553C15.1299 17.9552 14.299 17.8337 13.6714 17.7717C13.2522 17.8089 12.8107 17.7642 12.394 17.8064C11.4564 17.851 11.4192 18.5158 11.2431 19.178C11.0596 19.8304 10.9405 20.4951 10.8339 21.1624C10.6453 22.0057 10.5461 22.8565 10.4544 23.7122C10.2534 25.2972 10.0476 26.8822 9.85658 28.4671C9.80945 29.6131 9.7152 30.7566 9.62094 31.9C9.48452 33.6363 9.45227 35.3751 9.42499 37.1163C9.40018 39.7306 9.3729 42.345 9.43491 44.9568C9.47212 45.7481 9.52669 46.5393 9.51925 47.3306C9.50684 49.3943 9.62342 51.639 8.37082 53.4572C7.90202 54.0773 7.33401 54.7693 6.45595 54.8933C5.3745 55 4.28808 55.1438 3.19919 55.0744C0.99411 54.9603 0.0664419 54.5485 0.00443187 52.4179C-0.0278133 50.7312 0.116049 49.0371 0.43106 47.3728C0.631972 46.4476 0.813042 45.5249 0.999072 44.6071C1.34385 42.2408 1.89202 39.8968 2.40794 37.5578C3.06772 34.368 3.62581 31.1584 4.1343 27.9463C4.36001 25.6668 4.59813 23.3873 4.77672 21.1053C4.98259 18.9846 4.91562 16.8539 5.08925 14.7332C5.32241 12.5529 5.6647 10.3801 6.12606 8.22957C6.22527 7.70372 6.31457 7.1754 6.40386 6.64707C6.56509 5.73924 6.6395 4.80165 7.05125 3.9484C8.69327 0.842935 10.7619 0.165786 14.4106 0.0219227C15.3035 -0.0202441 16.2709 -0.0500084 17.0448 0.416307C18.3445 1.21748 18.8902 2.64867 19.3689 3.94095C19.5401 4.45936 19.6269 4.9976 19.7236 5.53089C20.0039 7.14811 20.4156 8.74797 20.6959 10.3652C20.8646 11.4491 21.0705 12.5256 21.2168 13.6096C21.3904 15.2689 21.4773 16.9382 21.6608 18.5976C21.765 19.694 21.9262 20.7829 22.0676 21.8767C22.3975 25.1161 22.6406 28.3729 23.3624 31.5676C23.9725 34.0704 24.5728 36.5805 25.3888 39.0337C25.9122 40.1424 26.3934 41.271 26.9589 42.3648C27.1648 42.722 27.3831 43.0792 27.5418 43.4562C27.8792 44.2723 28.1446 45.1131 28.4348 45.944C28.6878 46.7651 28.9929 47.5761 29.1715 48.412L29.1665 48.4195Z" fill="white"/>
<path d="M37.8628 9.40775C38.0885 8.428 37.8777 7.34158 37.1906 6.59002C36.9029 6.28245 36.5879 5.95752 36.1637 5.86078C35.5536 5.75412 34.9459 5.97736 34.3655 6.14355C33.5345 6.36926 33.5469 7.37135 33.4452 8.06834C33.2964 9.07538 33.2865 10.0948 33.2468 11.1093C33.2121 11.8485 33.1898 12.5901 33.1501 13.3293C33.9612 13.3144 34.7375 13.0217 35.4023 12.5678C36.1216 12.0816 36.8285 11.5434 37.3147 10.8117C37.6073 10.3925 37.7611 9.90383 37.8628 9.40527V9.40775ZM41.886 38.3441C42.0175 37.6273 42.082 36.8955 42.0448 36.1663C41.9952 35.6033 41.8637 35.0551 41.7695 34.497C41.6206 33.743 41.5313 32.974 41.3056 32.2398C41.1692 31.8603 40.9385 31.528 40.7376 31.1832C40.5689 30.9004 40.4003 30.6177 40.2192 30.3398C39.6611 29.4866 38.9244 28.7772 38.1704 28.1C37.9124 27.8818 37.6421 27.6536 37.3047 27.5792C36.8731 27.5221 36.4341 27.6015 36.0075 27.6709C35.3576 27.79 34.9484 28.0976 34.6978 28.5118C34.5738 28.9607 34.5192 29.4295 34.4845 29.8909C34.425 31.1435 34.5862 32.2845 34.7326 33.5024C34.8442 34.6086 34.9732 35.7099 35.1691 36.8062C35.2758 37.5528 35.4023 38.297 35.6205 39.0188C35.8115 39.6686 35.9579 40.3309 36.1017 40.9932C36.2605 41.6852 36.3919 42.3971 36.6772 43.0494C36.8136 43.2702 37.1038 43.2553 37.332 43.2801C37.6173 43.2925 37.9025 43.3123 38.1878 43.3074C38.2498 43.3049 38.3118 43.3123 38.3663 43.3322C38.8599 42.9874 39.3015 42.5583 39.7082 42.1267C40.3531 41.4719 40.9708 40.7749 41.39 39.9489C41.6405 39.4429 41.767 38.8898 41.886 38.3416V38.3441ZM49.0494 40.9808C49.0742 42.7915 49.0916 44.7162 48.216 46.3558C47.7943 47.2016 47.1866 47.9308 46.5814 48.6502C45.8869 49.5183 45.0411 50.2451 44.1333 50.8825C42.9154 51.7432 41.638 52.5617 40.2142 53.038C39.8174 53.1744 39.4255 53.3232 39.0212 53.4373C38.3267 53.6159 37.6197 53.7474 36.9128 53.8714C36.0348 54.0029 35.3378 54.2087 34.4845 54.2856C33.9587 54.3303 33.4303 54.2881 32.907 54.2509C32.4531 54.2162 31.9967 54.1963 31.5428 54.1393C30.6945 54.0326 30.2232 53.6035 30.0173 52.971C29.9255 52.904 29.8536 52.8073 29.8214 52.6907C29.6378 52.026 29.747 51.3215 29.7321 50.6394C29.737 49.6349 29.7321 48.6303 29.7122 47.6258C29.3749 40.2069 29.2856 32.7781 28.8317 25.3642C28.5216 20.5844 28.3629 15.7923 28.3257 11.0051C28.3852 9.75997 28.4944 8.51977 28.5564 7.27461C28.5241 6.85294 28.4968 6.43127 28.4819 6.00961C28.4125 5.31013 28.3852 4.6057 28.3728 3.90375C28.3505 3.41263 28.3753 2.91903 28.4944 2.44279C28.6382 1.68379 29.1269 1.01408 29.8313 0.684187C30.7813 0.173225 31.8776 0.0219205 32.9442 0.0368028C34.3456 0.0665676 35.7842 0.123617 37.1113 0.612256C38.411 1.14554 39.6859 1.80781 40.6979 2.80245C41.4916 3.58874 42.273 4.43207 42.7666 5.44407C43.5876 7.28701 43.9671 9.3507 43.7389 11.3623C43.6223 12.5182 43.3668 13.6914 42.7095 14.6687C41.4048 16.7993 38.9964 17.7841 36.8235 18.7911C37.5503 18.9176 38.2646 19.116 38.9492 19.3914C39.9439 19.7758 40.9013 20.2521 41.7521 20.8994C42.6177 21.5419 43.4636 22.2513 44.0812 23.1417C44.9816 24.496 45.8199 25.9148 46.4227 27.4279C46.6186 27.9413 46.8146 28.4572 47.0081 28.9707C47.4967 30.1985 47.7919 31.4907 48.0374 32.788C48.6104 35.4817 49.0296 38.2226 49.0469 40.9808H49.0494Z" fill="white"/>
<path d="M61.9224 27.6685C62.1482 25.5676 62.3143 23.4543 62.1531 21.3459C62.0787 20.3786 61.9621 19.4062 61.6843 18.4662C61.471 17.9378 61.2428 17.4145 60.9328 16.9258C60.7988 16.6803 60.6426 16.4446 60.4516 16.2289C60.3027 16.0726 60.0448 15.6484 59.7893 15.7725C59.3081 15.9982 58.6185 17.1764 58.3854 17.6476C58.2018 18.4339 58.0853 19.2301 57.9836 20.0263C57.7752 21.403 57.5594 22.7771 57.4478 24.1637C57.2692 26.1653 57.1625 28.2141 57.7628 30.1737C57.9563 30.7367 58.177 31.3022 58.5243 31.8082C58.6706 31.9918 58.8393 32.1605 59.0055 32.3291C59.3552 32.664 59.8786 33.2518 60.4268 33.2494C60.97 33.1576 61.1287 32.3812 61.2825 31.9844C61.5107 31.3022 61.5603 30.5879 61.667 29.8859C61.8083 29.1517 61.8381 28.4076 61.9274 27.6685H61.9224ZM69.7828 20.6489C70.1598 23.8065 70.0482 26.9888 69.7555 30.1489C69.4777 33.8422 68.9544 37.5256 68.049 41.1395C67.615 42.9651 67.2007 44.8055 66.4616 46.5567C66.0994 47.5613 65.591 48.5187 64.9237 49.3943C64.3135 50.2277 63.3263 51.1603 62.292 51.5547C61.7414 51.7308 61.1585 51.8275 60.5731 51.8251C60.2903 51.8176 60.0076 51.7953 59.7298 51.7531C59.1543 51.6638 58.626 51.4406 58.0952 51.2347C56.9592 50.8205 55.9918 50.1136 55.203 49.2901C54.6201 48.7419 54.1687 48.1119 53.7694 47.4521C52.8591 46.4401 52.5118 45.1503 51.9909 43.9622C51.6511 43.171 51.3758 42.3599 51.1426 41.5388C50.783 40.3631 50.4828 39.1775 50.2348 37.982C50.0215 37.0741 49.7685 36.1737 49.5825 35.261C48.9673 32.5028 48.7714 29.6825 48.8234 26.8772C48.816 25.0119 48.8383 23.1492 48.9475 21.2864C49.0591 19.0342 49.3493 16.8043 49.8206 14.5918C50.0091 13.6691 50.2621 12.7588 50.5076 11.846C50.6267 11.3896 50.7656 10.9382 50.9318 10.4942C51.3882 9.1622 52.0157 7.88479 52.5837 6.58754C53.1741 5.32006 53.9455 4.11458 54.9277 3.05297C55.5131 2.38574 56.22 1.79789 57.0435 1.36382C57.165 1.29933 57.299 1.23732 57.4404 1.18771C57.4949 1.16291 57.552 1.14058 57.609 1.12074C58.0332 0.969435 58.497 0.957033 58.9484 0.989278C59.2535 1.00664 59.5537 1.03144 59.8463 1.1133C60.6401 1.33157 61.3023 1.79293 61.9224 2.26668C62.7807 2.91903 63.5893 3.64331 64.1325 4.52881C64.703 5.38951 65.2139 6.28245 65.6802 7.19028C66.2259 8.3511 66.6798 9.54418 67.1685 10.7224C67.9101 12.4338 68.3814 14.2247 68.8502 16.0081C69.2148 17.5484 69.6489 19.0788 69.7927 20.6514L69.7828 20.6489Z" fill="white"/>
<path d="M90.4869 9.26389C90.5911 12.987 90.4448 16.7101 90.353 20.4306C90.2835 24.2554 90.3183 28.0777 90.2662 31.9025C90.1942 34.2837 89.9933 36.6574 89.8172 39.0361C89.7254 40.6732 89.6436 42.3127 89.3931 43.9374C89.2542 44.9792 89.1649 46.0309 88.8424 47.0453C88.6738 47.5687 88.4629 48.0797 88.2521 48.5906C87.2971 50.7833 86.171 52.9512 83.0284 52.7825C80.992 52.7701 79.3921 51.9764 78.0477 50.6841C76.304 49.0867 75.1407 47.0602 74.3941 44.9692C72.638 40.3656 72.0427 35.5115 71.5416 30.702C71.2886 28.2042 71.1969 25.699 71.0059 23.1988C70.6636 19.9991 70.676 16.7795 70.6983 13.5699C70.552 12.1858 70.6338 10.7968 70.5544 9.41023C70.4627 8.40319 70.3039 7.39863 70.2841 6.38663C70.2642 5.37959 70.2469 4.37006 70.2841 3.36054C70.3213 2.62882 70.3486 1.86734 70.6909 1.18771C71.0852 0.366697 72.1245 0.0715297 73.072 0.0169609C74.4412 -0.0624119 75.4929 0.907425 76.1428 1.85494C76.7951 2.81733 77.1349 3.90623 77.2862 5.01001C77.5616 6.61482 77.4896 8.23949 77.4524 9.85671C77.3507 14.0659 77.4103 18.2851 77.6707 22.4894C77.755 23.5535 77.9783 24.6052 78.1122 25.6643C78.2883 27.1451 78.6381 28.6011 78.9208 30.067C79.3028 31.7363 79.4194 33.4577 80.037 35.0824C80.1858 35.4991 80.3198 35.9207 80.476 36.335C80.6025 36.6029 80.6993 36.9154 80.9597 37.1014C81.1085 37.1684 81.2822 37.1113 81.426 37.0617C81.5773 37.0022 81.6518 36.8707 81.7286 36.7492C81.9345 36.3623 82.0759 35.9555 82.1776 35.5388C82.4306 34.2886 82.4876 33.0162 82.5323 31.7487C82.5993 30.1563 82.6985 28.5614 82.7828 26.969C82.8547 25.8082 82.9763 24.6647 83.0184 23.5063C83.0507 20.8102 82.954 18.114 82.8746 15.4178C82.7679 12.9299 82.5794 10.3925 82.9589 7.94184C83.0929 6.88023 83.3062 5.82606 83.6435 4.79917C83.9734 3.71276 84.4422 2.51472 85.6204 1.91943C86.3298 1.56721 87.2202 1.69123 87.942 1.95415C88.8226 2.27164 89.3534 2.986 89.7056 3.72516C90.4944 5.48376 90.3555 7.41103 90.4869 9.26389Z" fill="white"/>
<path d="M115.169 5.31261C115.239 6.05425 115.278 6.80333 115.189 7.54497C115.147 7.984 115.05 8.4528 114.745 8.77525C114.44 9.10266 113.986 9.18452 113.572 9.21924C113.061 9.25645 112.545 9.27877 112.032 9.27381C111.166 9.23413 110.3 9.25149 109.437 9.29613C108.879 9.34078 108.323 9.42015 107.765 9.47224C107.542 9.49953 107.299 9.47969 107.098 9.60122C106.813 9.89391 106.773 10.3453 106.736 10.7447C106.706 11.2581 106.721 11.7741 106.756 12.2875C106.82 13.8774 106.82 15.4699 106.855 17.0598C106.85 17.9056 106.922 18.7465 107.001 19.5848C107.073 20.4902 107.138 21.3955 107.202 22.3009C107.334 23.8511 107.383 25.4088 107.468 26.9615C107.629 29.1542 107.793 31.3518 108.123 33.5247C108.492 35.4395 108.695 37.3792 108.77 39.3313C108.832 40.3185 108.931 41.3007 109.02 42.2855C109.11 43.3223 109.135 44.364 109.197 45.4033C109.311 47.0825 109.517 48.7519 109.531 50.436C109.546 50.9718 109.554 51.5076 109.549 52.0433C109.541 52.46 109.509 52.8867 109.365 53.2786C109.117 53.983 108.378 54.0798 107.748 54.117C107.371 54.1566 106.994 54.1864 106.619 54.2385C105.945 54.3253 105.282 54.4791 104.618 54.6279C104.013 54.7668 103.39 54.7916 102.78 54.675C101.993 54.5684 101.522 54.5188 101.267 53.6134C101.043 53.0132 100.994 52.3584 101.048 51.7184C101.051 51.6688 101.056 51.6217 101.061 51.5745C101.056 51.4431 101.048 51.3116 101.041 51.1802C100.944 49.5853 100.917 47.9879 100.927 46.3905C100.927 44.7857 100.803 43.1858 100.81 41.5835C100.793 40.0184 100.815 38.4532 100.773 36.8881C100.647 32.7285 100.359 28.549 100.103 24.4216C99.9818 22.3182 99.9496 20.2074 99.8405 18.104C99.7735 17.2557 99.6693 16.4099 99.6916 15.5591C99.704 14.7505 99.7487 13.9444 99.7016 13.1383C99.6098 12.099 99.5007 11.0597 99.2898 10.0378C99.1931 9.57642 99.2055 8.78517 98.6028 8.78517C98.1836 8.76781 97.7619 8.77277 97.3427 8.74549C96.0008 8.66363 94.654 8.71076 93.3145 8.59666C92.3893 8.50241 90.9681 8.44784 90.8565 7.18284C90.787 5.83846 90.8565 4.48912 90.8589 3.14475C90.8689 2.46512 90.8837 1.70859 91.3153 1.16043C91.67 0.699071 92.2108 0.545286 92.754 0.587453C93.1211 0.597374 93.4882 0.575051 93.8553 0.542806C94.3365 0.520482 94.8102 0.63458 95.2889 0.669306C95.6362 0.686668 95.9834 0.701551 96.3282 0.721395C96.6656 0.718914 97.0054 0.731316 97.3427 0.763561C99.2427 0.810689 101.143 0.666825 103.043 0.63458C103.395 0.624658 103.747 0.62962 104.099 0.609776C104.628 0.552727 105.156 0.485756 105.687 0.498158C106.188 0.513041 106.691 0.525443 107.195 0.530404C107.907 0.565129 108.616 0.597374 109.328 0.587453C109.509 0.587453 109.69 0.587453 109.871 0.580012C109.983 0.575051 110.099 0.57257 110.206 0.604816C110.352 0.56761 110.501 0.532884 110.653 0.513041C111.255 0.426227 111.858 0.518002 112.458 0.580012C112.872 0.624659 113.289 0.666825 113.698 0.748678C114.115 0.837973 114.492 1.10586 114.733 1.47792C115.457 2.61146 115.087 4.04017 115.169 5.32005V5.31261Z" fill="white"/>
</svg>
