<svg width="156" height="56" viewBox="0 0 156 56" fill="none" xmlns="http://www.w3.org/2000/svg">
<g clip-path="url(#clip0_99_296)">
<path d="M27.9501 49.8643C28.002 51.1381 28.6801 53.0534 27.3055 53.8323C25.1062 54.6602 22.7296 54.9045 20.3959 55.0176C18.7158 55.155 17.0327 55.2344 15.3496 55.2039C14.0911 55.2253 12.8356 55.1367 11.5801 55.0756C9.63735 55.1123 7.70681 54.9565 5.82208 54.4769C3.43639 54.0278 1.61275 53.701 1.08124 50.9854C0.638313 48.7983 0.93767 46.5561 0.922397 44.3507C0.506962 38.9134 -0.0306586 33.473 -0.000111914 28.0143C-0.000111914 25.8944 -0.0245492 23.7286 0.134293 21.6179C0.250371 19.4643 0.580274 17.3261 0.619985 15.1695C0.830757 9.77493 1.40198 4.57894 7.74957 3.45177C9.17304 3.16158 10.6057 2.85306 12.0689 2.87138C14.1705 2.87138 16.2202 3.3418 18.2943 3.59839C19.2687 3.70836 20.234 3.90081 21.1962 4.09325C21.6819 4.18183 22.1859 4.2582 22.6166 4.51479C23.3253 4.92412 23.7041 5.66946 24.0187 6.3873C24.5838 7.52364 24.5502 8.95627 24.0248 10.1018C22.6777 12.46 18.9113 11.565 16.6722 11.29C15.6062 11.1159 14.5401 10.951 13.4648 10.8563C12.4843 10.6761 11.4793 10.6119 10.4896 10.783C9.21886 11.1648 7.53269 11.6108 7.21195 13.0801C6.74764 15.4597 6.58269 17.8851 6.76902 20.3044C6.8515 21.6362 6.90037 22.2196 7.17224 22.4579C7.61211 22.5862 8.07947 22.5312 8.53157 22.4945C9.32578 22.3876 10.12 22.296 10.9203 22.241C12.3071 22.0822 13.8009 21.8958 15.1144 22.4793C15.4168 22.6259 15.7039 22.8275 15.9239 23.081C16.1927 23.4262 16.4065 23.8081 16.5745 24.2113C16.7975 24.7275 17.0113 25.256 17.1182 25.8089C17.1854 26.099 17.2068 26.3984 17.1885 26.6978C17.1976 27.159 17.1304 27.6294 16.9105 28.0418C16.6936 28.4481 16.3973 28.8055 16.0766 29.1323C15.7925 29.4409 15.4626 29.7066 15.0899 29.9082C14.0911 30.4855 12.9272 30.6505 11.8123 30.8827C10.9997 31.0598 10.1902 31.2156 9.36854 31.3195C8.8523 31.3989 8.32385 31.4325 7.82288 31.573C7.78928 31.5883 7.75873 31.6036 7.72819 31.6249C7.60295 31.9487 7.54491 32.297 7.51742 32.6452C7.45632 34.1695 7.52964 35.6937 7.53269 37.218C7.65182 39.3349 7.41967 41.5618 8.23526 43.5687C8.66902 44.6653 9.99475 44.4087 10.9509 44.3995C12.3071 44.3629 13.6573 44.2132 15.0136 44.2468C17.3687 44.2774 19.7177 44.1521 22.0698 44.0941C23.4658 44.0819 25.0634 43.9566 26.1692 44.9585C27.5743 46.1621 27.889 48.1201 27.9562 49.8643H27.9501Z" fill="white"/>
<path d="M78.844 48.9693C78.8959 50.2431 79.5741 52.1584 78.1995 52.9373C76.0001 53.7651 73.6236 54.0095 71.2898 54.1225C69.6097 54.26 67.9266 54.3394 66.2435 54.3089C64.985 54.3303 63.7295 54.2417 62.4741 54.1806C60.5313 54.2172 58.6007 54.0614 56.716 53.5819C54.3303 53.1328 52.5067 52.806 51.9752 50.0904C51.5322 47.9032 51.8316 45.6611 51.8163 43.4556C51.407 38.0183 50.8663 32.578 50.8999 27.1193C50.8999 24.9994 50.8755 22.8336 51.0343 20.7228C51.1504 18.5693 51.4803 16.431 51.52 14.2744C51.7277 8.87991 52.299 3.68392 58.6466 2.55675C60.07 2.26656 61.5027 1.95804 62.9659 1.97636C65.0675 1.97636 67.1171 2.44678 69.1913 2.70337C70.1657 2.81334 71.131 3.00579 72.0932 3.19823C72.5789 3.28682 73.0829 3.36318 73.5136 3.61977C74.2223 4.0291 74.6011 4.77444 74.9157 5.49228C75.4808 6.62862 75.4472 8.06126 74.9218 9.20675C73.5747 11.565 69.8083 10.6699 67.5692 10.395C66.5032 10.2209 65.4371 10.056 64.3618 9.96126C63.3813 9.78103 62.3763 9.71688 61.3866 9.88794C60.1159 10.2698 58.4297 10.7158 58.1089 12.1851C57.6446 14.5646 57.4797 16.99 57.666 19.4093C57.7485 20.7412 57.7974 21.3246 58.0692 21.5629C58.5091 21.6912 58.9765 21.6362 59.4286 21.5995C60.2228 21.4926 61.017 21.401 61.8173 21.346C63.2041 21.1871 64.6978 21.0008 66.0114 21.5843C66.3138 21.7309 66.6009 21.9325 66.8208 22.186C67.0896 22.5312 67.3035 22.913 67.4715 23.3162C67.6945 23.8325 67.9083 24.3609 68.0152 24.9138C68.0824 25.204 68.1038 25.5034 68.0855 25.8027C68.0946 26.264 68.0274 26.7344 67.8075 27.1468C67.5906 27.5531 67.2943 27.9105 66.9736 28.2373C66.6895 28.5458 66.3596 28.8116 65.9869 29.0132C64.988 29.5905 63.8242 29.7555 62.7093 29.9876C61.8967 30.1648 61.0872 30.3206 60.2655 30.4245C59.7493 30.5039 59.2208 30.5375 58.7199 30.678C58.6863 30.6933 58.6557 30.7085 58.6252 30.7299C58.4999 31.0537 58.4419 31.4019 58.4144 31.7502C58.3533 33.2745 58.4266 34.7987 58.4297 36.323C58.5488 38.4399 58.3167 40.6667 59.1322 42.6737C59.566 43.7703 60.8917 43.5137 61.8478 43.5045C63.2041 43.4679 64.5543 43.3182 65.9105 43.3518C68.2657 43.3823 70.6147 43.2571 72.9668 43.1991C74.3628 43.1868 75.9604 43.0616 77.0662 44.0635C78.4713 45.2671 78.786 47.2251 78.8532 48.9693H78.844Z" fill="white"/>
<path d="M105.853 19.4918C105.929 21.6484 105.78 23.8019 105.688 25.9555C105.587 27.5531 105.539 29.1537 105.569 30.7544C105.575 32.9384 105.551 35.1256 105.655 37.3097C105.679 39.5335 105.642 41.7603 105.703 43.9841C105.707 45.0807 105.682 46.1774 105.627 47.274C105.56 48.9479 105.419 50.8266 103.785 52.082C102.6 53.0748 101.28 53.0778 99.7255 52.6013C98.6961 52.305 97.6117 51.9721 96.8938 51.3061C95.9835 50.4478 95.3726 49.4245 94.8105 48.4134C94.2698 47.4053 93.9522 46.3393 93.6253 45.2823C93.3657 44.4667 93.1305 43.6481 92.9136 42.8233C92.2935 40.2574 91.5298 37.7221 91.0227 35.1531C90.5645 33.0362 90.3629 30.8888 89.7856 28.7872C89.5107 27.7119 89.2022 26.6428 88.915 25.5675C88.7623 25.1368 88.5607 23.4415 87.8887 23.4629C87.2044 23.6431 87.5679 25.6806 87.6504 26.1663C87.7451 26.9696 87.9131 27.7669 88.0261 28.5703C88.2674 30.5589 88.5821 32.5444 88.6951 34.5391C89.0891 38.3849 89.5565 42.2521 89.1441 46.1102C88.912 48.0438 88.9303 50.0934 87.6993 51.8468C86.7737 53.3161 86.0284 54.1684 83.6885 54.1989C82.2864 54.2386 81.1165 53.4597 80.643 52.4883C80.2428 51.636 80.3681 50.5944 80.2673 49.736C80.194 48.7983 80.0595 47.8605 80.142 46.9227C80.1695 46.4217 80.252 45.9238 80.3375 45.429C80.2764 44.8913 80.2214 44.3568 80.1665 43.8192C79.9801 41.1585 80.0504 38.4888 80.0015 35.822C79.9985 33.6655 80.1573 31.5119 80.1115 29.3553C80.0443 25.0849 80.0443 20.8145 80.0657 16.5471C80.0931 15.0015 80.1298 13.4558 80.1604 11.9132C80.2184 9.82686 80.3375 7.67943 81.3853 5.7275C82.0115 4.53312 82.8026 3.30515 84.1284 2.47734C84.9348 2.01914 86.0742 2.2574 86.8073 2.69727C87.3694 3.03634 87.7726 3.5037 88.1055 3.98329C88.6248 4.72862 89.028 5.51367 89.3549 6.3201C89.587 6.84551 89.8436 7.36785 90.0269 7.90547C90.2927 8.84631 90.5004 9.79631 90.7387 10.7402C91.1846 12.2064 91.5359 13.6849 91.8231 15.1756C92.1224 16.8831 92.3271 18.6151 92.9258 20.2799C93.2038 21.0772 93.5887 21.85 93.8819 22.6442C94.2301 23.5209 94.5142 24.4373 95.1435 25.2254C95.3207 25.3904 95.5986 25.763 95.8735 25.4942C96.7166 24.5564 96.6953 22.6809 96.7227 21.5537C96.7197 18.2302 96.3623 14.9159 96.1362 11.5955C96.0996 11.5497 96.0721 11.4978 96.0629 11.4397C95.8186 10.3553 95.5436 9.26785 95.4887 8.16512C95.4428 7.1357 95.4887 6.10628 95.5223 5.07686C95.5436 4.52396 95.5711 3.97107 95.6719 3.42428C95.8827 2.3582 96.3501 1.09968 97.5872 0.485695C98.8427 -0.0916365 100.529 -0.19244 101.815 0.381836C103.553 1.29518 103.883 3.05467 104.124 4.54229C104.259 5.19599 104.494 5.83441 104.607 6.49116C105.456 10.7921 105.7 15.1481 105.859 19.4918H105.853Z" fill="white"/>
<path d="M132.111 6.10016C132.188 6.81801 132.23 7.53891 132.133 8.25675C132.087 8.68135 131.98 9.13344 131.644 9.44502C131.311 9.7627 130.81 9.83907 130.355 9.87267C129.793 9.90933 129.228 9.93071 128.666 9.9246C127.716 9.88489 126.766 9.90322 125.816 9.94598C125.202 9.98875 124.591 10.0651 123.98 10.117C123.735 10.1445 123.467 10.1232 123.247 10.2423C122.932 10.5264 122.892 10.9601 122.849 11.3481C122.816 11.8429 122.834 12.3408 122.871 12.8357C122.941 14.3691 122.941 15.9087 122.981 17.4421C122.975 18.2577 123.054 19.0703 123.143 19.8798C123.222 20.7534 123.292 21.627 123.363 22.5007C123.506 23.9974 123.561 25.5003 123.656 27.0002C123.833 29.1171 124.013 31.24 124.377 33.3355C124.783 35.1836 125.006 37.0561 125.086 38.9409C125.153 39.8939 125.263 40.8439 125.36 41.7939C125.458 42.7958 125.486 43.8008 125.553 44.8058C125.678 46.4278 125.904 48.0376 125.922 49.6658C125.938 50.182 125.947 50.7013 125.941 51.2176C125.935 51.6208 125.898 52.0301 125.739 52.4089C125.467 53.0901 124.655 53.1817 123.964 53.2184C123.552 53.255 123.137 53.2856 122.724 53.3375C121.982 53.42 121.255 53.5696 120.525 53.7132C119.862 53.8476 119.175 53.869 118.506 53.759C117.641 53.6582 117.125 53.6063 116.844 52.7327C116.597 52.1523 116.545 51.52 116.603 50.9029C116.606 50.8571 116.612 50.8082 116.618 50.7624C116.612 50.6341 116.606 50.5089 116.597 50.3806C116.49 48.841 116.459 47.2984 116.471 45.7558C116.471 44.2071 116.334 42.6614 116.343 41.1127C116.322 39.6007 116.349 38.0917 116.3 36.5796C116.163 32.5627 115.845 28.5306 115.564 24.5442C115.433 22.5129 115.396 20.4754 115.277 18.4441C115.204 17.6254 115.088 16.8098 115.115 15.9851C115.127 15.2061 115.176 14.4272 115.124 13.6482C115.023 12.6463 114.901 11.6413 114.672 10.6547C114.565 10.2087 114.581 9.44502 113.918 9.44502C113.456 9.42669 112.995 9.4328 112.534 9.40531C111.062 9.32589 109.58 9.3717 108.108 9.26174C107.09 9.1701 105.53 9.11817 105.407 7.8963C105.331 6.59807 105.407 5.29678 105.41 3.9955C105.423 3.33874 105.438 2.60868 105.911 2.08022C106.302 1.6373 106.895 1.48762 107.491 1.52733C107.894 1.53649 108.297 1.51511 108.7 1.48456C109.229 1.46318 109.748 1.57315 110.273 1.60675C110.655 1.62202 111.034 1.6373 111.416 1.65562C111.789 1.65562 112.158 1.66479 112.528 1.69839C114.614 1.74421 116.7 1.60369 118.787 1.57315C119.175 1.56398 119.56 1.57009 119.948 1.54871C120.528 1.49373 121.108 1.42958 121.692 1.4418C122.245 1.45707 122.795 1.46929 123.347 1.47234C124.126 1.50594 124.908 1.53649 125.69 1.52733C125.889 1.52733 126.087 1.52733 126.289 1.51816C126.411 1.51205 126.54 1.51205 126.659 1.53955C126.821 1.50289 126.982 1.47234 127.147 1.45096C127.807 1.36543 128.473 1.45707 129.13 1.51511C129.585 1.55787 130.043 1.59758 130.492 1.67701C130.95 1.76254 131.363 2.02218 131.629 2.37958C132.426 3.47315 132.02 4.85386 132.108 6.08794L132.111 6.10016Z" fill="white"/>
<path d="M49.7758 4.03215C50.3959 4.44759 50.8663 5.141 50.8632 5.9291C50.8327 7.12653 50.5578 8.29952 50.3623 9.47251C50.0568 11.1984 49.6475 12.906 49.2687 14.6166C49.171 15.0503 49.061 15.478 48.9693 15.9117C48.8777 16.431 48.7983 16.9503 48.6944 17.4666C48.389 19.0092 47.9796 20.5243 47.6253 22.0547C46.5165 27.0399 45.7222 32.1015 45.0472 37.1691C44.8089 39.2341 44.3293 41.2502 43.9994 43.2999C43.7642 44.9097 43.587 46.5286 43.416 48.1507C43.2877 49.4428 43.1105 50.7288 42.8783 52.0057C42.7806 52.4913 42.6706 53.0106 42.3224 53.3741C41.7726 53.8904 40.96 53.9576 40.2513 53.9118C39.9153 53.8904 39.5824 53.8262 39.2738 53.6888C39.1792 53.6888 39.0845 53.6429 39.0264 53.5605C38.1375 53.0076 37.5968 52.0606 37.1539 51.1167C36.1764 48.9938 35.7213 46.6753 35.1989 44.3995C35.1195 44.0421 35.0401 43.6878 34.9637 43.3304C34.7682 42.7439 34.5636 42.1605 34.3558 41.577C33.8488 40.1108 33.3692 38.7026 32.8988 37.2394C32.0648 34.8232 31.3348 32.3733 30.5619 29.9388C29.9999 27.9624 29.5661 25.9494 29.0224 23.9669C28.2404 21.349 27.715 18.6579 27.2385 15.9637C26.7192 13.468 26.3404 10.9387 26.0349 8.40643C25.9922 7.91158 25.9708 7.41672 25.9311 6.92186C25.8944 6.21929 25.7142 5.43119 26.0807 4.79582C26.3098 4.46591 26.71 4.34984 27.0491 4.18489C27.4676 3.99855 27.8983 3.84276 28.3381 3.72058C29.8105 3.36318 31.8235 3.25016 32.7369 4.76222C33.2012 5.55643 33.3325 6.49116 33.473 7.39228C33.6288 8.38199 33.7541 9.37781 33.9068 10.3675C34.423 13.9659 34.9423 17.5643 35.541 21.1474C35.8007 22.7206 36.1214 24.2815 36.5369 25.818C36.9431 27.2384 37.38 28.6527 37.7648 30.0793C38 30.9315 38.1619 31.8021 38.3361 32.6696C38.4766 33.2928 38.5896 33.9434 38.9012 34.4994C39.1791 33.7174 39.17 32.8651 39.2433 32.0434C39.3074 31.0445 39.3319 30.0426 39.3838 29.0437C39.6251 24.9108 40.2544 20.8206 40.6576 16.706C40.7951 15.1542 41.0028 13.6146 41.2227 12.072C41.4671 9.98264 41.91 7.91768 42.5576 5.92299C42.7134 5.43424 42.8722 4.94244 43.0311 4.4537C43.1655 4.04743 43.3091 3.61672 43.6176 3.31736C43.9628 2.98135 44.4607 2.99357 44.9036 3.02106C45.6245 3.06077 46.3393 3.17379 47.0571 3.25016C47.9919 3.36624 48.9816 3.48231 49.7819 4.04132L49.7758 4.03215Z" fill="white"/>
<path d="M38.5805 34.1389C38.0276 33.8762 37.655 33.3386 37.4381 32.7796C37.2701 32.355 37.209 31.8968 37.099 31.4569C37.0746 31.292 36.8302 30.6658 37.1051 30.6566C37.1906 30.6566 37.2517 30.7513 37.2242 30.8246C37.2181 30.8949 37.2426 30.9498 37.2609 31.014C37.3525 31.2462 37.4411 31.4752 37.5267 31.7105C37.7252 32.242 37.9543 32.7918 38.3789 33.1828C38.5652 33.3172 38.7546 33.5463 39.0051 33.5035C39.2159 33.4425 39.3625 33.2592 39.4603 33.0728C39.5275 32.8468 39.7443 32.6635 39.9857 32.7674C40.4714 33.0179 40.0223 33.6135 39.7627 33.8732C39.4572 34.1725 38.9837 34.3253 38.5805 34.145V34.1389Z" fill="white"/>
<path d="M38.7423 34.6429C38.7026 34.5788 38.6904 34.5024 38.6843 34.4261C38.6354 34.365 38.6048 34.2886 38.5926 34.2122C38.5926 34.1939 38.5865 34.1786 38.5835 34.1603C38.4154 33.9648 38.0122 33.5341 38.3299 33.3019C38.4826 33.2072 38.6507 33.418 38.5285 33.5433C38.5651 33.6166 38.6171 33.6838 38.669 33.7479C38.7515 33.638 38.892 33.5769 39.0294 33.6044C39.2066 33.5616 39.4052 33.6838 39.4388 33.8671C39.4815 33.9892 39.4571 34.1175 39.4174 34.2336C39.4235 34.3314 39.4357 34.4322 39.4082 34.5269C39.3288 34.8537 38.9195 34.9545 38.7392 34.646L38.7423 34.6429Z" fill="white"/>
<path d="M38.6475 33.8396C38.3512 33.7663 38.1038 33.5646 37.9113 33.3325C37.725 33.1003 37.6486 32.804 37.5478 32.5291C37.4134 32.1412 37.2515 31.7655 37.1141 31.3806C37.0866 31.2584 37.0041 31.124 37.0438 30.9987C37.0744 30.9376 37.1538 30.8979 37.2179 30.9407C37.3432 31.0568 37.3951 31.24 37.4898 31.3836C37.667 31.7074 37.8625 32.022 38.0488 32.3397C38.1924 32.6055 38.3207 32.8896 38.5925 33.0484C38.675 33.1034 38.7758 33.1492 38.8766 33.1523C38.9133 33.1217 38.9347 33.0759 38.9591 33.0362C39.1088 32.7032 39.2218 32.3519 39.3165 31.9976C39.4051 31.6921 39.3867 31.1759 39.8327 31.2217C40.2543 31.3134 40.1443 31.6982 40.0649 32.0098C39.9916 32.3489 39.8816 32.6757 39.7594 32.9995C39.5975 33.5158 39.2523 34.0137 38.6414 33.8365L38.6475 33.8396Z" fill="white"/>
<path d="M36.2285 47.5458C35.8009 46.7364 35.5718 45.8413 35.3274 44.9616C35.2052 44.5401 35.0953 44.1155 34.9945 43.6878C34.7043 42.3896 34.3408 41.1097 33.8948 39.8573C33.6138 39.002 33.4091 38.1253 33.1769 37.2547C32.9875 36.5368 32.7187 35.8434 32.4744 35.1409C32.285 34.5849 32.12 34.0229 31.9001 33.4791C31.5793 32.7185 31.3136 31.9182 31.2892 31.0873C31.2861 30.9346 31.3594 30.5161 31.5335 30.6536C31.561 30.6902 31.5519 30.7391 31.5183 30.7635C31.4724 31.2584 31.6832 31.738 31.8237 32.2023C31.9734 32.6208 32.1872 33.0118 32.3736 33.415C32.5599 33.8121 32.7126 34.2245 32.8623 34.6368C33.1708 35.4708 33.5221 36.2894 33.7573 37.1508C33.9925 37.9939 34.2094 38.8462 34.4935 39.674C34.9639 40.9233 35.3305 42.2093 35.6359 43.5076C35.7917 44.1674 36.0025 44.8119 36.1827 45.4626C36.3019 45.878 36.4393 46.2873 36.5982 46.6875C36.6715 46.8738 36.7509 47.054 36.8212 47.2434C36.8486 47.3137 36.8548 47.387 36.8364 47.4634C36.7692 47.7383 36.366 47.7963 36.2255 47.5428L36.2285 47.5458Z" fill="white"/>
<path d="M37.5876 51.9262C37.2454 51.8407 37.0744 50.9548 36.9522 50.6402C36.6162 49.5222 36.2221 48.4348 35.8281 47.3381C35.0797 45.2457 34.3374 43.1593 33.6715 41.0425C33.4179 40.1108 33.2408 39.1608 32.975 38.2322C32.8437 37.7679 32.7031 37.3066 32.5748 36.8392C32.2419 35.6571 32.0403 34.4444 31.7012 33.2653C31.3988 32.3703 31.0994 31.4753 30.9406 30.5436C30.8154 29.9449 30.6748 29.34 30.7359 28.723C30.7207 28.6711 30.7604 28.613 30.8154 28.613C30.8642 28.613 30.907 28.6589 30.8978 28.7077C30.8856 28.9674 30.9192 29.2301 30.965 29.4867C31.1453 30.232 31.353 30.9743 31.5882 31.7044C31.7562 32.1626 31.9486 32.6085 32.1228 33.0637C32.6176 34.4413 32.8773 35.8923 33.3263 37.2852C33.7906 38.6659 34.0319 40.1077 34.4901 41.4915C34.7314 42.1391 34.9789 42.8692 35.1927 43.5045C35.5684 44.5859 35.9808 45.652 36.3626 46.7302C36.7903 47.888 37.2179 49.0151 37.5662 50.1698C37.6456 50.4417 37.725 50.7166 37.8167 50.9854C37.8747 51.1442 37.9388 51.297 38.003 51.4497C38.1191 51.7063 37.8594 52.0118 37.5845 51.9262H37.5876Z" fill="white"/>
<path d="M39.7075 53.9179C38.9133 53.6185 38.171 53.1634 37.5082 52.6349C37.0683 52.2958 36.7475 51.8407 36.5246 51.3367C36.1702 50.5822 35.9503 49.7727 35.6876 48.9815C34.7803 46.2782 33.9647 43.5442 33.3599 40.7553C33.085 39.6373 32.7795 38.5285 32.5565 37.4013C32.3183 36.2802 31.9762 35.1836 31.741 34.0595C31.4202 32.5963 31.243 31.1026 30.7879 29.6699C30.6413 29.1232 30.5313 28.5703 30.4061 28.0204C30.3297 27.6416 30.1953 27.2262 30.3419 26.8505C30.3572 26.8138 30.4 26.7955 30.4366 26.8138C30.4763 26.8322 30.4916 26.878 30.4702 26.9146C30.4519 26.9421 30.4427 26.9788 30.4366 27.0063C30.4122 27.156 30.4427 27.2934 30.4672 27.437C30.6779 28.2526 30.8979 29.0712 31.1575 29.8746C31.3438 30.4153 31.521 30.9621 31.6371 31.5241C31.8112 32.3519 31.9853 33.1767 32.1778 34.0015C32.4374 35.1225 32.7887 36.2222 33.0514 37.3402C33.3049 38.4643 33.6348 39.567 33.9159 40.682C34.4199 42.8966 35.0797 45.0716 35.7609 47.2373C36.0969 48.227 36.4268 49.2198 36.7628 50.2095C36.9339 50.6921 37.1294 51.1717 37.3982 51.6085C37.8503 52.2836 39.4845 53.2917 40.2757 53.368C40.5689 53.368 40.8622 53.3375 41.1463 53.2672C41.189 53.2519 41.2287 53.2214 41.2654 53.1939C41.3998 53.0962 41.5861 53.1023 41.7053 53.2214C41.8305 53.3466 41.8366 53.5666 41.7053 53.6918C41.6503 53.7437 41.5953 53.7957 41.5312 53.8354C41.3754 53.9362 41.1921 53.9698 41.0119 53.9942C40.5781 54.0523 40.1291 54.0706 39.7136 53.9148L39.7075 53.9179Z" fill="white"/>
<path d="M37.0103 50.8082C37.0103 50.8082 36.9859 50.7807 36.9737 50.7685C36.4299 50.9304 35.4219 46.8891 35.1836 46.3056C35.1195 45.9147 35.596 45.7283 35.7457 46.1285C35.7274 45.9391 35.8557 45.7161 36.0145 45.9483C36.0695 46.0216 35.9534 46.101 35.9045 46.0246C35.8954 46.2171 35.932 46.4065 35.9687 46.5958C36.1061 46.6294 36.1611 46.77 36.2161 46.886C36.2925 47.0815 36.3688 47.2801 36.4422 47.4786C36.6377 48.0101 36.8209 48.5478 36.9798 49.0884C36.8881 48.6913 37.4013 48.5386 37.4991 48.9327C37.5449 49.4367 37.7312 50.0262 37.4899 50.4997C37.551 50.7594 37.215 51.0159 37.0073 50.8082H37.0103Z" fill="white"/>
<path d="M37.3465 51.9048C37.2273 51.8774 37.1601 51.7704 37.1174 51.6635C37.0135 51.4558 36.9066 51.2481 36.7936 51.0465C36.7142 50.9396 36.7081 50.7868 36.7142 50.6555C36.7386 50.5211 36.8425 50.2981 37.0135 50.3897C37.096 50.4386 37.1082 50.5425 37.0563 50.6188C37.0257 50.6494 37.0227 50.6891 37.038 50.7288C37.1021 50.7624 37.1449 50.8174 37.1815 50.8785C37.4381 50.8143 37.5267 51.1015 37.6031 51.2848C37.6519 51.4192 37.7222 51.5749 37.6764 51.7185C37.6397 51.856 37.487 51.9507 37.3465 51.9079V51.9048Z" fill="white"/>
<path d="M40.0896 54.1256C39.2984 54.0798 38.5164 53.814 37.878 53.3436C37.5511 53.1114 37.2304 52.8487 37.0227 52.4975C36.8333 52.1859 36.7203 51.8346 36.5889 51.4986C36.4606 51.1503 36.2254 50.7899 36.2835 50.405C36.2896 50.3561 36.3446 50.3011 36.3873 50.347C36.3995 50.35 36.4057 50.3592 36.4087 50.3714C36.9341 50.9151 37.1235 51.6849 37.6306 52.247C38.5439 53.2672 40.1048 53.7071 41.3817 53.145C41.4794 52.8243 41.9743 52.8426 42.0476 53.1695C42.1484 53.5147 41.8704 53.7468 41.568 53.8415C41.1007 54.0431 40.5997 54.1348 40.0926 54.1256H40.0896Z" fill="white"/>
<path d="M155.22 34.1267C155.431 36.3077 155.412 38.2261 155.11 40.1322C155.055 40.795 154.908 41.4976 154.749 42.0994C154.63 42.5912 154.514 43.086 154.38 43.5748C154.151 44.3995 153.842 45.1907 153.555 45.988C153.369 46.4706 153.13 46.9227 152.868 47.3565C152.846 47.4084 152.822 47.4634 152.797 47.5153C152.587 47.9338 152.397 48.3645 152.162 48.7647C151.786 49.3573 151.38 49.9285 150.937 50.4539C150.629 50.8082 150.287 51.1198 149.941 51.4253C149.098 52.1767 148.188 52.8365 147.195 53.2825C146.028 53.8323 144.788 54.3394 143.514 54.2569C142.919 54.202 142.317 54.1836 141.721 54.1134C141.529 54.0767 141.336 54.0431 141.141 54.0278C140.793 53.979 140.441 53.9362 140.108 53.811C138.871 53.533 137.698 52.9587 136.58 52.2928C135.676 51.746 134.894 50.9701 134.121 50.2095C133.562 49.6322 133.009 49.0396 132.524 48.3798C132.081 47.7139 131.699 46.9868 131.369 46.2354C130.755 44.7325 130.538 43.0341 130.639 41.3754C130.657 41.1188 130.691 40.8622 130.737 40.6087C130.801 40.2696 130.92 39.9489 130.987 39.6098C131.07 39.1822 131.158 38.7515 131.357 38.3727C131.577 37.9298 131.833 37.5082 132.154 37.1569C132.194 37.0958 132.233 37.0347 132.27 36.9737C133.144 35.7701 134.308 34.8476 135.896 35.5991C136.788 36.0267 137.057 37.0134 137.06 37.8809C137.069 39.2769 137.06 40.6973 137.539 42.0352C137.714 42.5057 137.937 42.9608 138.175 43.4068C138.346 43.7214 138.535 44.036 138.828 44.2682C139.195 44.5523 139.565 44.8455 139.98 45.0655C140.924 45.4565 142.002 45.3282 142.955 45.0319C143.215 44.9433 143.465 44.8425 143.716 44.7325C144.244 44.5065 144.785 44.2926 145.219 43.9261C145.747 43.5045 146.031 42.8905 146.27 42.2979C146.871 40.6606 146.878 38.9073 146.841 37.1966C146.826 35.6785 146.713 34.1603 146.45 32.6605C146.251 31.3775 145.952 30.1098 145.729 28.8299C145.588 27.8952 145.402 26.9635 145.115 26.0593C144.886 25.2957 144.706 24.5106 144.305 23.805C144.092 23.4109 143.884 23.0108 143.624 22.6412C143.044 21.8958 142.225 21.3124 141.287 21.0191C140.521 20.7717 139.803 20.4999 139.015 20.3502C138.841 20.3196 138.66 20.2921 138.48 20.2585C138.386 20.2524 138.291 20.2494 138.196 20.2463C137.573 20.2188 136.944 20.2799 136.324 20.173C135.749 20.0814 135.166 19.9347 134.665 19.5865C134.179 19.2474 133.837 18.6884 133.59 18.1081C133.15 17.0786 133.055 15.9087 133.132 14.7724C133.193 13.8224 133.257 12.8693 133.419 11.9346C133.694 10.5111 134.21 9.15789 134.836 7.89937C135.258 7.03184 135.759 6.2193 136.333 5.48313C137.533 3.89776 139.14 2.52621 140.955 2.15049C141.804 1.97332 142.674 2.11078 143.49 2.40708C144.583 2.8164 145.585 3.52509 146.383 4.4812C146.798 4.98216 147.244 5.47702 147.531 6.09711C147.669 6.39953 147.766 6.71721 147.849 7.04406C147.907 7.29454 147.977 7.54808 147.983 7.81078C147.983 7.80467 147.983 7.79856 147.977 7.79551C147.986 7.82605 147.986 7.86271 147.977 7.89326C148.008 8.17429 148.017 8.45531 147.95 8.72718C147.818 9.24647 147.369 9.57332 146.92 9.61303C146.447 9.6558 145.998 9.3931 145.689 8.98988C145.292 8.49808 144.99 7.9574 144.419 7.71609C143.163 7.16014 142.164 7.23345 141 8.05515C140.273 8.57139 139.531 9.14261 139.067 9.99487C138.7 10.618 138.419 11.342 138.416 12.1056C138.444 12.6494 138.459 13.2267 138.673 13.7216C138.96 14.2989 139.705 14.4119 140.221 14.5585C140.808 14.7082 141.391 14.8671 141.978 15.0106C142.595 15.145 143.227 15.2367 143.817 15.4994C144.419 15.7468 144.993 16.0706 145.549 16.4341C146.648 17.1397 147.748 17.8545 148.719 18.7892C149.694 19.7179 150.519 20.8359 151.31 21.9722C151.698 22.5373 152.119 23.0719 152.468 23.6767C153.027 24.6878 153.445 25.7936 153.796 26.9208C154.093 27.8372 154.374 28.7627 154.554 29.7219C154.82 31.182 155.076 32.6513 155.214 34.1389L155.22 34.1267Z" fill="white"/>
<path d="M136.861 14.5372C136.473 13.7277 136.528 12.8113 136.638 11.9499C136.837 10.7249 137.54 9.59776 138.465 8.72413C139.155 8.10709 140.002 7.61834 140.909 7.33731C141.676 7.12043 142.497 7.18458 143.267 7.35259C144.125 7.57558 144.938 7.96046 145.662 8.4431C145.87 8.58667 146.071 8.7394 146.3 8.85243C146.377 8.88603 146.465 8.91047 146.548 8.88603C146.994 8.68442 146.872 7.66722 146.774 7.29149C146.621 7.13876 146.927 6.98603 146.975 7.19374C147.107 7.33731 147.162 7.5267 147.253 7.69165C147.476 8.10709 147.672 8.58667 147.547 9.05403C147.351 9.78715 146.636 10.1109 145.876 9.94294C145.503 9.86352 145.176 9.68024 144.84 9.51834C144.287 9.28008 143.744 9.02654 143.172 8.83104C141.929 8.46143 141.187 8.64165 140.13 9.31063C139.272 9.86352 138.645 10.7005 138.273 11.6016C137.982 12.4386 138.019 13.3428 138.166 14.2011C138.27 14.9282 137.179 15.2153 136.861 14.5372Z" fill="white"/>
<path d="M146.041 9.72911C145.967 9.71384 145.876 9.67413 145.812 9.63747C145.757 9.60387 145.705 9.57027 145.653 9.53361C144.965 9.55805 144.556 8.94712 144.229 8.47059C144.095 8.29953 144.034 8.07349 143.823 7.96963C143.493 7.72525 142.592 7.34342 142.552 6.95242C142.549 6.75693 142.864 6.72638 142.904 6.91882C143.007 7.08988 143.218 7.18763 143.389 7.29149C143.307 6.96159 143.713 6.69278 144.022 6.86384C144.153 6.9341 144.275 7.02268 144.397 7.10821C144.721 7.07156 144.95 7.30982 145.13 7.5267C145.265 7.67638 145.411 7.84439 145.43 8.04905C145.772 7.7894 146.322 7.93603 146.474 8.32091C146.896 8.19567 147.363 8.51641 147.354 8.93185C147.333 9.47863 146.584 9.90628 146.041 9.73522V9.72911Z" fill="white"/>
</g>
<defs>
<clipPath id="clip0_99_296">
<rect width="155.36" height="55.21" fill="white"/>
</clipPath>
</defs>
</svg>
