<svg width="105" height="56" viewBox="0 0 105 56" fill="none" xmlns="http://www.w3.org/2000/svg">
<path d="M34.6355 6.62809C34.6998 8.05382 34.5595 9.4815 34.2982 10.8878C34.1344 11.7 33.9258 12.5044 33.7445 13.3146C33.5164 14.3917 33.3292 15.4766 33.0621 16.5478C32.8516 17.623 32.6644 18.704 32.4656 19.781C32.2452 21.1113 32.1224 22.4533 31.869 23.7778C31.8592 23.842 31.8475 23.9063 31.8358 23.9706C31.8319 24.0232 31.8261 24.0758 31.8222 24.1284C31.6584 25.6086 31.4868 27.0869 31.3796 28.5692C31.2197 31.0564 31.2392 33.5553 31.3796 36.0426C31.44 36.8139 31.5297 37.5852 31.7013 38.3428C32.1634 40.3178 33.0212 42.2032 33.3936 44.1977C33.6353 45.4306 33.6451 46.6869 33.6373 47.9334C33.6665 49.3552 33.4404 51.3984 31.8046 52.0333C31.3445 52.1638 30.8785 52.3645 30.3853 52.3255C29.3617 52.2437 28.5097 51.3439 28.0048 50.5998C27.3633 49.7039 27.3263 48.6112 27.1352 47.5906C27.0514 47.1017 26.9617 46.6148 26.8857 46.1259C26.7648 45.3118 26.7648 44.4859 26.7278 43.6659C26.6907 42.8752 26.6186 42.0863 26.5347 41.2975C26.4646 40.5652 26.4275 39.8309 26.2949 39.1044C26.137 38.0137 25.907 36.9346 25.671 35.8575C25.3221 34.3889 24.8483 32.9418 24.7001 31.4401C24.6377 30.9259 24.5617 30.4117 24.4603 29.9033C24.3433 29.2859 24.3024 28.6588 24.2108 28.0374C23.8579 25.4041 23.9671 24.8042 20.7579 24.6542C20.4226 24.6348 20.0892 24.6172 19.7539 24.6114C19.0013 24.6075 18.1474 24.5608 17.5391 25.0321C17.4708 25.0944 17.4085 25.1626 17.3519 25.2366C17.3675 25.3768 17.311 25.5249 17.2817 25.6651C17.2544 25.7917 17.2291 25.9183 17.2076 26.0449C17.116 26.6643 17.1414 27.2895 17.1316 27.9128C17.1258 28.8769 17.0731 29.841 17.0868 30.8051C17.077 35.3005 16.8801 39.8095 16.2055 44.2678C15.8546 46.5564 15.3496 49.1721 13.9127 51.1199C13.2187 52.008 12.4271 52.3781 11.2066 52.3021C9.60209 52.2203 8.78129 51.7821 8.05407 50.4752C7.67194 49.8032 7.54131 49.0416 7.50232 48.2937C7.47503 47.5594 7.51792 46.8232 7.61345 46.0947C7.96634 43.8724 8.6838 41.7202 9.04449 39.5056C9.35253 37.6494 9.44612 35.7679 9.47536 33.8942C9.50655 31.6134 9.46366 29.3327 9.2609 27.0577C9.20241 26.0079 9.2297 24.9542 9.15952 23.9044C9.11078 23.2908 9.03279 22.6812 8.96455 22.0696C8.83393 20.4588 8.77349 18.8442 8.47324 17.249C8.22759 15.7356 8.00923 14.2008 7.57836 12.7206C7.03636 10.7436 5.695 9.01599 5.26998 7.00984C5.14325 6.1509 5.50979 5.26079 6.16876 4.63947C6.45536 4.37847 6.82579 4.21097 7.19428 4.06489C7.67974 3.87791 8.19054 3.7552 8.7033 3.63834C8.91386 3.58575 9.12832 3.5468 9.34278 3.51758C9.47536 3.47668 9.61183 3.43967 9.75026 3.41045C10.2123 3.30723 10.6861 3.25074 11.1579 3.2001C11.6609 3.14751 12.1717 3.08908 12.6767 3.14946C13.7646 3.22542 14.7199 3.82532 15.3574 4.59856C15.6811 4.97253 15.8897 5.40882 16.0515 5.85679C16.4141 6.7469 16.5136 7.69544 16.5662 8.63619C16.6598 9.63147 16.7865 10.6248 16.8177 11.624C16.9113 13.1841 16.8372 14.7501 16.9639 16.3102C17.0146 16.7952 17.0341 17.3211 17.3129 17.7515C17.5566 18.0242 17.9524 18.1216 18.2994 18.2443C18.783 18.3923 19.286 18.4741 19.7909 18.5423C20.3446 18.6046 20.9003 18.6319 21.4481 18.7312C22.0779 18.8247 22.7193 18.8598 23.3568 18.8364C23.6551 18.8169 23.9476 18.7488 24.1893 18.5851C25.7295 17.5996 25.7744 16.4563 25.7861 14.8962C25.7861 14.5008 25.788 14.1034 25.7861 13.7061C25.7861 13.6983 25.7841 13.6886 25.7822 13.6808C25.5677 12.5063 25.3435 11.3299 25.1037 10.1593C24.9614 9.3549 24.7606 8.56023 24.6436 7.75387C24.5422 6.93388 24.4525 6.09831 24.5442 5.27442C24.5851 4.98811 24.6767 4.70764 24.7762 4.43301C24.8853 4.13501 25.0043 3.83701 25.2109 3.58185C25.4078 3.34034 25.6574 3.13583 25.9148 2.9469C26.9013 2.2574 28.1783 2.04121 29.4027 2.07432C30.0168 2.09185 30.6309 2.09574 31.2412 2.17365C32.7989 2.30804 34.0994 3.09882 34.4639 4.5226C34.6687 5.21015 34.6238 5.92496 34.6394 6.62809H34.6355Z" fill="white"/>
<path d="M31.9487 51.6302C31.7011 51.5678 31.5432 51.303 31.6173 51.0653C31.6738 50.8394 31.9058 50.7576 32.0871 50.6446C32.3055 50.4849 32.5434 50.3213 32.6896 50.0934C33.0854 49.1936 33.1672 48.21 33.2647 47.2459C33.2901 46.7024 33.2764 46.159 33.2472 45.6176C33.1672 44.5872 32.9547 43.5705 32.8105 42.546C32.4517 40.4503 32.0169 38.3681 31.6563 36.2743C31.4866 35.2323 31.3599 34.1844 31.1884 33.1424C30.9661 31.7225 30.7321 30.3046 30.6736 28.8691C30.5996 27.4706 30.6424 26.0663 30.7302 24.6698C30.8667 23.3201 31.0304 21.9742 31.1572 20.6225C31.2273 20.1044 31.3131 19.5863 31.4633 19.0857C31.6231 18.5929 31.8571 18.1255 32.0325 17.6386C32.091 17.473 32.1398 17.3055 32.1866 17.138C32.2353 16.9978 32.2314 16.8283 32.3464 16.7231C32.4049 16.6764 32.4888 16.6939 32.5356 16.7465C32.5862 16.801 32.5882 16.877 32.5901 16.9471C32.5901 17.138 32.5784 17.3289 32.5512 17.5178C32.4634 18.0787 32.2763 18.6163 32.1515 19.1695C32.0325 19.8064 31.9546 20.4511 31.8902 21.0958C31.7771 22.6773 31.5588 24.2491 31.5042 25.8346C31.4145 27.6713 31.4886 29.5177 31.7654 31.3388C31.978 32.7353 32.1983 34.1319 32.3971 35.5303C32.6135 36.9444 32.9138 38.3448 33.1653 39.7549C33.409 41.1222 33.6644 42.4856 33.8652 43.8588C34.0485 44.8696 34.1031 45.8941 34.0875 46.9186C34.0329 48.099 33.8867 49.291 33.4928 50.4148C33.3174 50.9056 32.4927 51.7431 31.9526 51.6263L31.9487 51.6302Z" fill="white"/>
<path d="M32.2725 42.2013C32.2198 41.9948 32.1886 41.7844 32.1516 41.5741C32.1457 41.5429 32.1399 41.5118 32.134 41.4825C32.1087 41.4553 32.0853 41.4222 32.0697 41.3871C31.9937 41.2235 31.9293 41.054 31.8689 40.8846C31.4302 40.8593 31.169 39.4647 31.0091 39.083C30.5217 37.3105 30.0694 35.355 30.6231 33.5592C30.6016 33.3742 30.5802 33.1872 30.588 33.0022C30.5841 32.7256 30.9993 32.6438 31.1085 32.897C31.6271 32.7334 31.5901 33.3995 31.6076 33.717C31.6427 34.2546 31.6837 34.7941 31.7344 35.3297C32.0638 36.3191 32.2042 37.3534 32.3602 38.3798C32.8807 38.4188 32.8223 40.497 32.8496 40.9508C32.8924 41.3501 33.0055 41.7513 32.9724 42.1545C32.9353 42.5187 32.3582 42.5557 32.2705 42.1993L32.2725 42.2013Z" fill="white"/>
<path d="M27.8973 49.3163C27.6166 48.8332 27.4353 48.3074 27.2676 47.7795C27.1038 47.2751 26.9732 46.7609 26.8738 46.2408C26.6417 45.0605 26.6164 43.8763 26.5053 42.7018C26.361 41.1339 26.0179 39.5913 25.7371 38.0429C25.5675 37.0047 25.4661 35.9569 25.3121 34.9168C25.1503 33.8786 24.9826 32.8405 24.8305 31.8004C24.698 30.8538 24.462 29.9267 24.2788 28.9899C24.1365 28.1465 24.0565 27.2953 23.9337 26.45C23.8791 25.9495 23.844 25.4411 23.6802 24.962C23.6295 24.7614 23.2942 24.4595 23.3917 24.2881C23.5087 24.1303 23.9025 24.4945 23.9922 24.5763C24.076 24.662 24.1404 24.7575 24.1969 24.8607C24.4874 25.3905 24.5634 25.9904 24.6843 26.5688C24.772 26.9487 24.8344 27.3324 24.891 27.7161C24.9943 28.6393 25.2244 29.5041 25.4291 30.3961C25.546 30.9317 25.6377 31.4732 25.7274 32.0127C25.8775 33.047 26.0842 34.0734 26.2265 35.1096C26.3337 35.8828 26.4312 36.658 26.5384 37.4313C26.9244 39.6887 27.4547 41.9305 27.521 44.2249C27.6127 45.6429 27.8681 47.053 28.3594 48.395C28.4276 48.5917 28.4959 48.7904 28.5641 48.9871C28.5933 49.067 28.605 49.1449 28.5816 49.2286C28.5095 49.5227 28.0474 49.5909 27.8993 49.3143L27.8973 49.3163Z" fill="white"/>
<path d="M44.2743 29.1613C44.4615 27.2583 44.5999 25.3437 44.4654 23.433C44.403 22.5565 44.3075 21.6762 44.0774 20.825C43.9 20.3478 43.7128 19.8726 43.4555 19.4305C43.3444 19.2065 43.2157 18.9942 43.0578 18.7994C42.933 18.6572 42.7205 18.2735 42.5099 18.3865C42.1122 18.591 41.5409 19.6583 41.3479 20.0849C41.1958 20.7978 41.1003 21.5184 41.0145 22.241C40.843 23.4876 40.6636 24.7341 40.572 25.9884C40.4238 27.8037 40.3361 29.6579 40.8332 31.4323C40.9931 31.9426 41.1744 32.4549 41.4629 32.9126C41.5838 33.0781 41.7223 33.2301 41.8626 33.3839C42.1531 33.6878 42.584 34.2195 43.0383 34.2175C43.4867 34.1338 43.6193 33.4307 43.746 33.0723C43.9331 32.4529 43.976 31.8082 44.0638 31.1713C44.1808 30.5071 44.2061 29.8313 44.2802 29.1632L44.2743 29.1613ZM50.7803 22.802C51.0922 25.6632 50.9987 28.5458 50.7569 31.4089C50.5268 34.7551 50.094 38.0916 49.3454 41.3676C48.9866 43.0212 48.6435 44.6885 48.0313 46.2759C47.733 47.1855 47.3119 48.0542 46.7582 48.8469C46.2532 49.6026 45.4363 50.4459 44.5804 50.8024C44.1262 50.9621 43.6427 51.0497 43.1572 51.0458C42.9232 51.04 42.6893 51.0186 42.4592 50.9796C41.9816 50.8998 41.5448 50.6953 41.1062 50.5102C40.1664 50.1363 39.3651 49.4935 38.714 48.7475C38.2324 48.2509 37.8581 47.6782 37.5266 47.0822C36.7741 46.1649 36.4855 44.9962 36.0566 43.9211C35.7758 43.2043 35.5477 42.47 35.3547 41.726C35.0584 40.6626 34.8088 39.5874 34.6022 38.5025C34.4247 37.6806 34.2161 36.8626 34.0621 36.0367C33.5532 33.5378 33.3914 30.9824 33.4343 28.4406C33.4265 26.7519 33.448 25.0633 33.5357 23.3765C33.6293 21.3373 33.8671 19.3155 34.259 17.3113C34.415 16.4758 34.6256 15.6499 34.8264 14.8241C34.9238 14.4112 35.0408 14.0022 35.1773 13.599C35.5555 12.3914 36.0741 11.2345 36.544 10.06C37.0334 8.91277 37.6709 7.8201 38.4839 6.85792C38.9674 6.25218 39.5523 5.72046 40.2347 5.32702C40.3361 5.26858 40.4472 5.2121 40.5622 5.1673C40.609 5.14588 40.6538 5.12445 40.7006 5.10692C41.0516 4.97058 41.4357 4.9589 41.808 4.98811C42.0595 5.00369 42.3091 5.02512 42.5509 5.09913C43.2079 5.2978 43.7557 5.71461 44.2685 6.14506C44.9801 6.73716 45.6469 7.3916 46.0973 8.19601C46.5691 8.9751 46.9921 9.78535 47.3782 10.6073C47.8305 11.6571 48.2068 12.74 48.6103 13.8074C49.2225 15.3597 49.6144 16.9802 50.0024 18.5949C50.3046 19.9895 50.6653 21.3762 50.7842 22.802H50.7803Z" fill="white"/>
<path d="M76.7166 43.2043C76.7946 44.1431 76.896 45.0819 76.8843 46.0246C76.8687 47.0024 76.7887 47.9899 76.5177 48.9384C76.2643 49.8655 75.6697 50.5005 74.5603 50.6407C73.874 50.7518 73.178 50.6524 72.5112 50.4888C71.4877 50.259 70.4524 49.7545 69.9611 48.88C69.7154 48.395 69.6355 47.8497 69.6628 47.3218C69.694 46.8933 69.7934 46.4726 69.889 46.0538C70.1717 44.8385 70.4563 43.6231 70.6688 42.396C70.9437 40.6645 71.086 38.9135 71.088 37.1645C71.0763 36.3815 71.0061 35.6024 70.9554 34.8213C70.8443 33.2846 70.7975 31.7459 70.776 30.2072C70.7332 28.1524 70.6747 26.0995 70.6571 24.0446C70.6454 22.6695 70.6435 21.2964 70.5538 19.9232C70.4602 18.8987 70.3647 17.8703 70.1853 16.8536C70.0313 16.0219 69.9026 15.163 69.4639 14.4073C69.2417 14.0197 68.7582 15.1065 68.686 15.2507C68.4579 15.7804 68.2669 16.3258 68.1265 16.8809C68.0056 17.4087 67.9335 17.9424 67.8867 18.48C67.6859 19.9271 67.6215 21.3938 67.3174 22.8292C67.1556 23.5518 66.8378 24.3076 66.0521 24.6484C65.2703 24.9678 64.3013 24.9328 63.5916 24.4809C62.9814 24.103 62.8001 23.4155 62.607 22.8117C62.5154 22.4942 62.3633 22.1982 62.2054 21.9021C61.7044 21.0295 61.4509 20.0732 61.0629 19.1617C60.5658 17.995 60.0881 16.8225 59.6338 15.6421C59.4623 15.1688 59.2965 14.6956 59.1211 14.2242C58.9943 13.9184 58.8774 13.6009 58.6493 13.3419C58.271 13.6944 58.156 14.2047 58.0312 14.6663C57.8382 15.5837 57.69 16.5128 57.7095 17.4496C57.7349 18.5384 57.8753 19.633 57.9435 20.7101C58.0585 22.6481 58.3061 24.5783 58.4582 26.5143C58.6239 29.1184 58.4543 31.7284 58.5771 34.3344C58.6103 35.4758 58.735 36.6113 58.9398 37.7371C59.1952 39.5465 59.665 41.3189 60.2285 43.068C60.8836 45.3838 62.8897 49.9921 60.6028 51.8561C59.5929 52.6255 58.2905 53.2059 56.9394 53.1319C56.0387 53.1046 55.2471 52.83 54.6057 52.2554C53.9974 51.7626 53.4164 51.2289 53.0187 50.5784C52.0263 49.0358 51.7651 47.2205 51.6442 45.4695C51.4356 42.9258 51.3167 40.3743 51.4824 37.8267C51.5175 36.3445 51.5799 34.8642 51.5896 33.382C51.5916 32.4588 51.5779 31.5355 51.6305 30.6123C51.6598 29.9287 51.7105 29.245 51.7592 28.5633C51.7027 27.1006 51.7027 25.6359 51.7007 24.1712C51.6832 22.0872 51.8509 20.0089 51.8548 17.9249C51.9542 14.5397 51.8742 11.0825 52.9056 7.79673C53.2234 6.78391 53.7381 5.82563 54.3912 4.95306C55.0756 3.99283 55.8574 3.40851 57.1246 3.1631C58.0176 2.9917 58.932 3.05208 59.6709 3.57797C60.5287 4.23045 61.2403 5.06992 61.6576 6.00872C62.2308 7.23189 62.5739 8.52712 62.8312 9.8282C63.0106 10.5722 63.2231 11.3124 63.3284 12.07C63.4415 12.7732 63.537 13.4802 63.6871 14.1794C64.3481 11.2948 64.5391 8.28561 65.8746 5.56464C66.1534 5.02123 66.4381 4.46613 66.8631 4.00257C67.6449 3.28191 68.7699 2.80862 69.9046 2.90405C70.431 2.95664 70.8657 3.25854 71.2791 3.53317C71.5033 3.68509 71.7197 3.8448 71.9341 4.00646C73.0123 4.80308 73.4997 5.34455 73.8116 6.58914C74.1626 8.08694 74.4745 9.59642 74.7358 11.1098C74.9171 12.6349 75.0848 14.1599 75.2914 15.683C75.7242 19.822 75.6814 23.9881 75.8783 28.1407C75.9855 32.2952 76.393 36.436 76.5743 40.5866C76.6191 41.4611 76.664 42.3357 76.7186 43.2082L76.7166 43.2043Z" fill="white"/>
<path d="M102.822 45.8123C102.871 46.9888 103.497 48.7592 102.226 49.4779C100.19 50.2434 97.9951 50.4693 95.8349 50.5745C94.281 50.7011 92.7252 50.7732 91.1675 50.7479C90.0035 50.7673 88.8435 50.6836 87.6815 50.629C85.8859 50.6622 84.0981 50.52 82.357 50.0759C80.15 49.661 78.4636 49.3591 77.9723 46.8505C77.5648 44.8287 77.8417 42.7583 77.8241 40.721C77.4459 35.6978 76.9468 30.6708 76.978 25.6281C76.978 23.6687 76.9546 21.6684 77.1027 19.7187C77.21 17.7301 77.5161 15.7532 77.5531 13.7606C77.7461 8.77643 78.2745 3.97724 84.1448 2.93521C85.4609 2.66838 86.7866 2.38206 88.1377 2.39764C90.0815 2.39764 91.9766 2.83198 93.8931 3.06766C94.7938 3.16894 95.6867 3.34813 96.5758 3.52537C97.0261 3.60912 97.4921 3.67729 97.8898 3.91297C98.5449 4.29083 98.8959 4.97837 99.1883 5.64254C99.7108 6.69237 99.6816 8.01487 99.1941 9.07248C97.9483 11.252 94.4643 10.4242 92.3938 10.171C91.4073 10.0093 90.4227 9.85741 89.4264 9.77171C88.5198 9.60421 87.5899 9.54383 86.6755 9.70354C85.5018 10.0561 83.9401 10.467 83.6457 11.8246C83.2149 14.0236 83.0647 16.2635 83.2344 18.4994C83.3104 19.7304 83.3572 20.268 83.6087 20.49C84.0162 20.6088 84.447 20.5562 84.8643 20.5231C85.5993 20.4238 86.3343 20.34 87.0732 20.2875C88.3561 20.1394 89.7364 19.968 90.953 20.5075C91.2338 20.6439 91.497 20.8289 91.6997 21.0646C91.9493 21.384 92.1462 21.7366 92.3022 22.1105C92.5069 22.5897 92.7057 23.0746 92.8052 23.5869C92.8676 23.8557 92.8871 24.1323 92.8715 24.4069C92.8812 24.8334 92.8169 25.2678 92.6141 25.6495C92.4152 26.0235 92.1403 26.3546 91.842 26.6565C91.5788 26.9428 91.2727 27.1863 90.9296 27.3713C90.0074 27.903 88.9293 28.055 87.8999 28.2731C87.1473 28.4367 86.3986 28.5808 85.6402 28.6763C85.1645 28.7503 84.6752 28.7795 84.2092 28.91C84.178 28.9236 84.1487 28.9392 84.1215 28.9568C84.0045 29.2567 83.9518 29.5781 83.9245 29.8975C83.868 31.3038 83.9362 32.7139 83.9382 34.1241C84.0493 36.0815 83.8329 38.1383 84.5894 39.9925C84.991 41.0054 86.2173 40.7697 87.1005 40.7619C88.3541 40.7288 89.6019 40.5885 90.8575 40.6217C93.0352 40.6509 95.2071 40.534 97.3829 40.4814C98.6716 40.4717 100.151 40.3548 101.173 41.28C102.473 42.3921 102.764 44.1996 102.824 45.8123H102.822Z" fill="white"/>
</svg>
