<svg width="195" height="56" viewBox="0 0 195 56" fill="none" xmlns="http://www.w3.org/2000/svg">
<path d="M11.0809 39.7516C11.247 41.9408 11.2545 44.1376 11.2394 46.3306C11.2696 48.5613 10.8658 50.8298 9.69945 52.7586C8.96719 54.0608 7.80465 55.1063 6.20803 54.793C5.06813 54.6345 4.16603 53.7852 3.61495 52.8189C3.20353 52.098 2.98461 51.2903 2.77323 50.4939C2.23348 48.3726 2.32784 46.1569 2.275 43.9866C2.12779 38.5928 2.14667 33.1991 2.13912 27.8015C2.0976 23.057 1.94284 18.3162 1.72392 13.5792C1.58804 12.8092 1.42196 12.0468 1.18417 11.2994C1.02564 10.8163 0.86711 10.3331 0.746325 9.83868C0.617992 9.33667 0.508531 8.83466 0.402845 8.32888C0.244316 7.56265 0.0404932 6.8002 0.0102972 6.01511C-0.125585 3.63339 1.08603 2.17644 3.48661 1.94619C5.05681 1.84428 6.94783 1.85938 8.15567 3.0106C8.57842 3.38428 8.88415 3.86741 9.10308 4.38452C9.56356 5.41119 9.8391 6.50957 9.85043 7.63437C9.8693 9.99721 9.47675 12.3449 9.33709 14.7002C9.21254 16.863 9.33709 19.0296 9.45788 21.1924C9.65415 25.2311 10.0731 29.2547 10.4392 33.2821C10.5676 34.3503 10.6317 35.4223 10.7714 36.4867C10.9186 37.57 11.0054 38.6608 11.0847 39.7478L11.0809 39.7516Z" fill="white"/>
<path d="M32.4482 20.2148C32.5048 22.3814 32.3916 24.5479 32.3198 26.7145C32.2406 28.3224 32.2028 29.9304 32.2293 31.5421C32.233 33.7388 32.2142 35.9394 32.2934 38.1361C32.3123 40.3744 32.2859 42.6127 32.3312 44.851C32.3312 45.9531 32.3161 47.0591 32.2708 48.1612C32.2179 49.8446 32.1123 51.7319 30.8553 52.9964C29.9419 53.9966 28.9303 53.9966 27.7338 53.5172C26.9412 53.219 26.107 52.8869 25.5559 52.215C24.8577 51.3507 24.3858 50.3202 23.9555 49.3049C23.5404 48.2895 23.295 47.2176 23.0421 46.1532C22.8421 45.3341 22.6609 44.5075 22.4948 43.6809C22.0192 41.0991 21.4304 38.5513 21.0416 35.962C20.6906 33.8332 20.5358 31.6704 20.0905 29.5605C19.8791 28.4772 19.6413 27.4014 19.4224 26.3219C19.3054 25.8879 19.1506 24.1818 18.6335 24.2044C18.1088 24.3856 18.3882 26.4352 18.4485 26.9259C18.5203 27.7336 18.6486 28.5376 18.7392 29.3453C18.9241 31.3458 19.1657 33.3425 19.2525 35.3505C19.5583 39.2194 19.9131 43.1109 19.5998 46.9911C19.4224 48.9388 19.4375 50.9996 18.4901 52.7623C17.7767 54.2382 17.2067 55.0988 15.4063 55.1289C14.3268 55.1667 13.4285 54.3854 13.0661 53.4078C12.7604 52.551 12.8547 51.5054 12.7755 50.6373C12.7189 49.6937 12.6169 48.75 12.6773 47.8064C12.6962 47.3006 12.7604 46.8024 12.8283 46.3042C12.783 45.7644 12.7377 45.2247 12.6962 44.6849C12.5528 42.0088 12.6056 39.3213 12.5679 36.6414C12.5679 34.4711 12.6887 32.3045 12.6547 30.1342C12.6056 25.8388 12.6018 21.5434 12.6207 17.248C12.6434 15.6929 12.6698 14.1378 12.6924 12.5865C12.7377 10.4879 12.8283 8.32888 13.6323 6.36237C14.1116 5.1583 14.7193 3.92404 15.7422 3.09365C16.365 2.63316 17.2369 2.87095 17.8031 3.31634C18.2372 3.65982 18.5467 4.12786 18.7996 4.611C19.1997 5.36212 19.5092 6.15099 19.7583 6.96251C19.9357 7.49094 20.132 8.0156 20.2754 8.55535C20.4792 9.50275 20.6378 10.4577 20.8227 11.4089C21.1662 12.8847 21.4342 14.3719 21.6569 15.8703C21.8871 17.5877 22.0456 19.3316 22.5024 21.0037C22.7175 21.8039 23.0119 22.5814 23.2384 23.3816C23.5064 24.2648 23.7253 25.1858 24.2084 25.9785C24.3443 26.1445 24.5595 26.522 24.7708 26.2464C25.4201 25.3028 25.405 23.4156 25.4238 22.2832C25.4238 18.939 25.1483 15.6061 24.9747 12.2657C24.9445 12.2204 24.9256 12.1676 24.918 12.1109C24.7293 11.0201 24.518 9.9255 24.4764 8.81579C24.4425 7.78158 24.4764 6.74359 24.5029 5.70938C24.518 5.15452 24.5406 4.59967 24.6199 4.0486C24.7822 2.97664 25.1407 1.71218 26.0919 1.08939C27.0582 0.508112 28.3528 0.4062 29.3418 0.983699C30.6779 1.9009 30.9308 3.67114 31.1196 5.16962C31.2215 5.82639 31.4026 6.47183 31.4895 7.13237C32.1424 11.4617 32.3312 15.8401 32.452 20.211L32.4482 20.2148Z" fill="white"/>
<path d="M57.2924 34.1163C57.5038 36.3999 57.4849 38.4079 57.1829 40.4084C57.1263 41.1029 56.9829 41.8389 56.8243 42.4693C56.7036 42.9864 56.5903 43.5035 56.4544 44.013C56.2242 44.8774 55.9185 45.704 55.6278 46.542C55.4429 47.0477 55.2013 47.5195 54.9409 47.9763C54.9182 48.0329 54.8956 48.0857 54.8692 48.1423C54.6578 48.5802 54.4691 49.0331 54.235 49.4521C53.8576 50.0711 53.4537 50.6713 53.0121 51.2223C52.7026 51.596 52.3629 51.9206 52.0156 52.2377C51.1739 53.0265 50.2605 53.7173 49.2678 54.1815C48.1015 54.7553 46.8597 55.2875 45.5876 55.2007C44.9913 55.1403 44.3911 55.1252 43.7948 55.0497C43.6023 55.0119 43.4098 54.9742 43.2135 54.9591C42.8662 54.91 42.5152 54.8647 42.183 54.7326C40.945 54.442 39.7711 53.8418 38.6539 53.1436C37.748 52.5736 36.9667 51.7583 36.1929 50.9619C35.6343 50.358 35.0832 49.7389 34.5963 49.0444C34.1547 48.3462 33.7735 47.5837 33.4413 46.7986C32.8261 45.2246 32.6071 43.4431 32.709 41.7068C32.7279 41.4388 32.7619 41.1671 32.8072 40.9028C32.8713 40.548 32.9884 40.2121 33.0601 39.8573C33.1431 39.4081 33.2299 38.959 33.43 38.5627C33.6489 38.0984 33.9056 37.6568 34.2264 37.2906C34.2641 37.2265 34.3057 37.1623 34.3434 37.0981C35.2153 35.8375 36.3816 34.8712 37.9707 35.6601C38.8615 36.1054 39.1332 37.1397 39.1332 38.0493C39.1408 39.5101 39.1332 40.9972 39.6126 42.4013C39.7862 42.8958 40.0089 43.3714 40.2505 43.8394C40.4241 44.1716 40.6091 44.4999 40.9035 44.7415C41.2696 45.0397 41.6395 45.3454 42.0547 45.5757C42.9983 45.9871 44.0778 45.8512 45.0328 45.5417C45.2932 45.4511 45.5424 45.3454 45.7915 45.2284C46.3199 44.9944 46.8597 44.7679 47.2975 44.3829C47.8259 43.9413 48.109 43.2997 48.3506 42.6769C48.9507 40.9632 48.9583 39.1251 48.9205 37.3359C48.9054 35.7469 48.7922 34.154 48.528 32.5838C48.3279 31.2401 48.0298 29.9115 47.8071 28.5715C47.6636 27.5902 47.4824 26.6163 47.1918 25.6689C46.9616 24.8688 46.7842 24.0497 46.3841 23.3099C46.1689 22.8947 45.9613 22.4795 45.7009 22.0907C45.1196 21.3132 44.3005 20.6979 43.3645 20.3922C42.5982 20.1355 41.8773 19.8487 41.0922 19.6901C40.9186 19.6599 40.7374 19.626 40.5562 19.592C40.4619 19.5882 40.3675 19.5844 40.2731 19.5769C39.6504 19.5505 39.02 19.6109 38.401 19.4976C37.8273 19.4033 37.2422 19.2485 36.7402 18.8824C36.2533 18.5276 35.9136 17.9425 35.6645 17.3311C35.2266 16.2553 35.1285 15.0248 35.204 13.8359C35.2644 12.8432 35.3285 11.8429 35.4909 10.8616C35.7664 9.37064 36.2797 7.9552 36.9101 6.63413C37.3328 5.72447 37.831 4.87521 38.4085 4.10144C39.6088 2.44065 41.2168 1.00257 43.0323 0.613793C43.8816 0.428843 44.7535 0.572274 45.5688 0.885558C46.6596 1.31585 47.6636 2.05565 48.4638 3.05967C48.879 3.58433 49.3244 4.10144 49.6113 4.75065C49.7472 5.06771 49.8453 5.39986 49.9283 5.74334C49.9887 6.00756 50.0567 6.27177 50.0642 6.54731C50.0642 6.54354 50.0642 6.53599 50.0604 6.53221C50.0718 6.56619 50.068 6.60393 50.0604 6.63413C50.0906 6.92854 50.102 7.22295 50.034 7.50604C49.9019 8.04957 49.4527 8.39304 49.0036 8.43456C48.528 8.47986 48.0826 8.20432 47.7731 7.78158C47.3768 7.26824 47.0748 6.70207 46.5011 6.4454C45.2442 5.86413 44.2439 5.93962 43.0814 6.8002C42.3567 7.34373 41.6131 7.94011 41.1488 8.83089C40.7827 9.48388 40.5034 10.2426 40.4958 11.0427C40.5223 11.6127 40.5411 12.2166 40.7525 12.7337C41.0394 13.3376 41.7829 13.4584 42.3038 13.6094C42.8889 13.7642 43.4739 13.934 44.0627 14.0812C44.6818 14.2209 45.3121 14.319 45.9009 14.5908C46.5049 14.8474 47.0786 15.1872 47.6334 15.5722C48.7318 16.312 49.834 17.0593 50.804 18.0369C51.7778 19.0107 52.6045 20.1808 53.3933 21.3698C53.7821 21.9624 54.2048 22.5248 54.5521 23.1551C55.1107 24.2158 55.5297 25.3708 55.8807 26.5522C56.1751 27.5109 56.4582 28.481 56.6394 29.485C56.9074 31.0174 57.1603 32.5536 57.2999 34.1125L57.2924 34.1163Z" fill="white"/>
<path d="M38.9257 13.5981C38.5369 12.7488 38.5935 11.7901 38.703 10.888C38.8993 9.60466 39.6013 8.42324 40.5299 7.50981C41.2206 6.86437 42.0661 6.35104 42.9757 6.05663C43.742 5.83016 44.5648 5.8981 45.3348 6.07173C46.1954 6.30575 47.0069 6.70584 47.7278 7.2154C47.9354 7.36638 48.1393 7.52491 48.3695 7.64192C48.445 7.67589 48.5356 7.70231 48.6186 7.67966C49.0678 7.46829 48.9395 6.40388 48.8451 6.00756C48.6903 5.84903 48.9961 5.6905 49.0489 5.90187C49.1773 6.05285 49.2339 6.24913 49.3282 6.42275C49.5509 6.85682 49.7472 7.35883 49.6226 7.84952C49.4301 8.61574 48.713 8.95544 47.9505 8.78182C47.5769 8.69878 47.2523 8.50628 46.9163 8.33643C46.3652 8.08731 45.8179 7.81932 45.248 7.61927C44.0024 7.23427 43.2588 7.423 42.2057 8.12128C41.3489 8.70255 40.7224 9.57824 40.3487 10.5219C40.058 11.3975 40.0958 12.3487 40.243 13.2471C40.3449 14.0095 39.2541 14.3077 38.937 13.5981H38.9257Z" fill="white"/>
<path d="M48.1091 8.5629C48.0374 8.54403 47.943 8.50628 47.8788 8.46476C47.826 8.43079 47.7732 8.39682 47.7203 8.3553C47.0334 8.38172 46.6257 7.74006 46.2973 7.24183C46.1614 7.06065 46.1011 6.82663 45.8897 6.71717C45.5575 6.4605 44.6554 6.06418 44.6177 5.65276C44.6177 5.44894 44.9272 5.41496 44.9687 5.61879C45.0744 5.79996 45.282 5.8981 45.4556 6.01134C45.3726 5.66408 45.7802 5.38477 46.0897 5.56595C46.2218 5.63766 46.3426 5.73202 46.4634 5.82261C46.7842 5.78487 47.0183 6.03398 47.1957 6.26046C47.3315 6.41898 47.475 6.59261 47.4938 6.80776C47.8373 6.53599 48.3884 6.69075 48.5394 7.09084C48.9621 6.95874 49.4302 7.29467 49.4188 7.72874C49.3962 8.29869 48.6488 8.75163 48.1053 8.57045L48.1091 8.5629Z" fill="white"/>
<path d="M72.5259 6.6077C72.5863 7.31731 72.624 8.03069 72.541 8.73652C72.5032 9.15549 72.4164 9.60088 72.1446 9.91039C71.8729 10.2237 71.4652 10.2992 71.0953 10.3331C70.6386 10.3671 70.1781 10.3898 69.7214 10.386C68.9476 10.3482 68.1739 10.3633 67.4039 10.4086C66.9056 10.4501 66.4074 10.5256 65.9092 10.5785C65.7091 10.6049 65.494 10.586 65.3128 10.703C65.0561 10.9824 65.0222 11.4126 64.992 11.7939C64.9655 12.2846 64.9806 12.7752 65.0108 13.2659C65.0675 14.7833 65.0674 16.3006 65.0976 17.818C65.0939 18.6219 65.158 19.4259 65.2298 20.2261C65.2939 21.0905 65.3505 21.9511 65.4109 22.8154C65.5279 24.295 65.5732 25.7784 65.6487 27.2618C65.7922 29.3529 65.9394 31.4477 66.2338 33.5199C66.5659 35.3468 66.7433 37.1963 66.8113 39.0571C66.8641 39.997 66.9547 40.9368 67.034 41.8767C67.1132 42.8656 67.1359 43.8583 67.1925 44.851C67.2944 46.4514 67.4794 48.0442 67.4907 49.6521C67.5058 50.1617 67.5096 50.675 67.5058 51.1846C67.4982 51.5809 67.4718 51.9886 67.3435 52.3622C67.1208 53.0341 66.464 53.1247 65.9016 53.1624C65.5657 53.2002 65.2298 53.2266 64.8938 53.2794C64.2899 53.3625 63.6973 53.5097 63.1047 53.6531C62.565 53.7852 62.0063 53.8079 61.4628 53.6984C60.7607 53.5965 60.338 53.5474 60.1115 52.6868C59.9115 52.1131 59.87 51.4903 59.9153 50.8788C59.9153 50.8336 59.9228 50.7883 59.9266 50.7392C59.9228 50.6146 59.9153 50.4901 59.9077 50.3617C59.8209 48.8406 59.7945 47.3157 59.8058 45.7946C59.8058 44.2659 59.6963 42.741 59.7039 41.2086C59.6888 39.7176 59.7039 38.2229 59.6699 36.732C59.5567 32.765 59.3 28.7791 59.0735 24.8423C58.9641 22.8343 58.9377 20.8225 58.8395 18.8182C58.7791 18.0105 58.6848 17.2027 58.7074 16.3912C58.7187 15.6212 58.7565 14.8512 58.715 14.0812C58.6319 13.0885 58.5338 12.0996 58.3451 11.1258C58.2582 10.6842 58.2696 9.92926 57.7336 9.92926C57.3599 9.91417 56.9825 9.91794 56.6088 9.89152C55.4085 9.81226 54.2082 9.85755 53.0117 9.74809C52.1851 9.6575 50.9168 9.60466 50.8149 8.40059C50.7545 7.11726 50.8149 5.83393 50.8149 4.5506C50.8263 3.90138 50.8376 3.18045 51.2226 2.65957C51.5396 2.22173 52.0228 2.07452 52.5097 2.11227C52.8381 2.12359 53.1664 2.10094 53.4948 2.07075C53.9251 2.05188 54.3479 2.15756 54.7744 2.19153C55.0839 2.20663 55.3934 2.22173 55.7029 2.2406C56.0049 2.2406 56.3068 2.25193 56.6088 2.28212C58.3035 2.32742 60.0021 2.18776 61.7006 2.15756C62.0139 2.15001 62.3309 2.15379 62.6442 2.13492C63.116 2.0783 63.5878 2.01791 64.0634 2.02923C64.5126 2.04433 64.9618 2.05565 65.4109 2.05943C66.045 2.0934 66.6792 2.12359 67.3171 2.11227C67.4794 2.11227 67.6417 2.11227 67.804 2.10472C67.9021 2.10095 68.0078 2.09717 68.1022 2.12737C68.2343 2.0934 68.3664 2.05943 68.4985 2.04055C69.0345 1.95752 69.5742 2.04433 70.1102 2.10472C70.4801 2.14624 70.85 2.18776 71.2161 2.26702C71.5898 2.35384 71.9257 2.60673 72.1409 2.96153C72.7901 4.04104 72.4579 5.40741 72.5296 6.62657L72.5259 6.6077Z" fill="white"/>
<path d="M81.585 13.1225C82.0832 12.8772 81.7586 11.3032 81.6718 10.8465C81.5397 9.94437 81.3812 9.03849 81.0415 8.18168C80.9471 7.92879 80.8641 7.67212 80.747 7.42678C80.6451 7.2607 80.513 7.11349 80.3809 6.97006C80.1658 7.13992 80.079 7.40791 79.9808 7.6457C79.8412 8.0307 79.7015 8.4157 79.5619 8.8007C79.309 9.53295 79.1693 10.2954 79.0146 11.0503C78.8749 11.8316 78.7843 12.6356 78.9353 13.4207C79.4411 13.315 79.9582 13.2546 80.4753 13.2282C80.8414 13.2131 81.2377 13.2622 81.5774 13.1263L81.585 13.1225ZM94.792 47.1647C94.9354 47.9196 94.9732 48.6934 94.875 49.4521C94.8146 50.2561 94.7278 51.128 94.139 51.7659C93.8446 52.0716 93.4898 52.3207 93.1387 52.5736C92.18 53.2002 90.591 53.487 89.4284 53.4606C88.9717 53.4493 88.5187 53.4115 88.0696 53.3285C87.6619 53.2643 87.2354 53.219 86.858 53.0492C85.518 52.4717 85.25 50.9996 85.0915 49.7729C84.665 47.1723 84.7178 44.5264 84.8084 41.9069C84.8424 39.5403 84.4876 37.1887 84.2611 34.8372C84.046 32.5914 83.8837 30.3456 83.6912 28.0997C83.544 26.0615 83.3854 24.0233 83.0306 22.0039C82.9249 21.0641 82.7589 20.1242 82.5777 19.1957C82.1625 18.9201 81.4151 18.8031 80.849 18.7465C80.4715 18.7805 80.0752 18.739 79.7015 18.7767C78.8598 18.8182 78.8258 19.4335 78.6673 20.0487C78.5012 20.6564 78.3955 21.2717 78.2974 21.8869C78.1275 22.6682 78.0407 23.4571 77.9577 24.2497C77.7765 25.718 77.5916 27.1901 77.4217 28.6584C77.3802 29.7228 77.2934 30.7834 77.2103 31.844C77.0896 33.4558 77.0594 35.0675 77.0329 36.6792C77.0103 39.1024 76.9839 41.5256 77.0443 43.9489C77.0782 44.6811 77.1273 45.4172 77.1198 46.1494C77.1084 48.0631 77.2141 50.1466 76.0855 51.83C75.6628 52.4038 75.1532 53.0454 74.3644 53.1624C73.3905 53.2606 72.4167 53.3927 71.4354 53.3323C69.4537 53.2266 68.6158 52.8454 68.563 50.8713C68.5365 49.3049 68.6649 47.7347 68.9479 46.1909C69.1291 45.3341 69.2914 44.4773 69.4575 43.6243C69.767 41.4313 70.2615 39.2572 70.7257 37.0868C71.3183 34.1276 71.8203 31.1533 72.2808 28.1714C72.4847 26.0577 72.696 23.944 72.8583 21.8265C73.0433 19.86 72.9829 17.8822 73.1376 15.9156C73.3452 13.8925 73.6548 11.8807 74.07 9.88398C74.1605 9.39707 74.2398 8.90638 74.3191 8.4157C74.4663 7.57398 74.5304 6.70585 74.9003 5.9132C76.3762 3.03326 78.237 2.40669 81.5208 2.27458C82.3248 2.23306 83.1929 2.20664 83.8912 2.64071C85.0613 3.38428 85.552 4.71291 85.9823 5.90943C86.137 6.38879 86.2163 6.8908 86.2993 7.38526C86.5522 8.88374 86.9221 10.3671 87.175 11.8694C87.326 12.8734 87.511 13.8736 87.6431 14.8776C87.7978 16.4176 87.8771 17.9652 88.0432 19.5014C88.1375 20.5168 88.2847 21.5283 88.4093 22.5399C88.7075 25.5444 88.9264 28.564 89.5718 31.527C90.1191 33.8483 90.6627 36.1734 91.3949 38.4494C91.8667 39.4799 92.297 40.5254 92.8066 41.537C92.9915 41.8691 93.1878 42.1975 93.3312 42.5485C93.6332 43.3072 93.871 44.0848 94.1352 44.8548C94.3617 45.6172 94.6372 46.3683 94.7957 47.1421L94.792 47.1647Z" fill="white"/>
<path d="M103.209 52.4566C103.013 52.434 102.813 52.4453 102.617 52.4566C102.602 52.4566 102.586 52.4566 102.571 52.4566C102.469 52.4377 102.371 52.4226 102.269 52.4038C102.186 52.3887 102.103 52.3736 102.02 52.3585C101.903 52.3396 101.79 52.3207 101.673 52.2943C101.56 52.2716 101.447 52.2452 101.333 52.2188C101.307 52.2113 101.28 52.2075 101.254 52.1999C100.178 51.7545 99.0988 51.2563 98.2571 50.441C95.5923 47.8857 94.6222 44.5868 93.7428 41.1331C93.1879 39.1326 92.5991 37.1397 92.199 35.1014C91.5951 32.1422 91.0251 29.149 91.0704 26.1181C91.0704 25.0839 91.1459 24.0497 91.2704 23.023C91.4403 21.4906 91.5347 19.9506 91.7158 18.4219C91.814 17.4028 92.0442 16.4025 92.3575 15.4249C92.6557 14.4625 92.9803 13.5037 93.3691 12.5677C93.973 11.1673 94.6562 9.79717 95.3847 8.45722C95.8376 7.64947 96.3358 6.85683 96.9209 6.12835C97.4682 5.3508 98.2042 4.70914 98.9667 4.14296C99.714 3.65227 100.495 3.21443 101.299 2.82188C102.858 2.06321 104.568 1.61781 106.312 1.70463C107.259 1.70463 108.18 1.97262 109.06 2.301C109.894 2.61051 110.841 2.8936 111.298 3.72021C111.913 4.62232 112.06 5.73957 112.045 6.80776C112.053 7.92879 111.826 9.03472 111.464 10.0954C111.185 10.9295 110.622 11.6316 109.954 12.1977C109.52 12.579 108.977 12.8281 108.403 12.9036C107.607 13.013 106.791 12.7375 106.176 12.2317C105.87 11.9713 105.587 11.6844 105.259 11.4542C105.002 11.2843 104.7 11.1937 104.413 11.088C104.119 11.005 103.836 10.805 103.526 10.8276C103.122 10.9031 102.847 11.2202 102.628 11.541C102.3 12.0468 102.02 12.5865 101.813 13.1527C101.413 14.4172 101.062 15.6967 100.771 16.9876C100.548 18.0709 100.378 19.3542 100.314 20.4111C100.205 22.1662 100.11 23.9251 100.144 25.6878C100.152 26.907 100.171 28.1299 100.258 29.3453C100.401 31.0514 100.673 32.7424 100.854 34.4409C100.911 34.9693 101.005 35.4902 101.095 36.0149C101.228 36.9132 101.379 37.8115 101.688 38.6683C102.032 39.6006 102.371 40.548 102.896 41.3973C103.549 42.3145 104.323 43.1675 105.334 43.696C106.15 44.0772 107.104 44.0093 107.946 43.7564C108.603 43.5148 108.984 42.8656 109.294 42.2805C109.547 41.8163 109.671 41.2727 109.773 40.7707C110.034 39.5704 110.079 38.3211 109.833 37.117C109.792 36.9132 109.75 36.7094 109.69 36.5093C109.671 36.4452 109.63 36.3923 109.577 36.3546C109.339 36.2753 109.086 36.2791 108.829 36.2829C108.697 36.2829 108.565 36.2828 108.437 36.2753C108.052 36.2564 107.667 36.1809 107.278 36.2149C106.848 36.2489 106.421 36.3281 105.991 36.3055C105.436 36.2791 104.817 36.2527 104.364 35.8978C103.904 35.5393 103.843 34.9316 103.874 34.3918C103.934 33.7502 103.911 32.916 104.527 32.5272C104.576 32.5008 104.655 32.4631 104.745 32.4253C105.096 32.0365 105.885 31.8856 106.334 31.8101C107.32 31.6402 108.324 31.6629 109.324 31.678C110.751 31.6931 112.189 31.8025 113.574 32.146C115.178 32.5687 115.763 34.3541 116.046 35.8035C116.295 37.2076 116.22 38.6419 116.163 40.0611C116.129 41.035 116.043 42.0012 115.937 42.9713C115.858 43.964 115.688 44.9453 115.473 45.9154C115.125 47.4252 114.937 49.0973 113.857 50.2976C112.517 51.7319 110.513 52.3283 108.588 52.4226C107.414 52.4755 106.236 52.5698 105.062 52.5736C104.443 52.5585 103.828 52.5132 103.209 52.4604V52.4566Z" fill="white"/>
<path d="M110.011 44.1565C109.298 43.9791 109.418 43.1675 109.539 42.6202C109.637 42.0465 109.645 41.4615 109.63 40.8802C109.641 39.9592 109.498 39.0533 109.32 38.155C109.271 37.9436 109.309 37.6907 109.196 37.5058C108.943 37.268 108.641 37.0717 108.324 36.9321C106.686 36.6716 104.538 37.3548 103.379 35.8224C102.7 34.841 102.722 33.067 103.643 32.2328C104.387 31.4855 105.463 31.4251 106.455 31.4251C106.961 31.3911 107.463 31.4062 107.961 31.5119C108.452 31.5572 108.95 31.5723 109.418 31.7383C109.709 31.8063 110.494 32.3649 110.007 32.6178C109.196 32.8858 108.32 32.9877 107.463 32.9084C107.003 32.8896 106.542 32.9537 106.085 32.9726C104.783 32.9198 104.221 33.4859 104.553 34.7768C104.779 35.2864 105.402 35.3015 105.882 35.3807C107.112 35.6525 108.531 35.1203 109.596 35.9545C110.894 36.7849 110.728 37.5209 111.015 38.8608C111.211 40.2385 111.272 41.6577 111.041 43.0317C111.004 43.6054 110.721 44.3225 110.011 44.1602V44.1565Z" fill="white"/>
<path d="M105.991 46.2626C105.606 45.7833 105.897 45.2662 106.365 44.9869C106.682 44.7679 106.984 44.5377 107.267 44.2772C107.825 43.696 108.369 43.0694 108.735 42.3485C108.92 41.9031 109.018 41.4275 109.094 40.9557C109.195 40.1291 109.154 39.2874 109.01 38.4683C108.946 38.0795 108.927 37.6568 108.678 37.3284C108.407 36.9321 107.95 36.7584 107.572 36.4867C107.459 36.4112 107.308 36.3319 107.236 36.2074C107.172 36.1432 107.157 36.0451 107.199 35.962C107.274 35.811 107.463 35.8601 107.599 35.8299C108.123 35.7431 108.671 35.8224 109.154 36.0337C110.328 36.5622 110.475 37.9474 110.634 39.0684C110.818 40.7405 110.566 42.5334 109.543 43.9111C108.901 44.8661 108.093 45.7153 107.112 46.3344C106.772 46.5759 106.27 46.6023 105.987 46.2589L105.991 46.2626Z" fill="white"/>
<path d="M103.379 34.5013C102.772 34.4032 102.824 33.7351 103.028 33.301C103.232 32.8028 103.447 32.2894 103.817 31.8893C104.244 31.4553 104.863 31.3194 105.436 31.1835C106.108 31.0325 106.799 31.1344 107.478 31.1307C108.188 31.1307 108.905 31.1118 109.611 31.2288C110.615 31.4364 111.634 31.5874 112.638 31.7988C113.197 31.9762 114.627 32.2253 114.631 32.9311C114.631 32.9311 114.631 32.9311 114.631 32.9273V32.9311C114.695 32.9915 114.71 33.0896 114.646 33.1538C114.578 33.2217 114.472 33.2104 114.416 33.1387C114.069 33.1085 113.774 32.9877 113.442 32.9009C112.997 32.7763 112.559 32.6367 112.11 32.5423C111.196 32.3951 110.166 32.2177 109.275 32.1422C108.003 32.0856 106.75 31.878 105.497 32.1271C105.229 32.1875 104.957 32.2517 104.708 32.3687C104.617 32.4215 104.515 32.4706 104.444 32.5499C104.402 32.6216 104.376 32.7046 104.349 32.7839C104.259 33.0783 104.187 33.3765 104.119 33.6747C104.047 34.0899 103.904 34.5655 103.383 34.5126L103.379 34.5013Z" fill="white"/>
<path d="M126.698 9.89152C127.517 9.25363 127.788 8.26849 127.551 7.4079C127.37 6.89834 126.947 6.46427 126.433 6.11702C126.09 5.83016 125.618 5.6754 125.161 5.52065C124.773 5.39609 124.357 5.3055 123.935 5.30173C123.316 5.30928 122.716 5.45648 122.187 5.69805C121.87 5.85281 121.545 6.02643 121.345 6.27932C121.187 6.48315 121.176 6.72472 121.176 6.95496C121.187 7.66834 121.274 8.38172 121.323 9.09133C121.851 9.28383 121.583 10.1331 121.666 10.5219C121.734 10.7672 121.844 11.0126 122.029 11.2202C122.131 11.2843 122.327 11.2919 122.459 11.2956C123.01 11.273 123.572 11.2239 124.093 11.0805C124.38 10.9786 124.644 10.8502 124.931 10.7483C125.218 10.6389 125.512 10.5483 125.796 10.4275C126.12 10.2727 126.422 10.0878 126.701 9.88775L126.698 9.89152ZM139.372 50.0787C139.425 50.4674 139.422 50.8638 139.316 51.2488C139.199 51.6489 138.833 51.9584 138.493 52.2641C138.104 52.6604 137.549 52.9171 137.006 53.1738C136.609 53.3512 136.153 53.4115 135.704 53.4493C135.107 53.5059 134.511 53.5701 133.911 53.5059C133.533 53.4833 133.16 53.4417 132.79 53.3814C132.22 53.2983 131.62 53.2606 131.091 53.0567C130.182 52.6982 130.125 51.5771 130.212 50.8902C130.408 48.9539 130.74 47.0289 130.85 45.085C130.914 43.7564 130.816 42.4277 130.729 41.1029C130.706 40.1668 130.57 39.2345 130.487 38.3022C130.257 35.9582 129.729 33.6747 129.144 31.376C128.962 30.6702 128.823 29.9606 128.638 29.2585C128.272 27.994 127.875 26.7334 127.468 25.4765C126.977 24.2346 126.482 22.9853 125.641 21.8567C125.294 21.3811 125.067 20.8414 124.565 20.445C124.248 20.2337 123.935 19.9808 123.523 19.8902C123.316 19.9128 123.097 20.0034 123.029 20.1619C122.957 20.445 122.98 20.7319 122.972 21.015C122.995 21.098 123.014 21.1811 123.04 21.2641C123.097 21.4679 123.191 21.751 123.236 21.9397C123.682 23.6345 123.837 25.367 124.074 27.0844C124.444 29.6171 124.61 32.1649 124.754 34.7089C124.958 36.347 125.026 37.9889 125.056 39.6346C125.086 41.001 125.263 42.3636 125.358 43.7299C125.437 45.5228 125.72 47.3119 125.743 49.1086C125.72 50.1126 125.758 51.1506 125.339 52.1169C125.195 52.4302 124.931 52.7095 124.591 52.9171C124.357 53.0605 124.067 53.1285 123.795 53.2153C123.055 53.4946 122.24 53.6003 121.432 53.672C120.662 53.7928 119.87 53.9022 119.081 53.8267C118.888 53.8079 118.699 53.7739 118.511 53.7437C117.945 53.6833 117.371 53.5852 116.891 53.3398C116.352 53.0983 116.216 52.634 116.272 52.1848C116.344 51.713 116.412 51.2374 116.544 50.7732C116.544 50.7656 116.548 50.7581 116.552 50.7505C116.605 50.056 116.699 49.3653 116.824 48.6783C116.952 47.7385 116.929 46.7948 116.975 45.8512C117.024 45.1869 117.099 44.5226 117.141 43.8583C117.175 42.9901 117.246 42.1258 117.276 41.2576C117.273 40.8085 117.243 40.3631 117.254 39.9139C117.386 37.7776 117.329 35.6374 117.363 33.4973C117.375 32.112 117.405 30.7268 117.412 29.3415C117.424 27.9638 117.492 26.5824 117.382 25.2047C117.284 24.2913 117.299 23.3778 117.28 22.4644C117.209 20.5998 117.152 18.7314 116.997 16.8668C116.854 15.0098 116.405 13.1791 116.182 11.3296C116.076 10.2878 116.016 9.24608 115.982 8.20432C115.978 7.33241 115.759 6.46805 115.808 5.59614C115.808 5.58482 115.808 5.57349 115.808 5.56217C115.759 5.40741 115.725 5.25266 115.703 5.09413C115.691 4.43737 115.937 3.77683 116.371 3.21065C116.537 2.99928 116.752 2.81433 116.971 2.63316C117.378 2.29723 117.82 1.98394 118.299 1.7084C118.798 1.41776 119.364 1.20639 119.953 1.04786C120.575 0.870461 121.183 0.651539 121.844 0.572275C122.448 0.500559 123.059 0.459041 123.67 0.43262C124.976 0.368453 125.652 0.564728 126.811 0.972374C127.336 1.13845 127.853 1.3234 128.343 1.53855C129.162 1.916 129.914 2.37649 130.623 2.86717C131.506 3.49374 132.397 4.18825 132.782 5.07903C133.235 6.18496 133.299 7.35883 133.22 8.50628C133.19 9.00074 133.077 9.4952 132.888 9.96702C132.567 10.8201 131.956 11.5825 131.238 12.2695C130.842 12.6507 130.37 12.9791 129.891 13.2924C129.453 13.5679 128.955 13.783 128.464 13.9944C127.487 14.4096 126.479 14.8173 125.354 14.9229C126.218 15.1947 127.12 15.4136 127.909 15.8099C128.449 16.0742 128.913 16.4252 129.347 16.78C130.295 17.5387 131.14 18.3691 131.903 19.241C132.665 20.06 133.348 20.9282 133.979 21.8114C134.549 22.589 135.1 23.3778 135.583 24.1931C136.436 25.6689 137.089 27.2089 137.674 28.7565C138.149 30.0096 138.267 31.3194 138.55 32.6027C138.799 34.1352 139.014 35.6752 139.165 37.2152C139.274 39.0798 139.293 40.9481 139.289 42.8165C139.24 44.8434 139.24 46.8666 139.259 48.8935C139.293 49.2898 139.335 49.6823 139.388 50.0787H139.372Z" fill="white"/>
<path d="M124.95 12.4091C124.437 12.3563 123.957 12.1977 123.47 12.0807C123.18 12.0279 122.878 12.0128 122.602 11.9109C122.127 11.7335 121.73 11.4466 121.444 11.1107C120.987 10.5068 120.934 9.78584 120.813 9.1102C120.715 8.45721 120.64 7.80045 120.685 7.14369C120.7 6.8304 120.772 6.52089 120.964 6.24158C121.055 6.07173 121.164 5.90942 121.315 5.76599C121.364 5.70937 121.425 5.64521 121.515 5.62634C121.73 5.61124 121.674 5.83016 121.678 5.93585C121.693 6.17742 121.583 6.41143 121.549 6.64923C121.511 6.92477 121.496 7.2003 121.493 7.47584C121.493 7.92123 121.579 8.36285 121.674 8.80069C121.779 9.36309 121.855 9.94059 122.115 10.4766C122.346 10.8691 122.817 11.239 123.41 11.239C124.04 11.2956 124.637 11.473 125.244 11.6089C125.875 11.7863 125.626 12.5073 124.958 12.4129L124.95 12.4091Z" fill="white"/>
<path d="M152.485 11.9486C152.965 11.6957 152.651 10.0727 152.568 9.60466C152.44 8.67236 152.289 7.74383 151.964 6.85683C151.874 6.59638 151.794 6.33217 151.681 6.07928C151.583 5.90943 151.459 5.75845 151.33 5.61124C151.123 5.78487 151.04 6.06041 150.945 6.30575C150.813 6.70207 150.677 7.09839 150.541 7.49472C150.296 8.24962 150.164 9.03471 150.013 9.81226C149.877 10.6162 149.794 11.4466 149.937 12.2544C150.424 12.1449 150.923 12.0845 151.421 12.0581C151.772 12.043 152.153 12.0921 152.485 11.9524V11.9486ZM165.209 47.0138C165.345 47.7913 165.383 48.5877 165.292 49.3728C165.232 50.2032 165.149 51.0978 164.582 51.7583C164.299 52.0754 163.956 52.332 163.62 52.5925C162.695 53.2379 161.167 53.5323 160.046 53.5059C159.608 53.4946 159.166 53.4531 158.736 53.37C158.343 53.3021 157.932 53.2568 157.569 53.0832C156.279 52.4868 156.022 50.9732 155.867 49.7088C155.456 47.0326 155.505 44.3074 155.595 41.6049C155.629 39.1666 155.286 36.7471 155.067 34.3201C154.859 32.0101 154.705 29.6926 154.516 27.3788C154.376 25.2764 154.221 23.1778 153.878 21.098C153.776 20.1318 153.614 19.1617 153.444 18.2068C153.044 17.9199 152.323 17.8029 151.779 17.7463C151.413 17.784 151.032 17.7387 150.673 17.7802C149.862 17.8218 149.828 18.4559 149.677 19.09C149.518 19.7128 149.417 20.3469 149.322 20.9848C149.16 21.7888 149.073 22.6041 148.994 23.4193C148.82 24.9329 148.643 26.4465 148.477 27.9601C148.435 29.0547 148.352 30.1493 148.273 31.2401C148.156 32.8971 148.126 34.5617 148.103 36.2225C148.08 38.7174 148.058 41.2161 148.111 43.7111C148.145 44.466 148.19 45.2209 148.182 45.9796C148.171 47.9498 148.273 50.0938 147.186 51.83C146.778 52.4226 146.287 53.0832 145.525 53.2002C144.589 53.3021 143.645 53.438 142.702 53.3738C140.792 53.2643 139.984 52.8718 139.931 50.8373C139.905 49.2256 140.029 47.6064 140.301 46.0173C140.475 45.1341 140.633 44.2508 140.792 43.3751C141.09 41.1142 141.566 38.8759 142.015 36.6414C142.585 33.5954 143.072 30.5305 143.513 27.4618C143.709 25.284 143.913 23.1098 144.068 20.9282C144.245 18.9013 144.189 16.8668 144.34 14.8399C144.54 12.7564 144.838 10.6842 145.238 8.62707C145.325 8.12506 145.4 7.61928 145.48 7.11727C145.619 6.24913 145.684 5.35457 146.042 4.53928C147.465 1.57252 149.258 0.927081 152.421 0.791199C153.195 0.749679 154.033 0.723258 154.705 1.16865C155.829 1.9311 156.305 3.30124 156.72 4.53551C156.867 5.02997 156.943 5.54707 157.026 6.05663C157.268 7.6004 157.626 9.12908 157.868 10.6728C158.011 11.7071 158.192 12.7375 158.317 13.7717C158.468 15.357 158.543 16.9498 158.702 18.5351C158.792 19.5807 158.932 20.6224 159.057 21.668C159.343 24.7631 159.555 27.8733 160.178 30.9231C160.706 33.3123 161.227 35.7091 161.933 38.0569C162.386 39.1175 162.805 40.1932 163.295 41.2388C163.473 41.5823 163.665 41.922 163.801 42.2805C164.092 43.0619 164.322 43.8621 164.575 44.6547C164.794 45.4398 165.058 46.2136 165.213 47.0138H165.209Z" fill="white"/>
<path d="M193.714 44.2508C193.986 45.704 194.284 47.2025 194.077 48.6821C193.929 49.5729 193.518 50.4561 192.812 51.0487C192.34 51.4262 191.755 51.6338 191.182 51.7998C189.366 52.3207 187.362 51.2374 186.509 49.6295C185.871 48.5349 185.652 47.278 185.516 46.0362C185.354 44.8472 185.271 43.6507 185.203 42.4542C185.123 41.3784 185.071 40.3027 185.056 39.227C185.003 35.8979 184.961 32.565 184.984 29.2359C185.022 26.673 184.98 24.1063 184.746 21.551C184.674 20.4715 184.538 19.3957 184.41 18.32C184.335 17.7576 184.097 15.157 183.395 15.3193C182.527 15.8024 182.274 18.2785 181.994 19.2447C181.877 19.743 181.764 20.2412 181.658 20.7394C181.443 21.785 181.243 22.8381 180.96 23.8723C180.704 24.9556 180.1 26.1521 178.816 26.1521C176.959 26.0955 175.623 24.4687 175.053 22.8494C174.721 21.9511 174.502 21.015 174.264 20.0902C173.974 19.0258 173.611 17.9803 173.256 16.9347C173.015 16.3044 172.826 15.6137 172.369 15.1003C172.151 15.3608 172.09 15.7118 172.011 16.0326C171.905 16.6139 171.849 17.2065 171.803 17.7953C171.766 18.4295 171.747 19.0636 171.792 19.6939C171.89 20.781 172.079 21.8567 172.177 22.9438C172.679 27.6732 173.543 32.3989 174.581 37.034C174.819 38.1814 175.091 39.3213 175.287 40.4801C175.548 42.1371 175.668 43.813 175.793 45.4851C175.921 47.1534 175.649 48.8255 175.11 50.407C174.864 51.0638 174.623 51.7621 174.109 52.2641C173.483 52.8869 172.879 53.5852 172.045 53.9438C171.275 54.2533 170.388 54.3288 169.569 54.2268C168.346 54.023 167.164 53.3776 166.496 52.3207C166.085 51.5885 165.855 50.7543 165.726 49.9315C165.575 48.3575 165.704 46.7722 165.73 45.1945C165.651 44.4697 165.59 43.745 165.538 43.0203C165.054 36.1809 165.062 29.3189 164.719 22.4719C164.556 18.5087 164.518 14.5342 164.911 10.586C165.104 8.38172 165.489 6.16232 166.462 4.15428C166.817 3.4409 167.225 2.72374 167.836 2.19531C168.98 1.34227 170.467 0.995019 171.883 1.01767C173.234 1.08938 174.374 2.01414 175.129 3.071C175.619 3.76173 175.88 4.57702 176.072 5.38854C176.438 6.77001 176.514 8.20055 176.616 9.61976C176.669 10.5596 176.838 11.4844 177.031 12.4053C177.197 13.1565 177.344 13.9227 177.635 14.6361C177.952 13.6774 178.114 12.6809 178.28 11.6844C178.643 9.55937 179.039 7.43432 179.624 5.35834C180.118 3.50129 180.881 1.50835 182.595 0.436395C183.24 0.0627192 184.301 -0.0580664 185.04 0.0249727C186.305 0.206149 187.203 0.851588 188.007 1.79899C189.128 3.12006 189.721 4.78085 190.042 6.45673C190.329 8.09109 190.551 9.74432 190.683 11.4013C190.94 16.7007 190.442 22.0077 190.842 27.3033C191.125 31.3307 191.593 35.3807 192.54 39.2987C192.94 40.9481 193.386 42.5863 193.718 44.2508H193.714Z" fill="white"/>
</svg>
