<svg width="169" height="56" viewBox="0 0 169 56" fill="none" xmlns="http://www.w3.org/2000/svg">
<path d="M16.2545 10.3397C16.6078 9.5603 16.7117 8.73588 16.3896 7.92186C15.9601 6.93811 15.2915 5.989 14.3043 5.53869C13.5596 5.23733 12.7975 4.98792 12.0112 4.83897C11.7237 4.78009 11.4396 4.71774 11.1487 4.66924C10.4559 4.59304 9.75272 4.64153 9.05993 4.71427C8.87981 4.74198 8.69622 4.76623 8.52649 4.83551C8.30826 4.9325 8.11082 5.06067 7.9203 5.20269C7.6709 5.37588 7.54274 5.65992 7.46307 5.94743C7.39725 6.22454 7.33837 6.50512 7.33144 6.78916C7.34529 7.29143 7.37647 7.7937 7.41111 8.29597C7.44921 9.18966 7.55659 10.073 7.6709 10.9597C7.74018 11.0948 7.68822 11.2542 7.72286 11.3962C7.80253 12.1167 7.86835 12.8372 7.89606 13.5577C8.22167 14.0911 8.65812 14.1292 9.21927 14.0495C9.67305 13.9872 10.1164 13.8798 10.5633 13.7863C11.5228 13.5958 12.4719 13.3498 13.3794 12.9757C13.9129 12.8095 14.4048 12.5393 14.8481 12.1929C15.4509 11.6975 15.9601 11.0636 16.258 10.3293L16.2545 10.3397ZM22.7771 8.82248C22.8186 9.349 22.874 9.87898 22.8533 10.409C22.777 11.7633 22.3822 13.1108 21.7206 14.2885C21.1559 15.2099 20.3281 15.9304 19.5002 16.599C19.088 16.9107 18.6585 17.2017 18.1978 17.4372C17.5223 17.7663 16.7914 17.9464 16.0882 18.2028C14.3563 18.8505 12.555 19.3216 10.7157 19.5191C10.4109 19.5641 10.1026 19.6264 9.83239 19.7789C9.75618 19.8274 9.67305 19.8758 9.62455 19.9555C9.58991 20.0248 9.57952 20.1045 9.57606 20.1841C9.57606 20.2188 9.57606 20.2499 9.58645 20.2846L9.62109 20.392C9.67651 20.5271 9.72847 20.6622 9.75618 20.8076C9.79428 21.0328 9.80814 21.2614 9.80814 21.4866C9.85664 21.8641 9.87742 22.2452 9.92245 22.6227C9.99519 23.3328 10.0575 24.0464 10.1719 24.753C10.3416 26.0312 10.5217 27.3094 10.7815 28.5737C10.882 29.0795 10.9616 29.5887 11.0378 30.0944C11.2041 31.1266 11.4189 32.1485 11.5643 33.1842C12.1463 36.7624 12.219 40.3926 12.4615 44.002C12.5239 45.0031 12.6763 45.9938 12.704 46.9983C12.7836 48.6783 12.6243 50.393 12.1151 51.9968C11.9246 52.551 11.6544 53.0879 11.2561 53.5209C10.9963 53.798 10.688 54.0197 10.3624 54.2067C9.72154 54.6016 8.98719 54.8164 8.23898 54.8372C6.7876 54.8614 5.30505 54.9653 3.86406 54.9099C3.38604 54.8891 2.89762 54.806 2.49581 54.5254C1.85845 54.0959 1.4982 53.3546 1.39775 52.596C1.21416 51.3906 1.3354 50.1678 1.34925 48.9589C1.35618 46.9879 1.70604 45.0481 1.89309 43.0945C1.99008 42.0241 2.01779 40.9503 2.04896 39.8765C2.08707 38.678 2.1321 37.476 2.06975 36.2775C1.93465 33.7627 1.76146 31.2514 1.661 28.7365C1.59519 25.6606 1.40814 22.5916 1.26958 19.5225C1.14142 16.5505 1.02364 13.5715 0.753457 10.6064C0.583725 9.2139 0.45556 7.81795 0.365498 6.41852C0.351643 6.22801 0.337787 6.03403 0.320468 5.84351C0.303148 5.79848 0.285828 5.75345 0.268509 5.70495C0.150736 5.36895 0.0745293 5.01217 0.0294984 4.65885C-0.0120687 4.37827 -0.0155326 4.0873 0.0572097 3.81365C0.230406 3.13819 0.611437 2.51469 1.12756 2.06091C1.5363 1.71452 2.02472 1.4859 2.50274 1.25728C3.69779 0.703057 4.98983 0.401695 6.2888 0.259675C7.0474 0.166149 7.79907 0.024129 8.56459 0.0033455C8.82785 -0.00358233 9.09111 -0.000119421 9.35437 0.0172002C10.4247 0.0968703 11.4951 0.200788 12.5412 0.439799C13.0504 0.554108 13.5561 0.675345 14.0688 0.772334C15.0941 0.96285 16.1125 1.21225 17.1032 1.54825C18.1215 1.90504 19.0741 2.45233 19.8985 3.15897C20.3177 3.50537 20.6918 3.90718 21.0278 4.33671C21.5404 4.97753 22.0011 5.67032 22.306 6.43931C22.5969 7.20137 22.687 8.02232 22.7632 8.82941L22.7771 8.82248Z" fill="white"/>
<path d="M11.9835 51.1793C11.8657 51.155 11.7653 51.0303 11.7826 50.9022C11.8242 50.5454 11.9281 50.199 12.0077 49.8526C12.0597 49.5928 12.0943 49.3295 12.1394 49.0663C12.1879 48.6714 12.1983 48.2731 12.2052 47.8782C12.2156 46.6069 12.0458 45.3426 11.9281 44.0782C11.8484 43.1672 11.7964 42.2528 11.7376 41.3383C11.6406 40.1121 11.6302 38.8824 11.5401 37.6596C11.4847 37.0603 11.4189 36.4611 11.3704 35.8618C11.211 34.4278 10.9997 33.0006 10.7919 31.5735C10.643 30.3888 10.4871 29.2042 10.2966 28.023C10.203 27.4168 10.1442 26.8071 10.0714 26.1975C9.96057 25.3973 9.81855 24.6041 9.7181 23.8039C9.64535 23.3432 9.55876 22.886 9.51026 22.4218C9.4583 21.9819 9.40634 21.542 9.39595 21.0986C9.37863 20.6622 9.36478 20.2188 9.44791 19.7858C9.5068 19.4567 9.71117 19.1657 10.0195 19.041C10.2169 18.9441 10.4074 18.8297 10.6083 18.7397C10.733 18.6843 10.8647 18.6496 10.9859 18.5873C11.0101 18.5284 11.0863 18.5111 11.1348 18.5457C11.1868 18.5803 11.1937 18.6531 11.1522 18.7016C11.0275 18.8886 10.7781 18.9163 10.6049 19.041C10.2689 19.2558 9.92593 19.4394 9.96057 19.9001C9.97789 20.7314 10.0021 21.6147 10.1268 22.4288C10.203 23.0384 10.3277 23.6411 10.404 24.2542C10.494 24.9089 10.6256 25.5601 10.7157 26.2148C10.83 27.1674 10.9928 28.113 11.1279 29.0622C11.2873 30.3542 11.4916 31.6393 11.6752 32.9244C11.7861 33.9809 11.9523 35.034 12.0389 36.0939C12.0666 36.7278 12.1602 37.3548 12.2121 37.9852C12.271 39.208 12.3611 40.4307 12.4338 41.6535C12.4858 42.897 12.5239 44.1371 12.6105 45.3772C12.6659 46.3367 12.7941 47.2962 12.7629 48.2592C12.7317 48.81 12.6451 49.3538 12.5412 49.8942C12.465 50.2683 12.3888 50.6458 12.2745 51.013C12.2364 51.1377 12.1013 51.207 11.98 51.1793H11.9835Z" fill="white"/>
<path d="M31.4648 30.95C31.4787 29.5055 31.5895 28.0645 31.496 26.6201C31.4129 25.7195 31.3921 24.8431 31.2501 23.9598C31.1392 23.222 31.0111 22.4876 30.8171 21.7671C30.7582 21.5177 30.6993 21.2718 30.6196 21.0259C30.4707 20.6656 30.301 20.3123 30.152 19.952C30.0689 19.7615 29.9788 19.5745 29.8888 19.384C29.7294 19.0306 29.5839 18.6635 29.2756 18.4106C28.9881 18.1266 28.6279 18.3898 28.4478 18.66C28.1395 19.138 27.8728 19.6438 27.6753 20.1737C27.4952 20.6933 27.3774 21.2268 27.225 21.7533C27.0691 22.2659 26.9133 22.7786 26.7747 23.2982C26.5045 24.9332 26.2586 26.5993 26.1547 28.2481C26.0438 30.5274 25.9191 32.8274 26.217 35.0998C26.3625 36.2394 26.5876 37.4067 27.225 38.3905C27.5021 38.7784 27.8208 39.1352 28.1014 39.447C28.2018 39.5578 28.3023 39.6687 28.4062 39.7761C28.621 39.9077 28.8773 39.97 29.1302 39.9458C29.4523 39.9181 29.7779 39.9146 30.0966 39.8557C31.0422 38.7542 31.16 37.2959 31.2813 35.9242C31.3921 34.2684 31.4337 32.6092 31.4683 30.95H31.4648ZM37.6168 34.5629C37.6272 36.4438 37.5891 38.3247 37.5128 40.2021C37.4609 41.6604 37.4332 43.1222 37.3223 44.5805C37.2496 45.4984 37.0729 46.4095 36.8789 47.3101C36.6919 48.2453 36.4286 49.1633 36.0857 50.0535C35.3687 51.9829 34.7556 53.0498 32.5733 53.5936C32.22 53.6837 31.8597 53.7287 31.5029 53.798C30.6855 53.9677 29.868 54.2137 29.0228 54.1444C28.375 54.1305 27.7342 54.0405 27.1072 53.8915C26.5807 53.7599 26.0473 53.6283 25.5589 53.3858C24.6513 52.932 23.8546 52.2427 23.2969 51.4148C22.6769 50.4103 22.282 49.2914 21.8559 48.2003C21.4507 47.0468 21.0592 45.8829 20.8133 44.6844C20.5258 43.2919 20.2902 41.8925 20.1274 40.4827C19.7533 38.1792 19.5836 35.8445 19.6113 33.5133C19.6044 32.0619 19.6217 30.6105 19.7256 29.1626C19.9196 26.2737 20.2002 23.3779 20.9311 20.5617C20.9311 20.5617 20.9311 20.5582 20.9311 20.5548C21.1805 19.3736 21.4922 18.2062 21.7832 17.0354C21.9114 16.5124 22.0603 15.9928 22.1746 15.4663C22.2785 14.9502 22.379 14.4306 22.5522 13.9283C22.805 13.142 23.1203 12.3799 23.4597 11.6248C23.7923 10.8766 24.1664 10.1422 24.6894 9.50141C25.2436 8.84673 25.9191 8.27864 26.6535 7.82833C27.4328 7.39881 28.2884 7.09745 29.1821 7.00046C29.7467 6.9104 30.3252 6.93811 30.8829 7.05242C31.212 7.11823 31.6554 7.21522 31.9048 7.46809C32.2131 7.61011 32.5006 7.80755 32.7604 8.01885C33.1345 8.31328 33.4601 8.66314 33.7372 9.04763C34.1632 9.61918 34.4923 10.2461 34.7175 10.9181C34.9876 11.6005 35.1089 12.321 35.3063 13.0242C35.438 13.478 35.5627 13.9283 35.6735 14.3855C35.7947 14.867 35.9472 15.3381 36.0511 15.8231C36.2 16.547 36.3143 17.2779 36.4667 18.0019C36.6815 19.2038 36.8062 20.4231 36.9655 21.632C37.0799 22.8652 37.1803 24.1018 37.2323 25.3384C37.2669 26.5162 37.3258 27.6904 37.3881 28.8647C37.4193 29.3358 37.4886 29.8034 37.5163 30.278C37.5406 30.7629 37.5475 31.2479 37.5717 31.7328C37.6479 32.675 37.6098 33.6172 37.6098 34.5594L37.6168 34.5629Z" fill="white"/>
<path d="M47.5095 12.3245C48.3097 11.7079 48.5799 10.7519 48.3443 9.92054C48.1677 9.4252 47.752 9.00607 47.2497 8.67007C46.9137 8.39296 46.4496 8.24401 46.0062 8.09159C45.6252 7.97036 45.2199 7.88376 44.8042 7.8803C44.198 7.88722 43.6126 8.03271 43.0896 8.26479C42.7778 8.4172 42.4626 8.58347 42.2652 8.82941C42.1093 9.02685 42.0989 9.25893 42.0989 9.48063C42.1127 10.1734 42.1924 10.8627 42.2409 11.552C42.7605 11.7356 42.4972 12.5635 42.5769 12.9376C42.6427 13.1732 42.7501 13.4122 42.9337 13.6131C43.0342 13.6754 43.2281 13.6824 43.3563 13.6893C43.8932 13.6685 44.4474 13.62 44.9566 13.4815C45.2372 13.3845 45.497 13.2563 45.7776 13.1593C46.0581 13.0519 46.3491 12.9653 46.6228 12.851C46.9414 12.6986 47.2359 12.5219 47.5095 12.328V12.3245ZM59.9208 51.2486C59.9727 51.6227 59.9692 52.0106 59.8653 52.3813C59.751 52.7692 59.3908 53.0706 59.0582 53.365C58.6772 53.746 58.1334 53.9989 57.6034 54.2448C57.2154 54.418 56.7686 54.4735 56.3252 54.5116C55.7398 54.567 55.1544 54.6293 54.569 54.567C54.1984 54.5462 53.8312 54.5046 53.4709 54.4458C52.9132 54.3661 52.3244 54.328 51.8083 54.134C50.918 53.7876 50.8626 52.6999 50.9457 52.0349C51.1363 50.1609 51.4653 48.2938 51.5727 46.4129C51.6385 45.1278 51.5381 43.8392 51.4549 42.5576C51.4307 41.65 51.3025 40.7494 51.2159 39.8453C50.9908 37.5765 50.4746 35.363 49.8996 33.1357C49.723 32.4533 49.5844 31.764 49.4043 31.0851C49.0475 29.8589 48.6596 28.6396 48.2577 27.4237C47.7797 26.2217 47.2913 25.0128 46.4669 23.9148C46.1274 23.4541 45.9057 22.931 45.4139 22.5465C45.1021 22.3422 44.7973 22.0962 44.392 22.0062C44.1876 22.0269 43.9729 22.1135 43.9071 22.2694C43.8378 22.5431 43.8586 22.8202 43.8516 23.0973C43.8724 23.177 43.8932 23.2601 43.9174 23.3398C43.9729 23.5372 44.0664 23.8143 44.1114 23.9944C44.5479 25.6363 44.7003 27.3129 44.9324 28.979C45.2961 31.4315 45.4554 33.8978 45.6009 36.3641C45.8018 37.9506 45.8676 39.5405 45.8953 41.1339C45.9231 42.4571 46.0997 43.7769 46.1898 45.1001C46.2694 46.839 46.5431 48.5675 46.5673 50.3098C46.5466 51.2832 46.5847 52.2877 46.1725 53.223C46.0304 53.5278 45.7706 53.798 45.4416 53.9989C45.213 54.1375 44.9289 54.2033 44.6622 54.2864C43.9382 54.5566 43.1415 54.657 42.3483 54.7298C41.5932 54.8476 40.8172 54.9515 40.0448 54.8822C39.8543 54.8649 39.6707 54.8302 39.4836 54.8025C38.9294 54.7436 38.3682 54.6501 37.8972 54.4111C37.3672 54.179 37.2355 53.7253 37.291 53.2923C37.3602 52.835 37.4295 52.3743 37.5577 51.924C37.5577 51.9171 37.5612 51.9067 37.5646 51.8998C37.6166 51.2278 37.7101 50.5592 37.8279 49.8907C37.9526 48.9797 37.9318 48.0652 37.9734 47.1542C38.0219 46.5099 38.0946 45.8656 38.1362 45.2248C38.1708 44.3831 38.2401 43.5448 38.2713 42.7065C38.2678 42.2735 38.2366 41.8406 38.247 41.4076C38.3786 39.3361 38.3232 37.2647 38.3544 35.1933C38.3648 33.8528 38.396 32.5088 38.4029 31.1682C38.4133 29.8311 38.4826 28.4975 38.3752 27.1605C38.2817 26.2772 38.2955 25.3904 38.2747 24.5036C38.2054 22.6955 38.15 20.8873 37.9976 19.0826C37.8591 17.2848 37.4191 15.5113 37.1974 13.7205C37.0935 12.7125 37.0346 11.701 37 10.693C36.9965 9.8478 36.7818 9.013 36.8303 8.1678C36.8303 8.15741 36.8303 8.14702 36.8303 8.13663C36.7852 7.98768 36.7471 7.83527 36.7298 7.68285C36.7194 7.04549 36.9584 6.40467 37.3845 5.85737C37.5473 5.653 37.7551 5.47287 37.9734 5.29968C38.3717 4.97407 38.8047 4.66924 39.2723 4.40252C39.7607 4.12195 40.315 3.91757 40.89 3.7617C41.4996 3.5885 42.0954 3.3772 42.7397 3.301C43.332 3.23172 43.9278 3.19015 44.5271 3.1659C45.8053 3.10355 46.4669 3.29407 47.6031 3.68549C48.1157 3.8483 48.6214 4.02495 49.1064 4.23625C49.91 4.59996 50.6444 5.04681 51.3372 5.52137C52.2031 6.12755 53.0726 6.79955 53.4536 7.66553C53.897 8.73588 53.9628 9.87205 53.8831 10.9874C53.8554 11.4689 53.7411 11.9435 53.5575 12.4042C53.2458 13.2286 52.6431 13.9664 51.9399 14.6349C51.5519 15.0021 51.0912 15.3208 50.6201 15.6256C50.1906 15.8923 49.7057 16.1002 49.2207 16.3045C48.2647 16.7098 47.2775 17.1012 46.1759 17.2052C47.0211 17.4684 47.9079 17.6797 48.6803 18.0642C49.2069 18.3205 49.6641 18.66 50.0901 19.0064C51.0185 19.7408 51.8429 20.5444 52.5946 21.3896C53.3428 22.1828 54.0078 23.0211 54.6279 23.8767C55.1856 24.6318 55.7259 25.3939 56.2005 26.1836C57.0353 27.6108 57.6761 29.1037 58.2477 30.6036C58.7118 31.8194 58.8296 33.0872 59.1033 34.3308C59.3457 35.8168 59.557 37.3063 59.706 38.7992C59.8134 40.6074 59.8307 42.4156 59.8272 44.2237C59.7822 46.1843 59.7787 48.1483 59.796 50.1089C59.8307 50.4934 59.8688 50.8744 59.9208 51.2555V51.2486Z" fill="white"/>
<path d="M45.7949 14.7631C45.2927 14.7111 44.8251 14.5587 44.3436 14.4444C44.0595 14.3925 43.7616 14.3786 43.4949 14.2782C43.0307 14.1084 42.6393 13.8278 42.3587 13.5022C41.9119 12.9168 41.8599 12.2206 41.7422 11.5624C41.6452 10.932 41.5724 10.2912 41.614 9.65729C41.6313 9.35593 41.6971 9.05456 41.8876 8.78438C41.9777 8.62157 42.0851 8.46223 42.2306 8.32714C42.2791 8.27518 42.338 8.20937 42.428 8.19205C42.6393 8.17819 42.5804 8.38949 42.5839 8.49341C42.5978 8.72896 42.4904 8.95411 42.4557 9.18273C42.4176 9.44945 42.4038 9.71617 42.4003 9.9829C42.4003 10.4159 42.4869 10.8419 42.577 11.268C42.6809 11.8118 42.7536 12.3695 43.01 12.8891C43.2351 13.2667 43.6958 13.6269 44.2778 13.6269C44.8943 13.6789 45.4797 13.8556 46.0721 13.9837C46.6886 14.1535 46.4462 14.8532 45.7915 14.7631H45.7949Z" fill="white"/>
<path d="M77.7044 8.26825C77.7702 8.96103 77.8083 9.65728 77.7217 10.3466C77.6802 10.7553 77.5901 11.1918 77.2957 11.4932C77.0047 11.798 76.5717 11.8742 76.1734 11.9054C75.6849 11.94 75.1931 11.9608 74.7012 11.9573C73.8733 11.9192 73.0454 11.9365 72.221 11.9781C71.6876 12.0197 71.1541 12.0924 70.6207 12.1444C70.4094 12.1721 70.1739 12.1513 69.9833 12.2656C69.7097 12.5393 69.675 12.9584 69.6369 13.329C69.6092 13.8071 69.6231 14.2885 69.6543 14.7666C69.7166 16.2457 69.7166 17.7282 69.7478 19.2108C69.7443 19.9971 69.8101 20.7799 69.8863 21.5628C69.9556 22.4045 70.0145 23.2497 70.0769 24.0914C70.2016 25.5359 70.2501 26.9838 70.3332 28.4317C70.4891 30.472 70.6449 32.5191 70.9602 34.5421C71.3135 36.326 71.5075 38.1307 71.5767 39.9492C71.6356 40.8672 71.7291 41.7851 71.8157 42.6996C71.8989 43.666 71.9231 44.6359 71.982 45.6024C72.0929 47.1681 72.2903 48.7199 72.3042 50.289C72.318 50.7878 72.3249 51.2866 72.3215 51.7855C72.3146 52.1734 72.2834 52.5683 72.1483 52.9355C71.9093 53.5936 71.2061 53.6802 70.6034 53.7149C70.2431 53.753 69.8829 53.7807 69.5226 53.8292C68.8783 53.9088 68.2444 54.0543 67.6071 54.1929C67.0286 54.321 66.4328 54.3453 65.8474 54.2379C65.0957 54.1409 64.6454 54.0924 64.403 53.2507C64.1882 52.693 64.1432 52.0834 64.1951 51.4876C64.1951 51.4425 64.2021 51.3975 64.209 51.3525C64.2021 51.2312 64.1986 51.1065 64.1882 50.9853C64.0947 49.4993 64.0704 48.0132 64.0774 46.5238C64.0774 45.0308 63.9596 43.5413 63.9665 42.0484C63.9492 40.5901 63.97 39.1318 63.9319 37.6769C63.8106 33.8043 63.537 29.9143 63.291 26.0693C63.1767 24.1088 63.1421 22.1447 63.0416 20.1841C62.9793 19.3944 62.8788 18.608 62.8996 17.8148C62.91 17.0631 62.955 16.3115 62.91 15.5598C62.8234 14.5934 62.716 13.6235 62.5151 12.6744C62.4216 12.2448 62.4355 11.507 61.857 11.507C61.4552 11.4897 61.0534 11.4966 60.6515 11.4689C59.3699 11.3927 58.0813 11.4377 56.7997 11.3304C55.9129 11.2438 54.555 11.1918 54.4511 10.0141C54.3853 8.76359 54.4511 7.50619 54.4511 6.25225C54.4615 5.61835 54.4754 4.91518 54.8876 4.40598C55.227 3.97646 55.7432 3.83444 56.2628 3.87254C56.6126 3.88293 56.9659 3.86215 57.3158 3.83097C57.7765 3.81019 58.2303 3.91757 58.6875 3.94874C59.02 3.9626 59.3491 3.97646 59.6816 3.99724C60.0038 3.99724 60.3294 4.00763 60.6515 4.03881C62.4666 4.08384 64.2852 3.94875 66.1003 3.91757C66.4363 3.91064 66.7757 3.91411 67.1117 3.89332C67.6175 3.8379 68.1197 3.77901 68.6289 3.7894C69.1104 3.80326 69.5884 3.81365 70.0699 3.82058C70.7489 3.85176 71.4278 3.88293 72.1102 3.87254C72.2834 3.87254 72.4566 3.87254 72.6298 3.86561C72.7372 3.86215 72.848 3.85868 72.9519 3.88639C73.0939 3.85175 73.2325 3.82058 73.378 3.7998C73.953 3.72013 74.5315 3.80672 75.103 3.86215C75.4979 3.90371 75.8962 3.94182 76.2877 4.01802C76.686 4.10116 77.0463 4.35056 77.2749 4.69695C77.9677 5.75345 77.6143 7.08359 77.694 8.27518L77.7044 8.26825Z" fill="white"/>
<path d="M98.7545 3.67856C99.035 4.76969 99.132 5.96475 98.8688 7.06974C98.4566 8.69431 97.4624 10.2912 95.9972 10.9597C95.3183 11.2749 94.577 11.2611 93.853 11.2957C93.1083 11.3269 92.3566 11.3373 91.6119 11.2611C90.8879 11.1502 90.1535 11.1398 89.4227 11.0913C88.4839 11.0255 87.5487 10.8939 86.61 10.9181C86.0557 10.9285 85.3595 10.9355 84.9542 11.3996C84.6425 12.2483 84.7845 13.1732 84.8503 14.0565C84.9473 14.8636 84.8849 15.7226 85.1655 16.4881C85.401 16.9142 85.9761 16.6544 86.3502 16.6648C87.1295 16.547 87.8812 16.2734 88.6537 16.1106C89.6374 15.875 90.642 15.7642 91.6361 15.6014C93.2711 15.2515 95.2594 15.5044 95.7928 17.5204C96.011 18.2062 96.011 18.7778 95.9591 19.4394C95.9314 20.146 95.8309 20.8769 95.3771 21.4173C94.6878 22.259 93.6071 22.5465 92.6268 22.7544C91.1234 23.0349 89.5855 22.8964 88.0787 23.1908C86.8975 23.2047 85.498 23.4368 84.8538 24.656C84.5974 25.4008 84.8953 26.2113 84.9646 26.9699C85.0408 27.4895 85.0928 28.0091 85.162 28.5287C85.4634 31.1751 85.9484 33.7869 86.2982 36.4264C86.7866 39.5474 87.0291 42.7065 87.4933 45.831C87.708 46.936 87.8119 48.0618 87.8189 49.191C87.8189 50.0154 87.8293 50.8744 87.5487 51.6504C86.5164 54.3799 83.4093 54.8649 81.0019 54.7055C76.0312 54.6016 76.1524 50.1955 76.7274 46.0284C77.008 43.8704 77.2435 41.702 77.5137 39.5405C77.8116 37.3617 78.0887 35.1794 78.1199 32.9729C78.2342 27.7493 78.5148 22.5257 78.3139 17.2987C78.2515 15.113 78.3866 12.9307 78.3312 10.745C78.3208 9.66075 78.1961 8.57308 78.3 7.49233C78.4316 6.26611 78.927 4.98446 80.0077 4.42677C81.6046 3.57464 83.4058 3.41877 85.1135 2.96499C88.4458 2.00895 91.8751 1.24689 95.339 1.524C96.8909 1.53786 98.2799 1.81151 98.7441 3.6647L98.7545 3.67856Z" fill="white"/>
<path d="M108.627 31.6636C108.745 30.0009 108.706 28.3382 108.627 26.672C108.578 24.9435 108.46 23.2151 108.235 21.497C108.069 20.3642 108.031 19.2038 107.622 18.1127C107.491 17.7455 107.286 17.4095 107.002 17.122C106.867 16.9869 106.722 16.8484 106.524 16.7929C105.378 16.8241 104.484 18.9995 104.103 19.8585C103.767 20.7799 103.604 21.7429 103.407 22.6955C103.303 23.1804 103.223 23.6758 103.084 24.1538C103.026 24.417 103.046 24.6941 103.019 24.9609C102.963 25.9308 102.832 26.9422 102.759 27.9052C102.648 29.4293 102.631 30.9604 102.71 32.488C102.845 34.0052 103.171 35.5154 103.701 36.9564C104.11 38.0164 104.931 40.0151 106.316 40.1398C107.058 40.0843 107.636 37.7358 107.882 37.1158C108.114 36.3676 108.367 35.6193 108.478 34.8434C108.634 33.7904 108.596 32.7235 108.623 31.6601L108.627 31.6636ZM114.713 18.4591C114.741 19.4983 114.682 20.5409 114.647 21.5801C114.599 23.1977 114.557 24.8119 114.467 26.4296C114.055 32.2212 113.826 38.0129 112.849 43.7526C112.666 44.726 112.489 45.5296 112.243 46.4545C111.949 47.4867 111.54 48.4878 111.166 49.4958C110.754 50.4137 110.283 51.3247 109.628 52.1145C108.506 53.4689 106.715 54.3626 104.851 53.9331C103.663 53.9435 102.406 53.5451 101.682 52.6376C100.029 50.7255 98.8932 48.4532 98.1831 46.1046C97.6323 44.0956 97.4002 42.0311 97.1231 39.977C96.8668 37.9159 96.5931 35.8549 96.4719 33.7835C96.3784 31.6635 96.4649 29.5402 96.5412 27.4203C96.7524 24.2958 96.6278 21.1575 96.988 18.0434C97.2028 15.9478 97.466 13.8348 98.1831 11.8257C98.4913 10.8315 98.9694 9.89282 99.4197 8.95064C99.967 7.80062 100.739 6.76144 101.56 5.76383C102.27 4.86322 103.102 4.01455 104.193 3.50536C105.443 2.90956 106.954 3.03773 108.239 3.46725C108.526 3.55732 108.814 3.65084 109.101 3.74437C109.787 3.96952 110.38 4.37134 110.916 4.81818C111.866 5.52136 112.368 6.32845 112.742 7.38148C113.154 8.36524 113.556 9.35592 113.767 10.3986C113.951 11.1953 114.169 11.985 114.242 12.7991C114.391 14.6869 114.685 16.5643 114.706 18.4591H114.713Z" fill="white"/>
<path d="M137.519 44.5355C137.883 45.5435 137.935 46.6277 137.925 47.6876C137.935 48.7441 137.873 49.8006 137.641 50.8329C137.388 52.0418 136.861 52.8904 135.722 53.5036C134.253 54.328 132.535 54.5635 130.879 54.7817C130.062 54.9272 129.234 54.9896 128.406 55.0693C127.602 55.1732 126.795 55.2286 125.985 55.2043C124.897 55.1974 123.809 55.194 122.722 55.194C121.603 55.2113 120.47 55.187 119.375 54.9342C118.111 54.6501 116.597 54.2414 116.092 52.9528C115.596 51.7889 115.714 50.4726 115.773 49.2499C115.898 47.4763 116.112 45.7063 116.178 43.9293C116.407 40.0913 116.324 36.2463 116.334 32.4014C116.32 29.1938 116.421 25.9827 116.202 22.7821C116.078 21.2025 116.06 19.5052 115.95 17.9568C115.891 17.1047 115.818 16.2491 115.804 15.3935C115.783 14.0772 115.853 12.761 115.776 11.4481C115.742 10.8108 115.666 10.1769 115.551 9.5499C115.489 9.16541 115.465 8.77745 115.447 8.38949C115.336 7.87683 115.194 7.37456 115.059 6.86883C114.779 5.94743 114.671 4.98446 114.765 4.02842C114.8 3.47765 115.007 2.92343 115.454 2.55972C116.078 2.06091 116.926 2.02627 117.699 1.97085C117.973 1.95007 118.246 1.92928 118.52 1.93275C119.071 1.94314 119.621 1.99856 120.165 2.09555C120.709 2.19254 121.277 2.26875 121.772 2.51815C122.895 3.06198 123.383 4.20508 123.349 5.36895C123.38 6.90693 122.943 8.40335 122.836 9.93093C122.597 12.0439 122.649 14.1708 122.635 16.2942C122.621 17.413 122.58 18.5318 122.566 19.6507C122.524 21.8087 122.261 23.9563 122.088 26.1074C121.786 30.5135 121.8 34.93 121.793 39.3431C121.8 40.6767 121.776 42.0137 121.856 43.3474C121.96 44.8888 122.41 46.2813 124.273 46.3333C125.548 46.4095 126.816 46.1323 127.994 45.6613C129.282 45.2179 130.54 44.6948 131.78 44.1371C132.272 43.9224 132.757 43.6937 133.241 43.4582C134.004 43.1083 134.79 42.6373 135.663 42.7065C136.771 42.7931 137.242 43.5829 137.523 44.5251L137.519 44.5355Z" fill="white"/>
<path d="M124.357 47.4382C123.705 47.3863 123.085 47.0953 122.604 46.6727C122.102 46.2051 121.901 45.54 121.734 44.9061C121.229 43.3577 121.343 41.7228 121.346 40.1224C121.395 35.2383 122.14 30.3854 122.129 25.4978C122.185 22.6193 122.16 19.616 122.365 16.7687C122.507 14.7943 122.587 12.8129 122.566 10.8315C122.566 10.163 122.531 9.49794 122.517 8.82941C122.49 7.37802 122.514 5.892 122.039 4.49951C121.887 4.13233 121.759 3.73744 121.475 3.44648C121.319 3.31485 121.104 3.28714 120.917 3.21439C120.796 3.1659 120.706 3.06198 120.754 2.93381C120.785 2.84722 120.886 2.81604 120.969 2.78833C121.083 2.75369 121.201 2.73637 121.322 2.72944C122.011 2.66363 122.476 3.21439 122.767 3.74784C123.591 5.21307 123.605 6.9381 123.657 8.56268C123.83 11.7218 123.695 14.8809 123.498 18.0365C123.366 20.7834 123.401 23.5303 123.3 26.2772C123.217 30.7006 122.597 35.0963 122.531 39.5163C122.548 41.0335 122.42 42.568 122.718 44.0678C122.86 44.6429 122.971 45.2594 123.38 45.7201C123.889 46.2467 124.689 46.2432 125.382 46.2051C125.753 46.1808 126.106 46.0527 126.476 46.025C126.736 46.0007 126.996 46.0146 127.259 46.0111C127.599 45.9314 127.969 46.0735 128.063 46.4164C128.15 46.7247 127.959 47.0468 127.644 47.1299C127.325 47.2269 127 47.2685 126.667 47.265C126.334 47.2893 126.019 47.3897 125.694 47.4313C125.254 47.4763 124.807 47.4729 124.367 47.4348L124.357 47.4382Z" fill="white"/>
<path d="M121.9 33.3055C121.301 33.1946 121.641 32.1728 121.54 31.7328C120.858 31.8679 120.847 31.0885 120.913 30.6382C120.941 30.1187 120.972 29.5991 121.003 29.0795C121.059 28.0715 121.114 27.0635 121.156 26.0555C121.183 25.7229 121.062 25.3488 121.232 25.0406C121.125 24.6145 120.948 24.1988 120.785 23.7901C120.612 23.4194 121 22.9934 121.402 23.1111C121.904 23.3155 122.042 24.1191 122.292 24.5625C122.908 24.85 122.746 25.6502 122.794 26.1975C122.926 26.9388 122.957 29.076 122.268 29.509C122.236 30.4997 122.42 31.4938 122.361 32.4914C122.375 32.8205 122.382 33.3574 121.9 33.3124V33.3055Z" fill="white"/>
<path d="M124.405 47.026C124.159 46.7489 124.613 46.6658 124.811 46.5931C125.018 46.4995 125.216 46.3817 125.431 46.3021C126.899 45.6058 128.468 45.1417 129.951 44.4766C130.893 44.0609 131.842 43.6626 132.809 43.3058C133.699 42.9733 134.797 42.5922 135.757 42.6961C136.307 42.762 137.149 43.2227 136.674 43.8323C136.269 44.2584 135.94 43.8392 135.507 43.7838C134.679 43.9258 133.883 44.2099 133.114 44.5286C131.513 45.1382 129.941 45.8102 128.299 46.3159C127.904 46.4683 127.502 46.5965 127.086 46.6831C126.446 46.9117 125.774 47.0572 125.088 47.0538C124.862 47.0468 124.603 47.1473 124.402 47.0226L124.405 47.026Z" fill="white"/>
<path d="M116.864 53.4585C115.659 53.0983 115.569 51.2693 115.524 50.2198C115.503 49.6759 115.444 49.1321 115.458 48.5848C115.458 47.1992 115.437 45.8137 115.482 44.4281C115.52 43.4963 115.569 42.5645 115.586 41.6293C115.607 40.1709 115.721 38.7161 115.773 37.2578C115.787 36.2983 115.745 35.3388 115.783 34.3793C115.822 33.5618 115.808 32.7408 115.818 31.9199C115.801 30.5897 115.818 29.2596 115.894 27.9295C115.939 27.0184 115.919 26.104 115.905 25.193C115.815 22.9414 115.787 20.6864 115.804 18.4349C115.818 16.838 115.676 15.2411 115.638 13.6443C115.538 11.8707 115.281 10.1111 115.215 8.33407C115.16 7.71402 115.042 7.10091 114.945 6.48433C114.758 5.56986 114.55 4.52029 115.153 3.71666C115.184 3.67509 115.215 3.63699 115.271 3.64046C115.357 3.64738 115.395 3.7513 115.413 3.82404C115.444 3.94874 115.444 4.08037 115.451 4.20854C115.472 4.50643 115.517 4.80087 115.572 5.09184C115.673 5.54561 115.846 5.9786 115.974 6.42198C116.088 6.84112 116.182 7.26718 116.272 7.68978C116.386 8.3687 116.438 9.05456 116.514 9.73695C116.591 10.8489 116.823 11.94 116.836 13.0554C116.899 14.7666 116.944 16.4777 116.982 18.1889C116.999 19.481 117.01 20.7695 117.055 22.0616C117.089 23.4714 117.172 24.8812 117.169 26.2945C117.186 27.2263 117.121 28.1546 117.093 29.0864C117.041 30.7664 117.058 32.4499 117.017 34.1299C116.979 35.0824 116.985 36.0316 116.968 36.9841C116.947 37.9298 116.882 38.8754 116.854 39.8211C116.802 41.7401 116.733 43.6591 116.67 45.5816C116.615 47.265 116.611 48.9485 116.663 50.632C116.726 51.1481 116.729 51.7093 117.003 52.163C117.121 52.3778 117.405 52.3882 117.515 52.6099C117.775 53.0255 117.356 53.5936 116.871 53.4481L116.864 53.4585Z" fill="white"/>
<path d="M146.827 47.511C146.855 48.8931 146.896 50.2994 146.609 51.6573C146.373 52.7623 145.705 53.798 144.659 54.2137C144.444 54.3107 144.212 54.3626 143.983 54.4215C143.024 54.6674 142.061 55 141.056 54.8926C139.896 54.8441 138.753 54.5323 138.323 53.2819C138.153 52.7727 138.178 52.2254 138.198 51.6954C138.739 44.7987 138.403 37.8744 138.022 30.9777C137.914 25.2761 137.093 19.6264 136.64 13.9491C136.588 12.8649 136.574 11.7772 136.501 10.693C136.373 9.06149 136.283 7.41267 136.182 5.79502C135.808 5.49712 135.964 4.92557 136.106 4.53762C136.394 3.90025 136.893 3.36681 137.468 2.99617C138.115 2.58396 138.86 2.32417 139.619 2.24796C140.696 2.18561 141.794 2.41077 142.781 2.86454C143.8 3.36681 144.292 4.49258 144.52 5.58025C144.721 6.36656 144.756 7.18058 144.811 7.98421C145.015 10.1076 144.97 12.2414 144.991 14.3717C145.005 18.1716 145.078 21.9715 145.341 25.7645C145.466 27.9433 145.58 30.1221 145.847 32.2905C145.958 33.5133 146.03 34.7361 146.11 35.9623C146.256 37.6042 146.353 39.2495 146.405 40.8984C146.616 43.098 146.765 45.3045 146.824 47.5144L146.827 47.511Z" fill="white"/>
<path d="M138.905 35.7094C138.604 34.9855 138.458 34.2165 138.378 33.4336C138.212 31.9615 138.06 30.4893 137.894 29.0206C137.672 26.8141 137.398 24.6145 137.125 22.4149C136.993 21.3134 136.82 20.2188 136.747 19.1103C136.577 16.1833 136.096 13.3221 135.808 10.4124C135.69 9.31089 135.524 8.20937 135.559 7.09745C135.552 6.03402 135.767 4.94289 136.293 4.02149C136.459 3.73398 136.702 3.50536 136.962 3.31485C137.343 3.02388 137.765 2.72252 138.264 2.76408C138.399 2.77448 138.552 2.78833 138.638 2.90611C138.735 3.04813 138.732 3.27675 138.52 3.27328C138.378 3.3772 138.219 3.44994 138.074 3.54347C137.904 3.66124 137.772 3.82751 137.634 3.97992C137.329 4.27435 137.086 4.62075 136.955 5.03295C136.588 6.42198 136.688 7.89415 136.83 9.31089C137.09 12.5566 137.592 15.7711 137.852 19.0168C138.039 20.8527 138.302 22.6782 138.555 24.5036C138.881 27.0808 139.206 29.6545 139.487 32.2386C139.594 33.2812 139.684 34.3273 139.941 35.3457C140.107 36.0108 139.196 36.3606 138.912 35.7163L138.905 35.7094Z" fill="white"/>
<path d="M160.253 33.638C160.496 31.1509 160.527 28.6465 160.644 26.1525C160.592 25.1064 160.641 24.0603 160.551 23.0176C160.492 21.9888 160.537 20.9531 160.399 19.9313C160.298 19.3216 160.208 18.7016 159.959 18.13C159.792 17.7074 159.539 17.3264 159.345 16.9177C159.203 16.5505 158.93 16.1591 158.556 16.0932C158.199 16.114 157.856 16.2941 157.565 16.4916C157.437 16.5955 157.333 16.7271 157.232 16.8553C156.813 17.4303 156.432 18.0434 156.096 18.6704C155.511 20.3954 155.317 22.2174 155.196 24.0256C155.036 25.8372 154.905 27.6523 154.905 29.4709C154.905 31.5666 155.459 37.6007 157.409 38.6122C157.562 38.678 157.717 38.7403 157.88 38.7507C159.692 38.5741 160.163 35.0928 160.256 33.638H160.253ZM168.002 31.1925C167.936 33.5341 167.763 35.9034 167.42 38.193C167.274 39.2773 167.146 40.3684 166.945 41.4422C166.519 43.5864 166.124 45.7513 165.463 47.8366C165.085 48.8931 164.642 49.9323 164.095 50.916C163.603 51.7924 163.062 52.6584 162.321 53.3512C161.064 54.5912 159.2 55.2043 157.465 54.8199C156.983 54.7159 156.526 54.522 156.093 54.2968C155.494 54.1132 154.874 54.0058 154.305 53.7356C152.456 53.0429 151.139 51.4079 150.294 49.6759C149.837 48.713 149.39 47.7431 149.061 46.7281C148.573 45.2248 148.244 43.673 147.946 42.1211C147.239 38.4286 146.726 34.6806 146.626 30.9188C146.633 26.53 146.733 22.1135 147.565 17.794C147.831 16.1764 148.129 14.5553 148.673 13.0034C148.971 12.1201 149.401 11.2888 149.75 10.4263C149.958 9.92401 150.204 9.44252 150.464 8.96796C150.987 8.01885 151.496 7.05242 152.175 6.20376C153.46 4.62421 155.068 3.22132 156.99 2.49737C158.428 1.99163 160.322 2.19947 161.663 2.89918C162.134 3.14858 162.605 3.4153 163.014 3.76169C163.641 4.2986 164.146 4.96367 164.586 5.65646C165.619 7.31914 166.145 9.24161 166.537 11.1433C166.737 12.2344 166.911 13.3325 167.067 14.4306C167.257 16.0344 167.399 17.6416 167.545 19.2489C167.69 21.8364 167.991 24.4378 168.012 27.0254C168.023 28.4421 168.061 29.7896 168.005 31.1959L168.002 31.1925Z" fill="white"/>
<path d="M157.468 54.8718C156.845 54.8025 156.238 54.6467 155.636 54.4839C155.095 54.3349 154.569 54.1305 154.08 53.8534C153.343 53.4481 152.636 52.9701 152.037 52.3778C151.815 52.1249 151.628 51.8444 151.437 51.5638C151.25 51.2901 151.108 50.9853 151.008 50.6701C150.928 50.1747 151.514 50.5662 151.697 50.6909C152.265 51.1031 152.754 51.6088 153.311 52.0279C153.9 52.454 154.524 52.8316 155.199 53.1018C155.66 53.268 156.131 53.3927 156.602 53.514C157.357 53.6491 158.157 53.6975 158.902 53.4897C159.249 53.3442 159.588 53.2646 159.844 53.6179C160.052 53.9054 159.927 54.2899 159.657 54.4873C159.158 54.9134 158.102 54.9307 157.472 54.8684L157.468 54.8718Z" fill="white"/>
</svg>
