<svg width="92" height="56" viewBox="0 0 92 56" fill="none" xmlns="http://www.w3.org/2000/svg">
<path d="M27.5413 33.4817C27.9527 37.3434 27.5844 40.3931 26.1263 43.9899C25.6568 45.181 25.0774 46.3246 24.4054 47.4037C23.7701 48.4525 22.9624 49.3851 22.0385 50.1583C21.6615 50.4835 21.2631 50.7765 20.8603 51.0629C20.113 51.6013 19.3785 52.1678 18.5493 52.5555C17.6598 52.9604 16.723 53.2641 15.7645 53.4019C15.1012 53.4708 14.4313 53.5139 13.7658 53.4665C13.0809 53.3976 12.3982 53.2877 11.7305 53.1154C10.8367 52.8527 9.94935 52.5555 9.09 52.1872C7.32391 51.47 5.54274 50.6731 4.07387 49.3873C3.33082 48.7411 2.65454 48.0046 2.14625 47.1366C1.62073 46.2858 1.18136 45.3726 0.90999 44.3927C0.61277 43.4063 0.438314 42.3789 0.487851 41.3386C0.520157 40.0421 0.554618 38.9867 1.29551 37.8818C1.69827 37.2982 2.1441 36.7145 2.71915 36.3139C3.33729 35.9198 4.09972 35.9198 4.776 36.1136C4.95261 36.1567 5.12922 36.1911 5.30798 36.217C5.55782 36.2493 5.8292 36.2751 6.03811 36.4388C6.26641 36.596 6.31164 36.9019 6.20395 37.1323C6.20611 37.2099 6.19318 37.2917 6.16734 37.3671C6.1458 37.4748 6.09411 37.5846 6.01873 37.6643C6.0295 37.7375 6.02303 37.8129 5.99719 37.884C5.96704 37.968 5.94119 38.052 5.9175 38.1381C5.73443 38.7929 5.63966 39.4692 5.64397 40.1519C5.65905 40.9962 5.7732 41.8448 6.07472 42.6287C6.27072 43.1069 6.5744 43.5226 6.86516 43.9382C7.31099 44.5198 7.7762 45.1034 8.35557 45.5428C8.71094 45.7948 9.09215 46.0102 9.48199 46.1954C9.93212 46.3849 10.406 46.5034 10.8755 46.624C11.7176 46.848 12.6028 46.8372 13.4643 46.7403C13.9467 46.6671 14.4077 46.4926 14.875 46.3526C15.323 46.2212 15.7731 46.0791 16.1759 45.8228C16.7617 45.4502 17.3066 45.0108 17.8278 44.5434C18.2198 44.1816 18.5989 43.8004 18.9176 43.3653C19.3742 42.7149 19.6995 41.9783 20.0161 41.2439C20.3908 40.3156 20.6514 39.3421 20.8539 38.3578C21.0176 37.5717 21.108 36.7683 21.1123 35.965C21.1296 34.2269 20.8065 32.5103 20.3585 30.8455C20.0075 29.5338 19.6155 28.2308 19.105 26.9795C18.7066 25.9715 18.2047 25.0174 17.69 24.0719C17.4423 23.6261 17.1882 23.1824 16.8953 22.7667C16.1565 21.7695 15.1981 20.9618 14.1255 20.3997C13.2123 19.9367 12.213 19.676 11.2158 19.5059C10.309 19.4111 9.39584 19.3702 8.48479 19.3336C7.78697 19.3056 7.08269 19.3659 6.38918 19.2582C5.74735 19.1656 5.09261 19.017 4.53263 18.6595C3.98772 18.3149 3.60651 17.7441 3.32867 17.1518C2.83761 16.1051 2.72992 14.9098 2.81392 13.751C2.88069 12.784 2.95392 11.8105 3.13699 10.8585C3.44497 9.40903 4.02218 8.03062 4.72216 6.74482C5.19383 5.86178 5.75381 5.03473 6.39779 4.28307C7.73959 2.66774 9.54229 1.26995 11.5711 0.88873C12.521 0.707813 13.4966 0.847808 14.4098 1.15149C15.6331 1.56932 16.7553 2.29083 17.6491 3.26649C18.1143 3.77693 18.6118 4.28091 18.9349 4.91197C19.0878 5.2178 19.1976 5.54517 19.2902 5.87685C19.357 6.13315 19.4345 6.39161 19.441 6.65867C19.441 6.65221 19.441 6.64575 19.4345 6.6436C19.4453 6.6759 19.4432 6.71252 19.4302 6.74267C19.4647 7.02697 19.4755 7.31773 19.4022 7.59125C19.2558 8.12108 18.7518 8.45276 18.25 8.49368C17.7201 8.53891 17.2183 8.26969 16.8737 7.85832C16.43 7.35865 16.0919 6.80728 15.4501 6.5596C14.0458 5.99316 12.9259 6.06854 11.625 6.9042C10.813 7.43187 9.98166 8.01124 9.46045 8.87921C9.04908 9.51457 8.73678 10.2512 8.73032 11.0308C8.76047 11.5843 8.77986 12.1723 9.01893 12.6763C9.34199 13.2664 10.1733 13.3806 10.7527 13.5292C11.4096 13.68 12.0622 13.8436 12.7191 13.9901C13.4105 14.1279 14.1169 14.2206 14.7781 14.4876C15.4522 14.7396 16.0962 15.0691 16.7165 15.4396C17.9463 16.1568 19.1804 16.8848 20.2637 17.8389C21.3536 18.7844 22.2797 19.9259 23.1627 21.0825C23.5956 21.6597 24.0716 22.2046 24.4593 22.8184C25.0839 23.8479 25.5534 24.9743 25.9475 26.1244C26.2771 27.057 26.5958 28.0004 26.7961 28.9782C27.0955 30.4664 27.3798 31.9633 27.5349 33.4795L27.5413 33.4817Z" fill="white"/>
<path d="M11.3492 53.6539C9.69727 53.4536 8.14656 52.7838 6.67984 51.9912C5.66542 51.4355 4.79314 50.6429 3.92517 49.8676C3.29843 49.2796 2.68245 48.6765 2.13754 48.0024C1.64218 47.3218 1.21573 46.5831 0.845284 45.8185C0.158232 44.2871 -0.0872978 42.5555 0.0268519 40.867C0.0462358 40.6042 0.0871579 40.3436 0.136695 40.0851C0.209923 39.7405 0.341302 39.411 0.418838 39.0664C0.51145 38.6313 0.610523 38.192 0.832362 37.8043C1.10804 37.296 1.43542 36.8179 1.85971 36.4367C2.18924 36.0921 2.61783 35.8207 3.09166 35.8164C3.43627 35.8228 3.82395 35.8745 4.0544 36.1718C4.19009 36.3656 4.35808 36.6004 4.30424 36.8566C4.21378 37.1668 3.95102 37.0096 3.78733 36.8739C3.68826 36.8006 3.56119 36.8093 3.44488 36.8114C3.22089 36.8007 2.99259 36.8394 2.80737 36.9816C2.396 37.3283 2.04278 37.7418 1.78433 38.2264C1.57756 38.5495 1.50434 38.9286 1.40526 39.2969C1.30188 39.6565 1.17481 40.0119 1.11235 40.3824C1.02835 40.8993 1.01328 41.4226 1.02835 41.946C1.04989 42.4801 1.08004 43.0143 1.19419 43.5355C1.46342 44.7997 1.97817 45.9994 2.7126 47.0332C3.68826 48.2996 4.90729 49.342 6.12417 50.3371C6.72076 50.8023 7.38628 51.1512 8.0561 51.4764C8.80561 51.8426 9.57881 52.1527 10.3822 52.3616C11.2071 52.5533 12.0556 52.6976 12.9042 52.633C13.2854 52.6093 13.6688 52.5878 14.0457 52.5102C14.2051 52.4693 14.3623 52.4155 14.5239 52.3832C14.9223 52.3229 15.3121 52.2109 15.702 52.1075C16.0164 52.0278 16.3287 51.9201 16.6216 51.7736C17.1019 51.5367 17.5521 52.185 17.1859 52.605C17.0029 52.829 16.7207 52.9044 16.4666 53.0034C16.0789 53.1499 15.6718 53.2253 15.2734 53.3416C15.0666 53.3976 14.8577 53.4213 14.6488 53.4665C14.386 53.544 14.1211 53.6151 13.8476 53.6431C13.0162 53.7422 12.1763 53.781 11.3492 53.6474V53.6539Z" fill="white"/>
<path d="M14.4399 53.992C13.7723 53.9339 13.1003 53.9188 12.4348 53.8456C12.2194 53.8068 12.004 53.7723 11.7865 53.7573C11.36 53.7034 10.9271 53.656 10.5244 53.4967C10.3801 53.4277 10.0893 53.3997 10.1216 53.1736C10.1905 52.9733 10.4705 53.0616 10.6278 53.0573C11.0284 53.081 11.4311 53.1004 11.8317 53.1262C12.0406 53.137 12.2474 53.1521 12.4154 53.1671C12.8311 53.2037 13.2489 53.1757 13.6646 53.1628C14.0415 53.1478 14.4184 53.165 14.7953 53.1585C16.1909 53.0487 17.5349 52.549 18.8121 51.9589C19.5831 51.582 20.3046 51.1038 20.9809 50.5568C21.8338 49.9106 22.6027 49.1482 23.2488 48.2716C23.6365 47.8043 23.9596 47.2809 24.2374 46.7338C24.3279 46.5486 24.414 46.3612 24.5045 46.1738C24.5648 45.9972 24.7414 45.8723 24.918 45.9305C25.0839 45.98 25.1958 46.1782 25.1398 46.3569C25.0666 46.6218 24.9632 46.8781 24.8383 47.1215C24.6036 47.5458 24.3903 47.9873 24.1276 48.3944C23.7076 48.9974 23.251 49.579 22.7578 50.1152C22.411 50.4771 22.0298 50.7937 21.6421 51.1038C20.6988 51.8706 19.6779 52.5425 18.5666 52.997C17.2614 53.557 15.87 54.0739 14.4464 53.9899L14.4399 53.992Z" fill="white"/>
<path d="M22.4391 48.7821C22.3249 48.6033 22.3465 48.3298 22.5123 48.1898C22.6157 48.1015 22.7148 48.0089 22.8117 47.9119C22.9474 47.7633 23.0766 47.6083 23.2144 47.4618C23.3738 47.2917 23.5569 47.143 23.7012 46.9557C23.8519 46.7446 23.9898 46.5228 24.1298 46.3031C24.3021 46.0446 24.4851 45.7926 24.6402 45.5213C24.8685 45.1228 24.987 44.6748 25.1808 44.2613C25.4823 43.6152 25.7214 42.941 25.9497 42.2626C26.1608 41.6337 26.3632 40.9983 26.486 40.3436C26.5657 39.9042 26.6023 39.4606 26.6777 39.0212C26.7574 38.6572 26.794 38.2846 26.8586 37.9163C26.9103 37.6385 27.0115 37.3757 27.0934 37.1065C27.1386 36.973 27.13 36.792 27.2377 36.6994C27.2851 36.6671 27.341 36.6693 27.3884 36.6994C27.4681 36.749 27.4703 36.876 27.481 36.9622C27.494 37.0806 27.5069 37.1991 27.5198 37.3176C27.5737 37.7182 27.5241 38.1231 27.4961 38.5237C27.4854 38.7907 27.466 39.0578 27.438 39.3249C27.4014 40.0787 27.2183 40.9122 27.0158 41.6122C26.8823 42.114 26.7531 42.618 26.6023 43.1155C26.346 43.9555 26.0014 44.761 25.6783 45.5751C25.3617 46.3225 24.9073 46.9966 24.4378 47.647C24.2418 47.8947 24.007 48.1058 23.7895 48.3319C23.6043 48.5301 23.4083 48.7196 23.1714 48.8488C22.9151 48.9996 22.6372 49.0793 22.4369 48.7885L22.4391 48.7821Z" fill="white"/>
<path d="M23.4598 48.5128C23.2358 48.3384 23.3608 48.0929 23.5051 47.9141C23.6257 47.7612 23.7549 47.6147 23.8669 47.4553C24.2567 46.9858 24.5346 46.4366 24.821 45.896C25.0859 45.3963 25.4068 44.9333 25.661 44.4271C25.6911 44.3582 25.7277 44.2915 25.773 44.2419C25.829 44.1558 25.9496 44.2548 25.8807 44.3345C25.885 44.4551 25.8462 44.5758 25.8182 44.6878C25.7794 44.8428 25.7601 45.0044 25.7127 45.1573C25.6524 45.3274 25.5727 45.4868 25.5059 45.6526C25.3767 45.952 25.2539 46.2514 25.1118 46.5443C24.9459 46.8803 24.7262 47.184 24.5152 47.4876C24.3041 47.8064 24.0995 48.1273 23.8604 48.4245C23.7743 48.5645 23.5891 48.6098 23.4598 48.515V48.5128Z" fill="white"/>
<path d="M45.2454 1.19672C46.4773 1.39917 46.8779 2.35329 46.7379 3.40217C46.6669 4.01815 46.4407 4.60613 46.3007 5.21134C46.1069 6.04915 45.982 6.89558 45.8527 7.74202C45.6654 8.7909 45.7494 9.85917 45.6158 10.9124C45.5103 11.6468 45.3703 12.3769 45.2884 13.1135C45.1743 14.1042 44.9891 15.0864 44.8598 16.0771C44.5454 18.6272 44.3257 21.188 44.2309 23.7531C44.2051 26.3743 44.0673 28.9976 44.1556 31.6187C44.1986 34.9333 44.5174 38.2372 44.6768 41.5497C44.7306 42.8398 44.9331 44.1192 45.0946 45.4006C45.3272 46.9234 45.5146 48.4504 45.745 49.9731C45.786 50.2509 45.814 50.5309 45.8463 50.8088C45.9346 51.1921 46.0444 51.5712 46.0918 51.9589C46.1004 52.0407 46.1026 52.1204 46.0983 52.2022C46.1026 52.2475 46.1004 52.2927 46.0896 52.3358C46.0789 52.4715 46.0616 52.6072 46.0487 52.7428C46.025 52.9884 46.0078 53.2404 45.9238 53.4751C45.8269 53.7443 45.6804 53.9985 45.4995 54.2268C45.2368 54.5305 44.8857 54.7695 44.5152 54.9505C44.274 55.0581 44.0091 55.0991 43.7485 55.1421C43.4276 55.1981 43.1002 55.224 42.7728 55.2024C42.2301 55.1788 41.6744 55.1184 41.1898 54.8729C40.6298 54.5929 40.0634 54.3151 39.5659 53.9468C39.0231 53.544 38.5084 53.0745 38.1832 52.5016C37.7416 51.638 37.6038 50.6709 37.6038 49.7233C37.6038 48.5215 37.6986 47.3197 37.8386 46.1265C37.9829 44.9397 38.1982 43.7638 38.4007 42.5835C38.6311 41.1125 38.853 39.6415 39.0662 38.1683C39.3225 36.0684 39.4453 33.9598 39.6176 31.8534C39.6779 30.9898 39.7253 30.1261 39.764 29.2625C39.764 28.6422 39.8437 27.7161 39.4948 27.1905C38.7195 27.0161 37.9161 27.0333 37.1235 27.0527C36.5765 27.1001 36.0229 27.1152 35.4737 27.0872C35.3316 27.0785 35.1894 27.0635 35.0559 27.0225C35.0753 27.2422 35.0968 27.4619 35.1097 27.6816C35.1614 28.6357 35.1399 29.592 35.1291 30.5483C35.1054 31.0264 35.0731 31.5067 35.0839 31.987C35.0774 33.122 35.2153 34.2527 35.226 35.3878C35.2562 36.5616 35.127 37.744 35.0882 38.9049C35.0817 40.1368 35.0968 41.3666 35.0408 42.5986C34.9891 43.5678 34.8642 44.5327 34.7694 45.4997C34.6381 46.7188 34.3882 47.9292 33.9467 49.0857C33.7098 49.7728 33.5418 50.4771 33.2769 51.1555C32.9969 51.8663 32.6501 52.2518 31.8339 52.4887C31.4096 52.6373 30.981 52.7838 30.5308 52.8613C30.0355 52.9281 29.5121 52.9022 29.0081 52.9022C28.6054 52.8936 28.1681 52.8182 27.8903 52.5275C27.2722 51.8921 27.0913 51.0134 27.102 50.182C27.0826 48.6658 27.2291 47.1538 27.4746 45.6569C27.7977 43.6755 28.2005 41.7026 28.4223 39.7082C28.5558 38.6895 28.642 37.6686 28.7152 36.6456C28.797 35.6656 28.8918 34.6878 28.9069 33.7057C28.9392 31.2892 28.8746 28.8597 28.7174 26.4496C28.5472 24.4402 28.2414 22.4415 27.8752 20.4557C27.5522 18.5884 27.2765 16.7146 26.863 14.8624C26.6885 14.0698 26.5011 13.2794 26.2987 12.4932C25.9821 11.2031 25.7559 9.89363 25.3618 8.6186C25.1744 8.01985 25.0366 7.41034 24.9224 6.79436C24.804 6.2753 24.6618 5.76055 24.5649 5.23503C24.5584 5.19411 24.552 5.15534 24.5455 5.11442C24.4723 4.99596 24.412 4.8732 24.3818 4.73536C24.2224 4.14307 24.2332 3.25787 24.8535 2.89389C25.0043 2.80343 25.183 2.74958 25.3489 2.68712C25.7408 2.5342 26.135 2.37913 26.5485 2.28006C26.9663 2.17022 27.4036 2.18099 27.83 2.11207C28.2651 2.03453 28.7152 1.95699 29.1589 2.02376C29.7749 2.1293 30.3801 2.37267 30.8108 2.79697C31.6702 3.60894 32.0514 4.72459 32.3745 5.7907C32.6006 6.58329 32.8311 7.37587 33.055 8.16846C33.7593 10.5527 33.8972 13.0317 34.3172 15.4611C34.4895 16.6543 34.6639 17.8453 34.875 19.0321C34.9159 19.2324 34.9461 19.437 34.9784 19.6394C35.2734 19.5748 35.575 19.5231 35.8657 19.4499C36.5958 19.3099 37.3453 19.409 38.0819 19.3401C38.2499 19.3336 38.4158 19.3336 38.5838 19.325C38.7884 19.3142 38.993 19.2518 39.1976 19.297C39.2794 19.3142 39.3505 19.3508 39.4065 19.4004C39.3634 18.653 39.385 17.9035 39.2665 17.1626C39.1459 16.202 39.1588 15.1445 39.0662 14.199C39.0038 13.484 38.9521 12.7668 38.8831 12.0496C38.7604 10.0315 38.7647 8.00908 38.7755 5.98885C38.8056 5.31687 38.7948 4.64274 38.7927 3.97077C38.7733 3.47971 38.8724 2.9908 39.0985 2.54497C39.1674 2.40498 39.2321 2.26283 39.3376 2.14222C39.7166 1.68562 40.3348 1.4724 40.9292 1.3604C41.683 1.21179 42.4498 1.14503 43.2187 1.14072C43.4836 1.13426 43.7485 1.12779 44.0134 1.12564C44.4226 1.12564 44.8383 1.0998 45.2389 1.19456L45.2454 1.19672Z" fill="white"/>
<path d="M59.7532 34.6749C60.4359 30.8153 60.1495 26.8373 59.4258 23.0036C59.2987 22.3941 59.2061 21.7803 59.0898 21.1686C58.9972 20.7314 58.8809 20.2985 58.7948 19.8591C58.672 19.2517 58.4846 18.6595 58.2348 18.093C58.1055 17.8195 57.8751 17.6149 57.6856 17.3844C57.4529 17.1303 57.1256 16.9903 56.8327 16.8158C56.4321 16.6069 56.0961 16.8158 55.7601 17.042C54.9675 17.5373 54.6638 18.457 54.3752 19.2948C54.1405 19.9797 53.8906 20.6625 53.7183 21.3667C53.5676 22.3704 53.5309 23.3891 53.4749 24.4014C53.4039 26.1395 53.4276 27.8841 53.6429 29.6135C53.8497 31.1944 54.1878 32.7559 54.6014 34.2937C54.9352 35.4265 55.3401 36.5745 56.1155 37.4855C56.3416 37.7418 56.6065 37.9766 56.9339 38.0908C57.2548 38.1791 57.5865 38.2415 57.9203 38.2221C58.3446 38.2028 58.4717 38.1188 58.6591 37.7354C58.8098 37.4188 58.9391 37.0893 59.0704 36.764C59.1997 36.4453 59.3418 36.1308 59.4603 35.8078C59.5787 35.4373 59.6713 35.0583 59.7532 34.677V34.6749ZM68.1701 27.3822C68.2649 28.5216 68.2519 29.6652 68.2326 30.8067C68.1873 32.5017 68.0861 34.1967 68.0043 35.8896C67.8427 38.1618 67.4012 40.4125 66.8455 42.6201C66.2532 44.7825 65.4736 46.919 64.2825 48.8294C63.6816 49.8051 63.0463 50.7678 62.23 51.5798C61.8294 51.9955 61.4288 52.4112 61.0088 52.8053C60.4015 53.3696 59.6649 53.768 58.9563 54.188C58.5277 54.4379 58.0797 54.6575 57.6016 54.7932C56.9339 54.9763 56.2318 55.0431 55.5426 55.0108C54.6487 54.9828 53.7786 54.6941 53.0248 54.2182C52.4756 53.8585 51.9501 53.4514 51.5301 52.9453C50.8473 52.1075 50.3994 51.1103 49.9449 50.1368C48.7539 47.2917 48.0604 44.2613 47.4982 41.2374C47.1558 39.2387 46.9555 37.2163 46.697 35.2047C46.4429 33.0316 46.2878 30.8455 46.0121 28.6745C45.5965 24.7352 45.8269 20.7637 46.2663 16.8374C46.5053 14.6319 47.0524 12.4738 47.2613 10.2641C47.4099 8.12108 47.5542 5.90269 48.5665 3.96215C49.0533 2.98649 49.7985 2.07545 50.843 1.68346C51.3686 1.48747 51.9156 1.33025 52.4799 1.31948C53.5331 1.28502 54.5691 1.49178 55.5662 1.8213C56.6108 2.14437 57.5585 2.71081 58.4588 3.32033C59.6046 4.09138 60.6491 5.0218 61.5128 6.103C61.6808 6.32268 61.838 6.54882 61.9974 6.77497C62.3032 7.20357 62.6306 7.61925 62.8761 8.08662C63.4038 9.05581 63.9487 10.0164 64.3816 11.033C64.8641 12.0474 65.2151 13.1114 65.4994 14.1947C65.8742 15.5171 66.2037 16.8525 66.4816 18.1986C66.6452 19.0278 66.9015 19.8333 67.0781 20.6582C67.2849 21.7738 67.4464 22.8959 67.679 24.0073C67.8901 25.1229 68.0775 26.245 68.1679 27.3779L68.1701 27.3822Z" fill="white"/>
<path d="M56.2598 39.1849C55.9325 38.9781 56.0035 38.4591 56.3697 38.3427C56.6604 38.2372 56.9706 38.1877 57.2764 38.1661C57.4983 38.1597 57.7373 38.1834 57.9398 38.0778C58.6527 37.52 59.1437 36.3462 59.4173 35.4955C59.6154 34.9678 59.6929 34.3927 59.8954 33.878C59.9579 33.7186 60.0332 33.5657 60.1 33.4085C60.1323 33.3331 60.1517 33.2426 60.2206 33.1931C60.2422 33.1802 60.268 33.1802 60.2895 33.1931C60.4597 33.3245 60.3908 33.5786 60.3908 33.7638C60.4058 34.0417 60.408 34.3195 60.3585 34.5952C60.3197 34.8881 60.2508 35.1746 60.1711 35.4588C59.9449 36.428 59.5896 37.3865 59.008 38.2006C58.7776 38.5323 58.5019 38.8618 58.1142 39.0104C57.8342 39.1353 57.5284 39.1289 57.229 39.1504C57.0783 39.1698 56.9275 39.1978 56.7789 39.2301C56.6066 39.2624 56.4106 39.2969 56.2598 39.1849Z" fill="white"/>
<path d="M46.025 27.1367C45.9001 26.385 45.8441 25.6248 45.8075 24.8645C45.7967 24.3433 45.8032 23.822 45.8398 23.3008C45.8527 23.0812 45.8463 22.8593 45.8377 22.6396C45.7364 20.4751 45.7558 18.3041 45.9841 16.1482C46.038 15.6786 46.1112 15.2113 46.193 14.7439C46.2641 14.2744 46.2878 13.7984 46.3459 13.3267C46.529 11.9225 46.7552 10.5204 47.0028 9.12689C47.1299 8.43122 47.2548 7.73555 47.4681 7.05927C47.6619 6.46483 47.8643 5.86824 48.1314 5.29964C48.2843 4.95504 48.4308 4.60828 48.6591 4.3046C48.7862 4.14953 49.1178 3.45386 49.288 3.58309C49.3181 3.60678 49.3268 3.64986 49.3074 3.68216C49.2923 3.7037 49.2772 3.7317 49.2686 3.74893C49.1738 3.93631 49.1157 4.13661 49.0403 4.3326C48.9111 4.65136 48.7754 4.96581 48.6892 5.29749C48.4372 6.04485 48.1853 6.79436 47.9914 7.55895C47.7179 8.64875 47.5736 9.76656 47.3884 10.8736C47.2139 12.056 47.0567 13.2406 46.9576 14.4295C46.8456 15.3685 46.7013 16.3032 46.6432 17.2487C46.5549 18.4398 46.5333 19.633 46.5269 20.8283C46.5182 21.3064 46.4752 21.7824 46.473 22.2606C46.4709 22.5858 46.4795 22.911 46.473 23.2362C46.4364 23.9168 46.4342 24.6017 46.4795 25.2823C46.5204 25.8724 46.5656 26.4647 46.6109 27.0548C46.6324 27.2121 46.5182 27.3693 46.3589 27.3865C46.2016 27.4081 46.0509 27.2939 46.025 27.1345V27.1367Z" fill="white"/>
<path d="M84.0473 8.85121C84.3058 8.28046 84.5642 7.66448 84.3682 7.05927C84.1076 6.27745 83.6963 5.5904 82.9317 5.04981C82.1111 4.55444 81.1161 4.26368 80.0973 4.12584C79.6127 4.06554 79.1238 4.03323 78.6349 4.072C78.2063 4.08492 77.7756 4.11722 77.3728 4.23783C76.9528 4.40798 76.6125 4.69874 76.3304 4.99165C76.1882 5.17472 76.1344 5.3858 76.0913 5.59256C76.0418 5.84239 75.9901 6.09438 75.9772 6.34853C75.9793 6.95804 75.9578 7.56756 75.9987 8.17492C76.0138 8.40537 76.0116 8.63583 76.0073 8.79952C75.9922 9.27765 76.0569 9.80317 76.199 10.2576C76.3756 10.7788 76.451 11.341 76.8688 11.7889C77.0627 11.9979 77.1725 12.0194 77.4999 12.0237C78.4346 12.0172 79.3392 11.8105 80.2029 11.5499C80.7219 11.384 81.2604 11.2354 81.7234 10.9856C82.4492 10.5591 83.2052 10.1262 83.692 9.51887C83.8535 9.30996 83.9483 9.07735 84.0473 8.8469V8.85121ZM90.6616 4.98519C91.7492 6.59406 92.3953 8.31923 91.5274 10.0853C91.2495 10.6431 90.78 11.1557 90.3643 11.649C88.9988 13.2557 86.6383 14.115 84.3295 14.6556C83.1212 14.9033 81.8699 14.9981 80.6487 15.2027C79.9789 15.3168 79.3133 15.446 78.6371 15.543C78.5509 15.5559 78.4648 15.5688 78.3786 15.5817C77.9371 15.9113 77.5623 16.2946 77.2845 16.7189C76.8817 17.3457 76.6513 18.0219 76.4445 18.7004C75.7381 20.6819 75.555 22.6827 75.5701 24.7202C75.5679 25.8961 75.5852 27.0742 75.6864 28.2502C75.9319 31.5799 76.0224 34.9183 76.423 38.2394C76.5781 39.7276 76.6298 41.2202 76.7482 42.7106C76.9808 44.9527 77.4891 47.1732 78.0297 49.3808C78.2128 50.0528 78.4432 50.7183 78.6715 51.3817C78.846 51.9783 79.4857 53.1994 78.6715 53.572C78.6629 53.5763 78.6565 53.5785 78.6478 53.5828C78.4088 53.7745 78.1159 53.9274 77.7971 54.0222C77.5731 54.0954 77.3297 54.1191 77.0971 54.1708C76.8128 54.2246 76.5199 54.2246 76.2313 54.2526C75.6196 54.3259 74.9972 54.3819 74.3769 54.3689C73.1191 54.2892 71.8785 54.0351 70.7586 53.5785C70.218 53.3696 69.7119 53.1111 69.2316 52.8268C68.9774 52.6761 68.7168 52.4952 68.5359 52.2949C68.2301 52.0019 67.9544 51.6746 67.9091 51.2912C67.9091 51.2869 67.9092 51.2826 67.907 51.2783C67.879 51.1986 67.8596 51.1167 67.8445 51.0328C67.7304 50.3026 67.8962 49.5617 67.9738 48.8338C68.1827 47.3498 68.3787 45.8659 68.551 44.3798C69.0399 40.2575 69.1928 36.1158 69.1476 31.9784C69.1605 27.8453 69.0959 23.71 68.9473 19.577C68.8848 17.701 68.9279 15.8186 68.7448 13.947C68.6414 12.448 68.4067 10.9597 68.1633 9.47365C68.1482 9.3875 68.131 9.30134 68.1159 9.21519C68.1116 9.20012 68.1073 9.18289 68.103 9.16781C67.9673 8.59491 67.7175 8.04354 67.5602 7.47495C67.3707 6.88051 67.2501 6.27746 67.1209 5.6744C66.9184 4.92274 66.787 4.11076 67.151 3.37633C67.9092 2.09053 69.7614 1.54563 71.3207 0.992109C72.0939 0.714272 72.9296 0.589352 73.7631 0.475202C74.4458 0.363206 75.1264 0.246904 75.8135 0.149985C77.9242 -0.181696 80.0995 0.083217 82.1606 0.492433C83.5412 0.772423 84.8852 1.1558 86.1645 1.64255C86.8192 1.88808 87.4503 2.17022 88.0253 2.51698C89.1561 3.15449 90.0262 4.02677 90.6659 4.98304L90.6616 4.98519Z" fill="white"/>
<path d="M75.5076 17.1195C75.3374 17.0032 75.331 16.7921 75.4817 16.6629C75.8199 16.3205 76.2614 16.0534 76.7159 15.81C77.5408 15.3642 78.5013 15.0971 79.4641 14.8861C79.6967 14.8322 79.9271 14.7741 80.1576 14.7138C80.6185 14.5996 81.0988 14.535 81.5683 14.4467C82.4664 14.2938 83.371 14.1646 84.2648 13.9966C84.5039 13.9664 85.0036 13.8006 85.1802 13.9556C85.2232 13.9772 85.2211 14.0267 85.1823 14.0482C84.9325 14.3347 84.463 14.451 84.0624 14.5695C83.3322 14.7805 82.5461 14.8107 81.7944 14.955C81.3034 15.0454 80.8037 15.1122 80.3277 15.25C79.7613 15.4073 79.1798 15.5322 78.6112 15.6851C78.1826 15.81 77.7906 15.9996 77.418 16.202C77.1229 16.37 76.8451 16.5531 76.578 16.7469C76.4316 16.8546 76.2873 16.9644 76.1387 17.0721C75.9857 17.2186 75.6907 17.2595 75.5054 17.1217L75.5076 17.1195Z" fill="white"/>
</svg>
