<svg width="413" height="375" viewBox="0 0 413 375" fill="none" xmlns="http://www.w3.org/2000/svg">
<path d="M159.87 59.9C160 61.05 159.51 62.12 158.73 62.88C158.43 63.61 157.77 64.2 156.94 64.29C151.36 64.91 145.87 64.8 140.43 65.38C138.98 81.35 141.64 97.47 139.85 113.4C138.74 119.19 136.39 125.35 131.58 129.03C128.5 131.63 124.65 133.79 120.48 132.92C112.48 132 108.06 124.68 110.49 117.1C110.87 115.4 111.79 113.94 112.67 112.48C114.46 108.45 115.55 104.14 116.45 99.84C119.02 89.47 120.56 78.91 122.08 68.34C119.37 68.53 116.67 68.6 113.98 68.54C107.01 68.23 97.7999 68.51 93.6699 61.82C90.3499 55.37 92.2099 45.9 94.7399 36.44C95.4999 30.62 97.0999 24.87 98.2899 19.14C99.4899 13.81 100.61 5.76 107.09 4.69C116.96 5.24 114.17 19.89 112.58 26.34C111.77 30.79 110.29 35.06 109.22 39.44C108.73 42.15 107.31 46.96 111.22 47.63C115.91 48.04 120.59 48.05 125.26 47.92C125.89 44.42 126.6 40.93 127.4 37.47C128.17 32.79 128.79 28.08 129.56 23.41C129.71 18.1 129.21 12.68 130.45 7.48001C131.99 -0.0899949 142.02 -2.25 144.11 6.25C145.23 9.94 145.05 13.87 144.97 17.68C144.99 23.27 144.77 28.83 144.01 34.39C143.33 38.64 143.24 42.94 142.87 47.22C149.13 46.96 154.84 46.83 158.42 53.65C159.3 55.62 159.68 57.78 159.86 59.92L159.87 59.9Z" fill="#F67570"/>
<path d="M292.11 61.57C292.24 62.73 291.75 63.79 290.97 64.55C290.67 65.29 290.01 65.87 289.18 65.96C283.6 66.58 278.11 66.47 272.67 67.05C271.22 83.02 273.88 99.14 272.09 115.07C270.98 120.86 268.63 127.02 263.82 130.71C260.74 133.31 256.89 135.47 252.72 134.6C244.72 133.68 240.3 126.36 242.73 118.78C243.11 117.08 244.03 115.62 244.91 114.16C246.7 110.13 247.79 105.82 248.69 101.52C251.26 91.15 252.8 80.58 254.32 70.02C251.61 70.21 248.91 70.28 246.22 70.21C239.25 69.9 230.04 70.19 225.91 63.5C222.59 57.05 224.45 47.58 226.98 38.12C227.74 32.3 229.34 26.55 230.53 20.82C231.73 15.49 232.85 7.44 239.33 6.37C249.2 6.92 246.41 21.57 244.82 28.02C244.01 32.47 242.53 36.75 241.46 41.12C240.97 43.83 239.55 48.65 243.46 49.31C248.15 49.72 252.83 49.73 257.5 49.6C258.13 46.1 258.84 42.62 259.64 39.15C260.41 34.47 261.03 29.76 261.8 25.09C261.95 19.78 261.45 14.36 262.69 9.16C264.23 1.59 274.26 -0.58 276.35 7.93C277.47 11.62 277.29 15.55 277.21 19.36C277.23 24.96 277.01 30.52 276.25 36.07C275.57 40.33 275.48 44.62 275.11 48.91C281.37 48.65 287.08 48.52 290.66 55.34C291.54 57.31 291.92 59.47 292.1 61.6L292.11 61.57Z" fill="#F67570"/>
<path d="M195.86 54.88C195.92 51.33 195.64 47.68 195.4 44.17C195.15 39.95 194.8 35.63 192.99 31.74C192.6 31.13 192.57 29.83 191.69 29.83C190.19 30.24 189.54 31.85 188.85 33.1C185.75 39.02 186.63 45.95 185.72 52.39C184.76 62.51 184.49 72.61 186.48 82.52C187.1 84.21 186.85 87.41 189.13 87.63C191.84 85.9 191.71 81.88 192.65 79.07C195.15 71.27 195.68 63.03 195.87 54.88H195.86ZM219.4 44.4C219.59 61.24 216.37 77.88 214.84 94.6C213.23 104.93 211.98 115.68 207.56 125.24C204.11 131.28 196.68 134.46 189.95 134.72C169.96 134.99 166.16 111.79 163.08 96.42C161.13 81.74 163.15 66.83 165.42 52.3C167.16 42.38 168.31 32.25 171.62 22.7C172.56 15.92 176.66 9.59001 181.82 5.22001C190.96 -3.02999 205.2 2.94001 211.67 11.7C214.94 16.53 216.36 22.37 217.44 28.03C218.48 33.45 219.39 38.85 219.41 44.39L219.4 44.4Z" fill="#F67570"/>
<path d="M19.03 164.1C22.57 162.63 26.47 162.22 25.9 157.24C25.06 153.94 22.6 154.81 21.02 157.04C19.57 159.09 19.09 161.62 19.03 164.09V164.1ZM45.6 150.57C51.48 160.52 40.81 169.57 32.77 173.91C25.38 177.17 23.56 176.65 20.68 185.07C17.96 194.36 16.22 204.16 16.2 213.71C16.09 218.19 16.77 222.14 17.58 226.45C18.86 233.06 19.57 242.79 10.39 243.05C3.28999 243 0.409987 238.12 0.889987 231.5C0.619987 223.92 2.47998 216.44 2.30998 208.86C2.57998 200.65 2.54998 192.44 2.87998 184.24C3.27998 176.76 1.89999 169.04 3.89999 161.72C5.80999 155.6 9.25999 149.72 14.75 146.2C25.18 139.35 39.31 137.5 45.6 150.57Z" fill="#3E6129"/>
<path d="M66.7901 170.26C66.9001 166.37 66.3301 162.27 64.7101 158.74C63.4601 159.56 63.0501 161.19 62.5301 162.54C61.6201 165.66 60.8501 168.87 60.3601 172.09C60.7501 172.33 61.1801 172.49 61.6101 172.64C63.3701 172.24 66.0501 172.32 66.7801 170.25L66.7901 170.26ZM90.0901 225.91C90.1801 227.17 90.2901 228.46 90.2301 229.73C90.1601 231.13 89.9601 232.5 89.5901 233.84C89.2401 235.1 88.7001 236.32 88.0001 237.41C87.6901 237.89 87.3701 238.37 86.9901 238.82C86.6901 239.3 86.4001 239.73 86.1701 240.07C84.3401 242.4 81.5501 243.99 78.6101 243.8C77.9101 243.73 77.2301 243.53 76.6001 243.21C72.0601 242.38 70.7601 236.61 70.5801 232.42C70.5801 232.21 70.5801 231.99 70.5801 231.78C70.4001 230.73 70.2401 229.67 70.0401 228.66C68.8701 220.84 68.3101 212.95 67.3301 205.1C66.8701 199.26 66.3601 193.8 65.7701 188.07C65.6101 187.16 65.5701 186.19 65.4501 185.25C65.3501 185.2 65.2601 185.16 65.1701 185.13C64.8701 185.04 64.5701 184.95 64.2701 184.88C63.6001 184.76 62.9101 184.66 62.2301 184.6C62.0101 184.59 61.7901 184.58 61.5701 184.6C61.5201 184.6 61.4601 184.61 61.4101 184.62C61.3701 184.62 61.3301 184.64 61.2901 184.65C61.2801 184.65 61.2601 184.66 61.2501 184.67C61.2301 184.67 61.2201 184.69 61.2001 184.7C61.1401 184.75 61.0801 184.79 61.0201 184.84C60.9301 184.93 60.8401 185.02 60.7601 185.11C60.5301 185.4 60.3101 185.71 60.1101 186.02C59.3201 187.29 58.5801 188.59 57.9101 189.93C57.4201 190.98 57.0101 192.06 56.6401 193.17C56.1301 194.74 55.6101 196.31 55.1401 197.89C54.6301 199.61 54.2301 201.35 53.9101 202.95C53.4601 205.31 53.0701 207.67 52.7901 210.06C52.6501 211.31 52.5501 212.56 52.4501 213.8C52.3401 215.06 52.2501 216.31 52.1601 217.57C52.1401 217.82 52.1201 218.07 52.1101 218.25C51.7901 223.16 51.6901 228.13 50.8001 232.98C50.5701 234.23 50.3001 235.48 49.9601 236.71C49.6401 237.85 49.2101 238.96 48.7301 240.04C48.2101 241.2 47.5701 242.33 46.7901 243.32C46.3801 243.85 45.9301 244.34 45.4101 244.77C44.9001 245.19 44.2801 245.5 43.6701 245.74C43.0101 246.01 42.3001 246.16 41.5801 246.16H41.5501C40.7901 246.16 40.0801 246.01 39.3601 245.75C38.8001 245.55 38.2601 245.25 37.7501 244.93C37.1901 244.59 36.6501 244.22 36.1501 243.78C35.6201 243.31 35.1501 242.8 34.7301 242.21C34.3401 241.66 34.0301 241.04 33.7501 240.42C33.4901 239.84 33.3001 239.21 33.1401 238.59C32.9801 237.95 32.8501 237.3 32.7301 236.64C32.5201 235.37 32.4601 234.07 32.4301 232.78C32.4101 232.21 32.3901 231.62 32.4001 231.05C32.4201 230.34 32.4701 229.64 32.5401 228.93C32.6601 227.73 32.7901 226.53 32.9801 225.34C33.1801 224.08 33.4501 222.84 33.7101 221.6V221.58C33.7101 221.58 33.7301 221.49 33.7401 221.45V221.39C33.7601 221.33 33.7801 221.26 33.7901 221.19C34.9901 212.66 37.7001 204.48 40.5101 196.38C40.7201 195.48 40.9701 194.51 41.2401 193.58C41.6701 191.48 42.1201 189.4 42.5901 187.31C42.8601 186.1 43.1401 184.9 43.4201 183.7C43.7101 182.46 43.9701 181.22 44.2701 179.97C44.8401 177.56 45.5601 175.2 46.2001 172.81C46.8601 170.37 47.5001 167.93 48.2701 165.53C49.0601 163.06 49.9501 160.63 50.9201 158.23C51.4001 157.06 51.9101 155.9 52.4501 154.76C53.0001 153.58 53.6101 152.41 54.3401 151.33C55.0601 150.27 55.8401 149.28 56.7201 148.35C57.6301 147.39 58.7201 146.58 59.8401 145.93C60.9301 145.3 62.1301 144.91 63.3201 144.54C63.8801 144.36 64.4401 144.22 65.0001 144.07C65.3501 143.98 65.7001 143.91 66.0501 143.86C66.8601 143.74 67.6401 143.9 68.4001 144.18C68.7701 144.32 69.1301 144.52 69.4701 144.72C69.7401 144.87 70.0001 145.03 70.2601 145.2C70.8001 145.56 71.3301 145.95 71.8401 146.35C72.3401 146.74 72.7901 147.17 73.2501 147.6C73.7401 148.05 74.1901 148.57 74.5901 149.11C75.4201 150.24 76.0001 151.5 76.4101 152.86C76.7701 154.07 77.0001 155.32 77.2001 156.57C77.4001 157.81 77.4701 159.08 77.5401 160.34C77.6101 161.64 77.6901 162.95 77.7401 164.26C77.8101 165.89 77.8401 167.53 77.9401 169.17C78.0401 170.89 78.1001 172.62 78.1901 174.06C78.3101 175.58 78.5101 177.08 78.6901 178.59C78.8701 180.09 79.0501 181.59 79.3101 183.07C79.5201 184.15 79.7801 185.23 80.0301 186.3C80.3101 187.54 80.5801 188.78 80.8501 190.01C81.3701 192.42 82.0101 194.78 82.6201 197.16C82.9301 198.36 83.2401 199.55 83.5801 200.75C83.9101 201.91 84.2801 203.05 84.6401 204.2C85.0101 205.36 85.3501 206.52 85.7001 207.68C86.0401 208.84 86.4101 209.99 86.7601 211.16C87.1201 212.36 87.4601 213.58 87.8001 214.79C88.1401 215.98 88.5001 217.17 88.8201 218.37C89.4801 220.83 89.9001 223.36 90.0901 225.9V225.91Z" fill="#3E6129"/>
<path d="M138.88 200.15C140.58 210.01 139.8 219.96 135.29 228.9C131.08 238.82 124.63 243.08 114.27 241.93C107.53 241.23 101.13 237.52 96.68 232.19C92.23 226.38 91.16 218.74 90.25 211.56C88.72 199.83 87.66 188.01 88.93 176.18C89.12 170.46 89.86 164.74 91.79 159.36C92.59 156.59 93.2 153.69 94.89 151.32C96.69 148.78 99.14 146.76 101.66 145.05C106.42 142.28 111.79 141.23 117.19 141.17C122.58 140.99 129.19 140.93 132.64 146.09C136.49 150.85 133.95 157.85 128.22 159.01C126.09 159.49 123.9 159.53 121.76 159.09C119.64 158.73 117.63 157.58 115.48 157.47C104.31 161.63 102.62 174.88 103.3 185.78C103.54 193.31 103.38 201.02 105.82 208.21C108.47 217.48 118.31 227.42 122.65 213.24C123.74 209.19 125.6 204.44 123.56 200.42C122.38 199.3 120.33 199.87 118.91 200.24C116.73 201.03 115.03 202.81 112.69 202.98C109.95 203.15 108.7 200.12 108.79 197.64C108.96 193.55 109.49 188.59 112.76 185.9C119.01 182.02 130.72 181.99 135.27 188.7C137.29 192.14 138.18 196.21 138.88 200.15Z" fill="#3E6129"/>
<path d="M189.9 216.98C192.84 220.55 192.1 225.49 191.24 229.69C190.93 232.37 189.73 234.94 187.2 236.15C182.74 238.28 177.58 238.43 172.76 239.24C167.2 239.71 161.56 240.82 155.99 240.03C151.83 239.26 147.28 239.01 143.77 236.4C137.65 230.6 142.02 219.92 142.23 212.57C142.47 207.19 142.66 201.8 142.43 196.41C142.1 192.86 141.51 189.34 141.41 185.76C141.34 178.11 140.89 170.47 140.79 162.82C139.79 151.84 139.84 146.88 151.56 143.34C156.29 141.46 161.35 140.54 166.43 140.64C171.42 140.53 176.72 139.94 181.28 142.41C183.67 143.63 184.78 146.32 185.01 148.87C185.29 151.81 183.06 154.23 180.39 155.1C175.41 156.78 170.05 156.07 164.9 155.88C162.27 155.72 159.61 155.27 157.06 156.13C151.74 157 155.01 172.32 156.72 175.71C158.03 178.82 160.13 177.91 162.79 177.45C166.09 176.99 169.83 177.67 172.48 179.77C175.41 182.57 174.27 187.46 171.97 190.3C170.26 192.55 167.35 192.76 164.78 193.18C163.08 193.53 161.37 193.78 159.67 194.07C159.19 194.18 158.58 194.28 158.45 194.83C157.32 200.42 158.33 206.23 158.99 211.83C160.28 218.21 164.68 217.67 169.92 216.64C174.97 215.75 186.12 212.7 189.9 216.95V216.98Z" fill="#3E6129"/>
<path d="M282.51 220.22C282.51 220.22 282.52 220.14 282.53 220.1C282.53 220.1 282.53 220.18 282.52 220.22H282.51ZM290.89 165.2C291.15 179.15 289.98 193 288.64 206.86C288.18 212.61 287.43 218.32 286.7 224.04C285.59 229.85 285.51 239.61 277.9 240.29C266.55 240.29 259.41 215.82 256.35 206.68C254.42 200.73 252.25 194.56 250.1 188.72C249.32 186.88 249.22 184.87 248.75 182.97C248.59 182.79 248.43 182.6 248.27 182.42C247.18 187.46 248.31 192.6 249.22 197.57C249.9 201 250.49 204.44 251.16 207.87C252.64 215.19 254.88 222.61 253.9 230.14C253.41 236.59 246.92 242.55 240.59 238.91C235.15 235.31 237.41 223.44 236.65 217.48C236.43 208.83 235.85 200.23 235.92 191.7C235.35 177.71 232.99 163.36 236.72 149.63C238.43 142.72 245.91 135.38 251.54 143.41C253.29 145.89 253.65 149 254.48 151.85C255.92 157.77 256.67 163.83 257.69 169.82C258.5 173.98 260.18 177.88 261.93 181.72C263.7 185.43 264.86 189.63 267.73 192.68C269.88 187.78 269.3 182.27 269.36 177.05C269.15 168.3 269.19 159.55 269.2 150.8C269.1 146.34 269.25 140.74 273.11 137.8C274.93 136.74 277.14 136.29 279.16 136.57C279.61 136.37 280.15 136.24 280.78 136.21C290.78 136.53 290.78 157.85 290.86 165.18L290.89 165.2Z" fill="#85B7C2"/>
<path d="M321.82 195.15C322.92 185.54 322.09 175.85 319.99 166.41C319.5 164.71 319.01 162.66 317.67 161.43C314.14 164.17 314.1 169.11 313.67 173.12C313.31 176.36 312.91 179.61 312.42 182.84C311.28 190.37 309.44 198.03 310.88 205.64C311.48 207.83 312.06 211.39 314.92 211.63C321.45 209.22 321.41 200.85 321.82 195.15ZM340.39 166.17C342.48 182.48 342.21 245.31 316.48 242.38C292.07 236.77 292.6 206.68 294.16 187.43C295.41 174 296.26 159.75 303.44 147.82C304.98 145.35 306.63 142.44 309.56 141.34C314.29 135.63 322.98 139.78 327.45 143.84C333.38 150.21 338.93 157.55 340.38 166.17H340.39Z" fill="#85B7C2"/>
<path d="M412.27 144.58C412.31 145.51 412.15 147.21 411.65 148.68C411.44 150.15 411.01 151.6 410.49 152.88C408.72 156.28 404.61 158.29 400.65 158.5C396.03 158.72 391.27 157.95 386.77 159.15C379.43 161.21 379.93 168.67 380.33 174.46C380.85 178.75 381.12 183.05 381.48 187.34C382.04 194.15 382.25 200.98 382.82 207.8C383.61 214.36 383.44 221.08 382.52 227.57C381.82 234.37 378.47 242.28 369.62 241.07C365.33 240.66 361.22 238.05 359.73 234.23C358.21 230.46 359.48 226.42 360.18 222.62C360.7 219.94 361.13 217.24 361.47 214.53C362.64 204.09 363.29 193.56 363.11 183.07C363.06 180.45 362.9 177.84 362.75 175.23C362.41 170.39 363.14 165.28 361.24 160.67C360.25 158.48 358.58 158.42 356.32 158.56C354.68 158.6 353.03 158.53 351.4 158.43C347.57 158.11 343.31 158.7 340.06 156.39C335.47 153.75 336.01 148.02 337.2 143.82C337.43 143.42 337.68 143.05 337.94 142.71C339.07 140.25 342.62 138.64 345.21 137.84C354.94 135.35 364.92 134.13 374.97 133.83C381.29 133.83 387.53 134.81 393.83 135.15C400.69 135.75 411.72 136.32 412.27 144.6V144.58Z" fill="#85B7C2"/>
<path d="M106.25 256.03C106.81 259.8 108.96 265.65 104.99 268C102.07 269.31 98.7401 268.91 95.6501 269.16C91.6801 269.16 87.7501 269.89 83.8201 270.4C82.3701 270.75 80.6001 270.56 79.4201 271.65C78.4201 273.84 78.8901 276.53 78.6101 278.92C78.2701 284.88 78.1301 285.94 84.0901 284.61C88.5601 283.9 92.6201 281.24 97.1501 281.07C99.2701 281.03 101.66 280.78 103.49 282.13C106.47 284.9 105.71 291.36 106 295.3C106.32 300.19 102.72 304.34 98.2401 304.78C94.5001 305.5 90.7001 305.86 86.9101 305.58C83.4801 305.26 80.5901 305.99 77.3401 306.68C76.1601 306.85 74.9201 306.85 73.7401 307.09C73.1301 307.64 72.5801 308.29 72.1001 309.08C71.9301 309.4 71.7701 309.72 71.6201 310.05C71.5701 311.66 71.5101 313.26 71.4401 314.86C71.3701 320.33 71.3501 325.81 71.4001 331.29C71.6601 337.28 71.8001 342.8 71.3101 348.73C70.4401 357.34 69.8501 370.88 58.8101 369.76C55.9001 369.44 53.3801 367.44 51.5601 365.08C47.6401 360.22 49.9201 352.96 50.0201 347.33C50.3801 338.79 50.0401 330.22 50.1101 321.68C49.7501 307.45 49.9201 293.22 49.7501 278.98C49.3501 263.16 49.6601 247.8 67.3801 246.67C68.5501 246.36 69.7501 246.27 70.9501 246.17C73.5201 246.01 76.0401 245.27 78.6301 245.42C84.0601 245.78 89.5101 245.71 94.9601 245.88C101.79 246.2 104.68 248.99 106.26 256.06L106.25 256.03Z" fill="#F4D86B"/>
<path d="M138.31 310.18C138.36 302.38 138.36 294.18 135.6 286.76C134.71 284.59 134.02 282.15 131.96 280.67C128.94 283.75 127.34 287.88 127.48 292.03C127.25 296.31 127.02 300.6 126.94 304.89C126.95 312.66 126.33 320.83 129.03 328.25C130.24 330.91 131.05 334.24 133.79 335.9C138.12 330.99 137.91 316.7 138.3 310.2L138.31 310.18ZM158.21 285.38C161.4 301.88 159.34 318.63 158.59 335.24C158.3 345.56 157.92 356.23 152.89 365.65C150.28 371.61 145.01 375.17 137.96 374.99C121.2 374.85 114.12 360.29 110.3 347.32C106.55 333.96 106.66 320.01 107.82 306.34C108.34 298.3 109.38 290.29 110.22 282.27C110.58 278.22 111.79 274.31 113.01 270.43C113.86 267.64 114.72 264.82 116.24 262.26C116.91 257.91 121.16 253.08 125.32 251.05C131.02 249.03 139.71 249.44 144.48 253.2C149.94 257.32 152.5 263.59 154.54 269.64C156.47 274.74 157.53 280.03 158.21 285.39V285.38Z" fill="#F4D86B"/>
<path d="M214.82 261.54C215.45 266.36 215.7 271.22 215.57 276.08C215.44 287.72 214.84 299.49 213.44 310.94C212.47 318.66 210.88 326.3 210.39 334.07C209.05 344.45 209.46 355.49 204.9 365.14C202.08 371.64 197.46 375.19 190.15 374.5C185.55 374.43 181.39 372.2 178.13 369.05C175.33 367.21 170.48 361.32 170.19 357.92C169.95 357.35 169.73 356.76 169.52 356.17C165.9 347.09 164.63 337.44 163.75 327.79C162.37 315.32 161.25 302.54 161.41 290.03C160.88 282.3 160.85 274.51 161.84 266.81C162.51 262.24 162.51 257.45 164.74 253.28C167.01 248.49 173.03 247.08 177.65 249.16C182.89 251.58 183.54 258.07 184.42 263.12C185.28 272.07 184.44 281.08 184.15 290.04C183.79 298.71 184.01 307.5 184.51 316.13C184.72 319.44 184.94 322.26 185.06 325.5C185.5 329.54 184.4 334.63 187.47 337.8C192.09 333.86 190.81 314.37 191.65 307.83C192.41 298.6 193.78 289.42 195.22 280.27C196.15 273.69 196.33 266.95 198.14 260.53C199.75 254.24 207.43 245.88 212.82 253.67C214.19 256.05 214.39 258.87 214.82 261.53V261.54Z" fill="#F4D86B"/>
<path d="M274.26 258.95C274.36 260.18 274.42 261.42 274.36 262.67C273.92 276.67 273.47 290.66 273 304.65C273.3 319.27 273.55 333.9 271.56 348.42C270.29 354.58 269.29 373.03 259.42 368.74C254.89 366.78 252.04 362.4 249.96 358.11C247.37 352.9 245.32 347.45 243.22 342.02C240.1 334.32 237.76 326.37 235.46 318.39C235.14 317.37 234.87 316.35 234.65 315.31C234.51 315.31 234.37 315.33 234.23 315.33C234.27 316.65 234.3 317.97 234.25 319.26C234.52 327.17 235.09 335.06 235.76 342.87C236.29 347.97 237.07 353.09 237.32 358.22C238.38 365.95 237.53 373.17 227 373.95C222.84 373.95 219.12 370.56 218.45 366.5C217.28 360.93 217.56 354.92 218.14 349.21C218.29 344.95 218.24 340.69 218.18 336.42C217.9 313.21 217.79 289.68 218.85 266.49C219.15 260.75 221.7 248.35 228.07 246.79C235.73 246.51 236.65 256.49 237.87 262.15C238.73 265.93 238.85 269.81 239.57 273.6C240.97 280.04 243.55 286.15 244.61 292.68C246.73 302.42 248.69 312.4 253.57 321.18C255.91 309.59 255.25 297.69 255.39 285.94C255.41 277.51 254.05 269.22 254.84 260.86C255 253.28 257.79 247.1 266.22 246.71C273.52 246.55 274.56 252.58 274.26 258.93V258.95Z" fill="#F4D86B"/>
<path d="M295.05 323.35C301.91 319.43 306.17 311.08 305.92 303.29C305.4 298.57 305.79 293.19 302.76 289.25C301.25 286.87 298.52 283.51 295.38 284.84C293.86 288.46 294.31 292.55 294.04 296.39C293.56 305.41 294.7 314.3 294.47 322.99C294.66 323.12 294.85 323.24 295.04 323.36C295.04 323.36 295.05 323.36 295.06 323.36L295.05 323.35ZM327.61 272.9C333.61 282.24 335.69 293.67 334.34 304.61C333.77 310.68 333.03 316.8 330.84 322.53C325.9 337.11 317.12 350.58 305.07 360.26C299.16 365.34 291.68 369.55 283.64 368.19C281.6 368.05 279.86 366.69 279.58 364.61C278.99 361.8 278.8 358.92 278.69 356.06C278.37 346.94 277.99 337.81 277.84 328.68C277.68 316.27 277.22 304.24 277.96 291.95C278.02 290.66 278.08 289.37 278.13 288.08C277.51 282.66 278.01 277.18 278.35 271.74C278.52 265.97 278.44 260.12 279.49 254.47C279.4 252.2 279.36 249.84 280.55 247.89C282.3 244.22 286.27 244.62 289.73 244.81C294.05 245.71 297.97 247.95 301.69 250.24C306.44 253.02 310.83 256.3 315 259.87C319.72 263.67 324.42 267.66 327.6 272.89L327.61 272.9Z" fill="#F4D86B"/>
</svg>
