<?xml version="1.0" encoding="UTF-8"?>
<svg xmlns="http://www.w3.org/2000/svg" xmlns:xlink="http://www.w3.org/1999/xlink" viewBox="0 0 428.93 460.73">
  <defs>
    <style>
      .cls-1 {
        fill: none;
      }

      .cls-2 {
        fill: #7c4f38;
      }

      .cls-3 {
        fill: #edecb3;
      }

      .cls-4 {
        fill: #f67472;
      }

      .cls-5 {
        fill: #f77573;
      }

      .cls-6 {
        fill: #d36362;
      }

      .cls-7 {
        fill: #b82929;
      }

      .cls-8 {
        fill: #fbf3a2;
      }

      .cls-9 {
        fill: #fff;
      }

      .cls-10 {
        fill: #3e612a;
      }

      .cls-11 {
        fill: #84b7c1;
      }

      .cls-12 {
        fill: #b92929;
      }

      .cls-13 {
        fill: #b82828;
      }

      .cls-14 {
        fill: #5d8187;
      }

      .cls-15 {
        fill: #f5d86c;
      }

      .cls-16 {
        clip-path: url(#clippath);
      }
    </style>
    <clipPath id="clippath">
      <path class="cls-1" d="M417.89,212.8c-.74-12.54-3.97-25.85-12.52-35.42-4.44-5.02-10.38-8.25-15.75-12.14-3.48-2.59-7.36-4.68-10.37-7.85-4.05-4.51-7.35-9.8-9.19-15.6-2.76-9.39.03-19.17,1.61-28.52.46-5.73.73-11.57-.13-17.27-1.28-5.59-3.13-11.04-4.74-16.54-4.41-13.61-12.13-26.74-25.32-33.36-5.84-3.41-12.08-6.13-18.63-7.81-5.44-1.72-11.58-2.99-17.47-3.39-.07,0-.14-.02-.21-.03-3.72-.43-7.47-.47-11.21-.36-1.23-.03-2.47-.04-3.7,0-.8.09-1.59.19-2.39.3-.12,0-.23.01-.35.02-5.85.14-11.68.77-17.36,2.24-2.91.66-5.8,1.4-8.63,2.33-4.08,1.33-7.93,3.23-11.85,4.96-2.56,1.13-5.09,2.33-7.63,3.51-2.83,1.41-5.78,2.55-8.74,3.63-3.53,1.3-7.17,2.52-10.96,2.66-2.82,0-5.61-.45-8.33-1.16-5.38-1.43-10.62-3.57-14.94-7.15-3.24-2.5-6.45-5.08-9.87-7.34-.8-.61-1.62-1.19-2.48-1.72-13.27-7.28-31.22-5.99-45.49-2.46-10.99,3.28-21.04,9.93-28.2,18.9-3.74,4.83-6.25,10.45-8.78,15.98-4.8,10.73-6.94,22.4-12.06,33.03-1.22,2.36-2.53,4.67-3.9,6.94-2.44,3.13-5.1,6.11-7.9,8.94-4.34,4.68-9.33,8.44-14.86,11.66-6.87,4.05-13.98,7.71-20.52,12.3-3.34,2.25-6.81,4.32-10.08,6.66-4.81,3.45-9,7.71-12.79,12.23-5.92,7.86-10.74,17.08-11.91,26.95-1.7,9.88-2.12,20.05.59,29.8,3.22,13.95,11.01,26.13,16.1,39.37.9,2.71,1.71,5.48,2.23,8.29-.14,1.5-.27,3-.47,4.5-.59,3.7-2.19,7.19-2.46,10.95-.21,7.57,2.26,11.66,9.61,13.93,3.84.98,7.81,2.05,10.84,4.75,2.38,1.85,3.78,4.53,5.46,6.96,3.14,4.34,6.23,9.32,11.45,11.33.56.24,1.15.34,1.73.34,1.56,0,3.08-.78,4.05-2.04,2.09-3.38,1.81-7.9,1.46-11.73-.63-4.45-2.88-8.42-4.13-12.69-.87-3.69,1.34-7.19,2.16-10.7,1.03-3.67,1.31-7.59.82-11.37-.97-5.31-5.63-8.96-10.48-10.7-2.42-.8-4.98-1.23-7.11-2.75-.4-.26-.77-.53-1.14-.83-.03-.07-.06-.14-.1-.22-1.98-4.04-3.5-8.3-4.66-12.65-4.36-17.47-5.1-39.58.17-56.89,5.42-12.6,14.52-24.41,27.12-30.43,9.18-4.46,19.43-7.17,27.04-14.35,7.23-6.6,13.01-14.73,17.41-23.46,2.84-5.12,5.28-10.48,6.66-16.19,3.05-10.83,3.71-24.13,14.55-30.35.55-.25,1.02-.66,1.31-1.16,3.55-2.11,7.49-3.48,11.37-4.88,6.19-2.28,12.16-3.05,18.51-.86,5.76,1.77,11.09,4.64,16.69,6.82.75.29,1.5.59,2.27.86,6.7,3.32,13.54,6.21,21.13,7,13.59,1.48,27.44-.96,39.95-6.4,5.11-2.27,9.95-5.06,14.82-7.79,1.33-.59,2.66-1.17,3.96-1.83,2.22-1.11,4.94-2.12,7.48-2.64,2.71-.45,5.42-.92,8.14-1.26,2.91-.32,5.84-.32,8.75-.11,3.92.23,7.86.3,11.71,1.13,5.36,1.21,10.62,2.97,15.54,5.4,5.07,2.71,9.89,6.15,13.38,10.77,3.29,4.12,6.46,8.37,8.68,13.18,1.99,4.11,3.45,8.55,3.69,13.13.21,2.97.06,5.94-.23,8.91-.31,3.55-.71,7.11-1.46,10.6-.44,2.28-.95,4.54-1.47,6.8-.54,2.5-.88,5.04-1.14,7.59-.24,3.61-.28,7.29.32,10.87.48,2.33,1.15,4.62,1.69,6.94,1.21,4.49,3.12,8.81,5.52,12.79.55.85,1.13,1.66,1.76,2.45,7.64,11.14,18.73,19.68,30.33,26.43,8.58,5.81,14.89,11.04,14.47,22.34-.74,9.78-3.96,19.16-7.2,28.34-.05.17-.12.33-.17.49-.59.78-1,1.69-1.59,2.47-.42.73-1,1.36-1.54,2.02-1.24.27-2.54.23-3.85.19-1.63-.05-3.26-.11-4.81.45-7.81,2.64-9.88,10.32-9.51,17.77.09.32.19.64.27.96.09.32.15.65.22.98.27,1.27.47,2.54.57,3.83,0-.05,0-.1,0-.14.06.86.19,1.7.28,2.55.07.69.11,1.39.12,2.09.01.87,0,1.75-.03,2.62-.02.46-.02.91-.03,1.37-.01.31-.02.63-.05.94-.03.28-.1.55-.16.83-.08.43-.15.85-.32,1.25-.08.18-.14.36-.2.54-.12.32-.27.63-.42.93-.14.28-.3.55-.46.82-.06.18-.13.36-.21.53-2.23,4.88-6.21,8.95-7.55,14.23-1.27,4.06.55,8.72,5.22,8.97,8.31-.47,14.14-7.68,18.92-13.76,2.21-3.03,5.08-5.86,9.01-6.17,5.86-.01,12.79-.4,16.38-5.78,4.14-6.36,3.25-10.44.54-17.02-.1-.16-.2-.31-.28-.48-.12-.23-.22-.46-.32-.7-.13-.3-.21-.62-.34-.92-.09-.21-.19-.41-.27-.62-.06-.14-.11-.28-.16-.43-.19-.41-.42-.81-.6-1.23-.2-.46-.34-.93-.41-1.42-.09-.58-.03-1.19.05-1.77.06-.4.09-.81.18-1.2.16-.7.41-1.38.75-2.01,0,0,0-.01,0-.02.01-.11.03-.23.06-.34.1-.5.26-.96.45-1.43.24-.62.57-1.22.82-1.84.03-.09.06-.17.1-.26h0s0,0,0,0c0,0,0,0,0,0,.01-.03.03-.07.04-.1.13-.33.24-.66.38-.99.42-1.13.79-2.28,1.26-3.39.26-.61.52-1.21.79-1.81.28-.62.58-1.23.84-1.86.1-.27.18-.54.27-.81.15-.42.33-.83.5-1.24,3.3-10.5,5-21.51,4.03-32.55Z"/>
    </clipPath>
  </defs>
  <g id="Vector_layer" data-name="Vector layer">
    <path class="cls-10" d="M376.36,334.43c.52-.31,1.33,0,1.32.66-.01.45-.24.86-.43,1.27-1.45,2.77-3.18,5.39-5.24,7.75-2.13,2.4-4.43,4.66-6.74,6.89-2.29,2.21-4.87,4.09-7.58,5.76-5.38,3.47-11.06,6.71-17.39,8.02-4.74,1.13-9.65,1.35-14.39,2.51-5.61,1.48-10.68,4.47-15.02,8.28-3.73,3.1-7.05,6.64-10.66,9.87-2.81,2.52-5.88,4.72-9.07,6.72-4.09,2.46-8.38,4.9-13.16,5.52-2.66.28-5.33-.27-7.91-.87-2.22-.52-4.47-.94-6.73-1.29-6.38-.98-11.82-1-17.96,1.2-2.97.97-5.85,2.25-8.89,3-3.67.92-7.48.59-11.19.07.04,2.9.09,5.79.17,8.69.24,9.22.99,18.41,1.13,27.63.12,4.48.13,8.96.2,13.44.09,3.69.1,7.38.16,11.06-.34,0-.69,0-1.03,0-.59,0-1.18.03-1.77.07-.36.02-.72.03-1.08.03-.19,0-.38,0-.57,0-.53-.03-1.06-.08-1.59-.12-.56-.04-1.12-.07-1.67-.09-.75-.03-1.51-.03-2.26-.04-.71,0-1.42,0-2.14.02-.46,0-.91,0-1.37,0-.47,0-.93-.01-1.4,0-.88,0-1.76.04-2.64.07-.37.01-.75.03-1.12.04-.08-13.76.07-27.52-.31-41.28-.31-16.74-1.66-33.44-1.82-50.19-.05-5.46.04-10.91.09-16.37.05-5.38-.08-10.77.24-16.15.53-7.2.57-14.43,1.04-21.63.21-2.61.45-5.22.62-7.83.11-1.15.1-2.33.4-3.45.02-.13.14-.22.28-.18.26.1.11.33.11.53,0,1.67-.01,3.33-.05,5,.44-2.28,1.02-4.53,1.83-6.71.39-.96.68-2.01,1.37-2.81.59-.6,1.55-.21,1.82.51.49,1.14.44,2.43.61,3.64.33,2.5.57,5.02.93,7.52.97,4.57,1.76,9.18,2.82,13.74.84,3.64,1.95,7.21,2.93,10.81.3,1.14.56,2.28.81,3.43-.01-.16-.02-.32-.03-.48-.5-5.57-.44-11.19-1.03-16.75-.03-.34-.07-.68-.13-1.01,0,0,0-.04-.01-.05-.02-.04-.06-.06-.07-.11-.03-.11.06-.22.17-.22.1,0,.18.1.17.2.27.35.32.82.42,1.24.15.69.25,1.39.36,2.09.72,4.34.86,8.75,1.32,13.12.49,5.03.74,9.91.86,14.92.3,9.36.76,18.72.98,28.08.13,5.26.18,10.52.23,15.78,1.76-3.19,4.12-6.03,6.65-8.65,3.32-3.48,7.34-6.38,12-7.75,5.94-1.69,12.22-1.41,18.33-1.59,2.72-.02,5.45-.02,8.17-.15,5.85-.17,11.7-.58,17.19-2.71,6.36-2.62,11.91-6.84,17.21-11.14,3.1-2.6,5.89-5.53,8.89-8.23,5.18-4.68,12.12-6.72,18.88-7.55,3.15-.4,6.32-.73,9.47-1.16,5.53-.67,11.12-1.23,16.45-2.94,3.3-1.09,6.5-2.48,9.52-4.22,2.92-1.6,5.57-3.63,8.35-5.46Z"/>
  </g>
  <g id="Vector_layer-2" data-name="Vector layer">
    <path class="cls-10" d="M212.92,396.93c.76-.75,1.94.29,1.3,1.14-1.06,1.53-2.61,2.12-4.36,2.49.1.4.5,1.15-.08,1.33-.24.04-.47-.13-.59-.32-.11-.16-.19-.34-.27-.52-.05-.1-.09-.2-.14-.3-7.48.73-14.39-2.81-21.51-4.45-5.91-1.34-12.06-.94-17.96.26-3.1.74-6.19,1.5-9.33,2.01-2.52.49-5.05.91-7.62.99-9.47.31-18.42-2.5-25.4-9.01-3.91-3.48-6.83-7.91-9.51-12.36-1.15-1.97-2.35-3.9-3.73-5.72-2.2-2.79-4.7-5.41-7.6-7.47-2.2-1.35-4.44-2.83-6.98-3.43-3.25-.58-6.57-.45-9.78-.8-4.28-.49-8.59-1.05-12.71-2.33-2.33-.76-4.59-1.74-6.76-2.87-5.24-2.74-9.76-6.63-13.96-10.75-2.06-1.96-4.23-3.83-6-6.07-.45-.6-1.18-1.37-.66-2.12.27-.35.77-.44,1.17-.27.63.29,1.2.71,1.78,1.08,5.99,4.03,11.04,6.88,18.43,7.21,5.84.35,11.65-.19,17.43-.79,4.22-.36,8.44-.9,12.68-.71,4.31.19,8.69.92,12.54,2.95,3.81,2.1,7.22,4.91,10.18,8.08,2.85,3.18,5.61,6.44,8.31,9.76,3.41,4.11,7.34,7.83,11.8,10.78,2.06,1.38,4.19,2.68,6.52,3.54,3.65,1.35,7.51,2.04,11.34,2.63,5.18.76,10.39,1.29,15.6,1.73,5.05.46,10.11.99,15.05,2.15,1.63.37,3.23.85,4.77,1.52,3.05,1.26,5.63,3.4,7.67,5.97,1.63,2.02,3.19,4.13,4.47,6.4,1.4-.29,2.9-.66,3.92-1.73Z"/>
  </g>
  <g id="Vector_layer-3" data-name="Vector layer">
    <path class="cls-3" d="M235.23,393.9c-.76-.86,3.32-3.52,4-3.99,4.23-2.84,7.64-4.54,12.78-5.04,2.37-.23,4.78-.31,7.14.05,1.92.27,3.79.78,5.7,1.06,2.53.38,5.09.71,7.61.87,3.13.14,6.26-.26,9.33-.84,2.65-.44,5-1.79,7.26-3.18,4.92-3.05,9.33-6.78,13.67-10.54,2.58-2.33,5.05-4.78,7.79-6.93,1.85-1.45,3.76-2.82,5.67-4.2,5.69-4.25,12.38-7.16,19.34-8.55,4.38-.8,8.85-.94,13.24-1.71,1.21-.24,1.77,1.56.44,1.94-4.01.95-8.15,1.08-12.22,1.71-3.91.62-7.68,1.9-11.29,3.51-3.82,1.64-6.98,3.88-10.24,6.31-2.51,1.81-4.97,3.71-7.25,5.81-2.52,2.37-5.08,4.7-7.76,6.89-4.35,3.67-8.93,7.14-14.03,9.71-2.04,1.01-4.32,1.42-6.55,1.75-2.35.36-4.74.57-7.12.49-3.53-.21-7.05-.67-10.51-1.38-5.28-1.4-10.96-1.44-16.14.33-1.5.54-2.91,1.3-4.32,2.05-2.13,1.12-4.2,2.34-6.07,3.85-.05.23-.38.26-.48.05Z"/>
    <path class="cls-3" d="M272.5,390.66c-5.26-.25-10.27-2.17-15.42-2.94-1.9-.26-3.82-.51-5.75-.38-2.33.15-4.64.52-6.91,1.05-.29.05-.59-.17-.66-.45-.17-.96,1.35-.94,1.97-1.15,2.39-.5,4.82-.89,7.26-.97,2.99.04,5.97.52,8.88,1.19,3.26.74,6.51,1.57,9.86,1.84,2.91.2,5.82.1,8.69-.41,7.62-1.47,14.23-6,20.11-10.86,2.23-1.91,4.29-4.01,6.34-6.11,2.6-2.57,5.27-5.08,8.03-7.47,2.93-2.27,6.17-4.19,9.56-5.69,3.67-1.49,7.47-2.7,11.36-3.48,2.81-.58,5.64-1.13,8.5-1.36,1.21-.1,2.52-.27,3.64-.64.28-.09.55-.2.52-.35-1.19-.11-2.34.3-3.5.49-1.91.37-3.83.68-5.75.98-1.9.28-3.77.71-5.67.92-.75.05-1.54.15-2.27-.04-.1.03-.21-.04-.23-.15-.01-.11.09-.2.19-.2.11-.06.22-.11.34-.16,2.07-.6,4.15-1.22,6.24-1.75,1.87-.42,3.67-.69,5.51-1.1,2.1-.36,4.22-1.23,6.36-.73,2.45.79,1.86,2.87-.24,3.72-3.08,1.41-6.56.96-9.81,1.65-5.48.88-10.94,2.13-15.97,4.46-2.69,1.38-5.33,2.92-7.68,4.83-1.53,1.36-3.01,2.78-4.51,4.18-3.32,3.11-6.37,6.58-9.84,9.51-4.87,4.06-10.24,7.72-16.25,9.84-4.12,1.48-8.53,1.96-12.89,1.73Z"/>
    <path class="cls-3" d="M287.3,386.81c-.52-1.06.93-1.52,1.58-2.04,1.09-.73,2.17-1.5,3.25-2.25.49-.69,1.32-1.25,1.92-1.82,2.13-1.86,4.58-3.29,6.94-4.83,1.95-2.02,3.74-4.21,5.77-6.16,3.17-3.04,6.73-5.67,10.55-7.85,2.15-1.22,4.28-2.48,6.55-3.45,3.24-1.4,6.64-2.33,10.02-3.33,1.17-.39,2.38-.69,3.61-.85,1.72-.34,3.5-.36,5.23-.46.15-.02.28.1.3.24.02.14-.09.29-.24.3-3.23.17-6.36,1.01-9.3,2.31-3.27,1.18-6.44,2.18-9.59,3.59-6.04,2.96-11.84,6.61-16.58,11.43.76.85-.66,1.64-1.13,2.25-2.2,2.29-4.52,4.47-6.9,6.57-2.03,1.82-4.08,3.64-6.34,5.16-.74.48-2.19,1.73-2.69.37-.36.24-.71.47-1.05.69-.61.43-1.32.96-1.88.13Z"/>
    <path class="cls-3" d="M275.61,390.68c-1.54,0-3.06-.31-4.58-.48-.56-.08-1.11-.18-1.66-.28-.41-.07-.68-.5-.6-.9.22-.93,1.28-.51,1.95-.48,1.15.13,2.39.33,3.48.48,2.53.23,4.93.13,7.42-.15,2.62-.35,5.13-1.26,7.49-2.4,2.05-1,4.12-2.02,5.94-3.4,2.76-2.18,5.21-4.72,7.92-6.95,1.11-.91,2.19-1.87,3.31-2.77.09-.07.19.08.1.14-1.88,2.07-3.78,4.13-5.71,6.17-1.91,1.88-3.79,3.82-6.02,5.31-1.56.96-3.17,1.82-4.81,2.63-4.59,2.38-9.09,3.26-14.23,3.07Z"/>
    <path class="cls-3" d="M277.28,389.95c-1.1-.13-.99-1.65.08-1.74.26-.26.68-.22,1.02-.3.81-.14,1.66-.26,2.44-.47.11-.04.24.03.28.14.07.22-.16.3-.33.34.06.04.12.1.17.16.7.17.68,1.21-.03,1.33,0,0,0,0,0,0-1.22.11-2.42.45-3.63.54Z"/>
  </g>
  <g id="Vector_layer-4" data-name="Vector layer">
    <path class="cls-3" d="M200.85,395c-4.48-3.55-12.75-5.46-18.41-5.59-1.88.03-3.65.29-5.43.64-2.78.38-5.51.92-8.27,1.36-3.19.53-6.41.81-9.62,1.16-4.45.62-9.06.55-13.39-.7-3.32-.95-6.38-2.63-9.25-4.52-3.87-2.49-7.26-5.65-10.14-9.23-4.6-5.66-8.06-12.25-13.26-17.42-2.83-2.64-6.01-4.5-9.56-5.88-1.94-.74-3.8-1.7-5.84-2.17-1.51-.36-3.04-.63-4.52-1.12-1.16-.43-2.63-.81-3.17-2.03-.24-.66.19-1.37.82-1.61,2.21-.97,4.65-.32,6.91.11,4.74,1.09,9.13,3.35,12.94,6.33,1.82,1.37,3.59,2.8,5.24,4.37,1.68,1.55,3.12,3.32,4.61,5.04,3.62,3.9,6.19,8.64,9.84,12.52,3.34,3.79,6.85,6.16,11.51,8.07,4.68,2.09,9.53,3.89,14.64,4.47,2.49.29,5,.17,7.5.03,5.72-.2,11.39-1.07,17.09-1.33,6.05-.07,13.98,2.05,18.94,5.55.56.43,1.08.92,1.56,1.44.11.12.22.25.26.42.05.2-.11.39-.3.41-.27.03-.52-.18-.72-.32ZM152.7,391.11c1.76.09,3.54.03,5.29-.19-4.85-.29-9.56-1.73-14.06-3.5-3.15-1.32-6.34-2.64-9.18-4.57-3.86-2.61-6.87-6.26-9.67-9.94-1.5-2.01-2.84-4.16-4.47-6.07,3.69,5.13,7.07,10.55,11.73,14.88,3.54,3.19,7.59,5.86,11.93,7.7,2.69,1.03,5.55,1.56,8.43,1.69ZM106.62,354.1c.23.11.47.22.7.34-4.3-2.79-9.35-5.03-14.55-5.03,2.35.89,4.68,1.08,7.01,1.9,1.26.44,2.46,1.04,3.71,1.52,1.05.4,2.1.79,3.12,1.27Z"/>
    <path class="cls-3" d="M108.2,355.14c-.7-.23-1.36-.6-2.04-.89-.77.43-1.6-.2-2.32-.46-1.1-.48-2.19-.98-3.23-1.57-.63-.42-1.38-.54-2.1-.76-.74-.23-1.48-.39-2.2-.57,0,0,.02,0,.03,0,0,0,.01,0,.02,0-1.16-.33-2.31-.48-3.44-.85-.86-.5-.23-1.53.64-1.39.06-.42.71-.37.68.05,0,0,0,0,0,0,.02,0,.03,0,.05,0,.05,0,.09.01.14.02.51-.58,1.28-.1,1.88.04.97.27,1.93.57,2.92.78.4-.18.83,0,1.21.17.47.19.93.38,1.39.57,1.96.81,3.94,1.57,5.88,2.41.48.22.99.4,1.42.72.82.66.09,2.01-.91,1.69Z"/>
    <path class="cls-3" d="M156.62,391.86c-1.97-.13-3.95-.04-5.9-.33-5.36-.65-10.24-2.98-14.56-6.15-3.26-2.36-6.43-4.91-9-8.02-.87-1.02-1.65-2.11-2.36-3.24-1.24-1.92-2.51-3.8-3.51-5.84-.09-.2-.18-.41-.1-.62.07-.23.39-.29.53-.11.72,1.04,1.54,2.02,2.32,3.02,2.14,2.69,4.17,5.49,6.68,7.86,2.43,2.21,5.01,4.26,7.75,6.08.67-.56,1.6-.06,2.32.13,1.42.48,2.81,1.05,4.23,1.51.75.24,1.5.51,2.27.71.49.06.86.55.74,1.03,3.27.89,6.54,1.79,9.91,2.23.41.02.9-.02,1.19.32.51.54.08,1.49-.67,1.44-.61,0-1.23.02-1.84-.02Z"/>
  </g>
  <g id="Vector_layer-5" data-name="Vector layer">
    <path class="cls-4" d="M161.63,189.32c.06-.14.11-.28.17-.42-.04-.02-.08-.04-.12-.05-.56-.23-1.11-.46-1.67-.7.06.05.12.1.19.15.47.35.95.69,1.43,1.03ZM265.82,210.03c.02-.79.03-1.58.02-2.37-.39.24-.78.49-1.18.73-.42.34-.84.69-1.08,1.16-.02.14-.15.24-.29.21-.15-.02-.24-.18-.21-.32,0-.03.02-.06.03-.09-1.01.62-2.03,1.25-3.05,1.86-.88.53-1.77,1.07-2.65,1.61-.36.22-.85.08-1.06-.28-.22-.37-.08-.84.28-1.06,3.03-1.97,6.08-3.91,9.15-5.81-.08-1.5-.25-2.99-.56-4.47-.51-2.34-1.19-4.64-1.95-6.91-.66-1.93-1.48-3.82-2.78-5.4-1.75-2.1-3.67-4.04-5.71-5.87-.51.68-.97,1.39-1.27,2.18-.04.15-.21.25-.36.21-.15-.04-.25-.21-.21-.36.2-.54.47-1.06.77-1.55-.04.03-.07.07-.11.1-2,1.8-3.94,3.66-5.89,5.51-.87.83-1.74,1.65-2.6,2.5-.31.31-.82.31-1.13,0s-.31-.82,0-1.13c2.96-3.05,5.95-6.09,9.14-8.9-2.13-1.8-4.36-3.5-6.61-5.13-2.89-1.88-5.89-3.56-8.82-5.37-.54-.32-1.08-.63-1.63-.93-.4.69-.78,1.39-1.14,2.09.03.23-.29.31-.4.13-.13-.17-.01-.42.05-.59.27-.66.6-1.3.95-1.92-.05-.03-.1-.05-.15-.08-.65.93-1.29,1.86-1.93,2.79-1.01,1.43-2.02,2.86-3,4.31-.23.47-.8.8-1.29.49-.39-.23-.56-.78-.31-1.17.94-1.45,1.85-2.92,2.76-4.39.62-1,1.25-1.99,1.88-2.98-.69-.34-1.39-.67-2.08-1-1.19-.58-2.38-1.14-3.62-1.58-3.35-1.03-6.71-2.1-10.15-2.81-.06-.01-.11-.02-.17-.03-.17,1.12-.35,2.24-.26,3.36.1.03.18.11.21.22.05.18-.08.37-.26.4-.96.05-.57-1.91-.58-2.49.04-.54.09-1.09.15-1.63-2.54-.48-5.12-.74-7.7-.92-2.55-.15-5.23-.35-7.92-.42,0,1.09,0,2.18,0,3.27-.02,2.62-.14,5.24-.23,7.87-.01.4-.4.72-.79.69-.4-.03-.72-.39-.69-.79.04-2.24.07-4.48.08-6.61,0-.64,0-1.28-.01-1.92-.06.03-.13.04-.2.02-.29-.06-.33-.47-.35-.71-.03-.61-.06-1.22-.09-1.83-5.04.05-9.99.79-14.02,3.46.22.95.46,1.9.72,2.84.5,1.93,1.14,3.87,1.08,5.89.1.13.11.29.05.44.26,1.07.5,2.15.75,3.13.08.4.34.8.14,1.2-.27.57-1.19.54-1.38-.09-1.28-3.98-2.18-8.07-2.98-12.18-.89.76-1.72,1.64-2.48,2.65.42.27.56.92.22,1.32-.46.54-.92,1.08-1.38,1.62-.94,1.11-1.89,2.22-2.93,3.25-.83.7-1.94,2.42-3.11,1.36-.91-1.02.21-2.32.68-3.3-1.49,1.29-2.89,2.7-4.19,4.19,2.14,3.57,4.39,7.08,6.85,10.44.61.85,1.22,1.7,1.85,2.52.14.17.22.36.21.58-.02.63-.92.97-1.33.45-1.82-2.27-3.65-4.53-5.24-6.98-1.2-1.84-2.37-3.71-3.51-5.6-.43.54-.85,1.09-1.26,1.66-1.58,2.49-2.78,5.19-3.88,7.92,1.34.81,2.31,1.63,1.36,1.92,0,0,0,0,0,0-.23-.03-.41-.22-.61-.33-.37-.23-.75-.44-1.13-.64-.08.22-.17.43-.25.65,1.95,1.27,3.98,2.4,6.13,3.29,1.37.57,2.73,1.15,4.12,1.66.41.15.64.61.5,1.03-.14.42-.62.64-1.03.5-2.56-.93-5.14-1.85-7.54-3.16-.96-.52-1.9-1.08-2.81-1.67-.09.24-.18.49-.28.73-.53,1.5-.97,3.02-1.38,4.56,3.33.79,6.65,1.62,9.96,2.53.86.24.69,1.73-.39,1.57-1.05-.26-2.1-.53-3.15-.79-.54-.09-1.08-.17-1.63-.25-1.8-.24-3.58-.55-5.35-.9-.78,2.87-1.73,5.71-1.85,8.7-.42,4.65.07,9.11.6,13.66.83-.03,1.65-.07,2.48-.11,1.48-.09,2.97-.18,4.45-.29.34-.02.66.17.79.48.29-.06.57-.14.84-.25.22-.19.56-.29.78-.04.18.21.15.55-.09.7-.57.3-1.2.45-1.84.56h0c-.1.06-.22.11-.35.12-.52.05-1.03.1-1.55.15-.13.02-.25.04-.37.07-1.63.29-3.27.53-4.91.69.61,6.04,1.47,12.07,2.89,17.98,1.53-.36,3.07-.7,4.61-1.01.96-.2,1.93-.4,2.89-.6.45-.09.91.19,1.01.65.1.45-.2.91-.65,1.01-2.48.55-4.96,1.1-7.44,1.65.09.34.18.68.27,1.02.95,3.75,2.25,7.48,3.92,10.97,4.56-2.49,9.11-4.98,13.35-7.99.25-.17.59-.1.76.14.17.25.1.59-.14.76-1.61,1.1-3.2,2.23-4.84,3.28-2.81,1.74-5.71,3.29-8.58,4.91.11.22.23.45.35.67,2.05,3.92,4.17,7.84,6.99,11.27.83,1,1.67,1.98,2.52,2.95.38-.31.75-.62,1.12-.93,2.38-2,4.76-4.01,7.12-6.04.31-.26.79-.2,1.04.11.05.06.09.12.11.19.19-.09.38-.17.58-.24.2-.07.42.06.48.25.06.2-.05.42-.25.48-.52.13-1,.45-1.43.73-.05.04-.1.08-.15.11-1.02.89-2.05,1.79-3.08,2.67-1.51,1.27-3.02,2.53-4.54,3.78,1.04,1.13,2.11,2.21,3.25,3.25,1.5,1.35,2.88,2.84,4.39,4.19,1.4,1.22,2.83,2.41,4.32,3.51,1.85,1.33,3.7,2.67,5.61,3.91.59-.72,1.18-1.45,1.76-2.19,2.15-2.76,4.24-5.57,6.33-8.38.24-.33.71-.4,1.04-.16.33.24.4.71.16,1.04-2.22,3.08-4.4,6.2-6.75,9.19.03.08.03.17-.03.24-.16.19-.3.4-.43.61-.14.23-.27.46-.41.68.34.2.69.4,1.04.6,1.68.95,3.33,1.98,5.15,2.66,2.73.94,5.61,1.34,8.48,1.49-.09-.9-.17-1.8-.19-2.71,0-.32.02-.64.04-.96.02-.24.25-.41.48-.39.23.02.42.24.39.48-.02.4-.02.8,0,1.2.42-1.9.83-3.79,1.25-5.69.13-.66,1.12-.83,1.46-.23.12.19.14.4.1.61-.53,2.59-1.07,5.17-1.63,7.75,4.39.08,8.68-.8,12.75-2.32-.17-.46-.33-.93-.5-1.39-.34-.95-.69-1.89-1.04-2.84-.16-.38-.28-.79-.11-1.2.35-1,1.91-1.07,2.32-.06.09.24.19.49.28.73.05-.66.33-1.23,1.06-1.57.22-.14.44.2.22.35-.21.13-.43.28-.59.46-.64.99.36,3.24.66,4.33.03.08.05.15.08.23.57-.25,1.13-.51,1.68-.79,1.51-.78,3.02-1.7,4.41-2.65.61-.41,1.21-.82,1.82-1.24-.2-.23-.33-.52-.33-.81.01-.92.8-1.54,1.39-2.14,1.69-1.62,3.4-3.24,5.2-4.74.34-.28.68-.57,1.02-.85-1.16-1.62-2.32-3.23-3.48-4.84-1.01-1.33.88-2.86,1.96-1.59,1.07,1.49,2.13,2.96,3.18,4.42.62-.83,1.34-1.6,2.12-1.64.68-.74,1.39-1.46,2.11-2.16.59-.59,1.32-1.11,1.74-1.83.34-.5.68-1,1.02-1.51-1.49-.92-2.97-1.84-4.45-2.77-.52-.32-.7-1.01-.38-1.54.22-.37.63-.56,1.04-.54-.26-.46-.2-1.08.16-1.47.45-.5,1.26-.54,1.76-.08,1.04.84,2.08,1.69,3.12,2.53.31-.9.76-1.77,1.14-2.64.81-1.56,2.02-4.2,3.67-4.93.56-1.06.96-2.48,2.14-3,0,0,0,0,0-.01-.1-.15-.16-.32-.17-.5-.18.03-.35.07-.52.15-.16.23-.5.28-.72.11-.24-.19-.26-.61.02-.79.33-.21.68-.33,1.06-.4.41-.08.82-.11,1.24-.11.12-.19.24-.37.36-.55-1.62-.56-1.22-2.16-.73-3.4.15-.43.3-.85.44-1.28-.02-.35.05-.7.15-1.05.2-.67.43-1.33.7-1.97.2-.53.55-1.06,1.11-1.25.08-.29.17-.59.25-.88-.01-3.46-.17-6.93-.02-10.39-1.14.24-2.27.49-3.41.73-.29.06-.59.12-.88.19-.17.14-.44.16-.6-.02-.14-.13-.18-.37-.07-.53.14-.21.38-.26.61-.32,1.46-.35,2.93-.69,4.4-1.03,0-.13.02-.26.02-.4.45-6.49,1.35-12.96,1.49-19.47ZM270.23,228.58c-1.01.19-2.01.38-3.02.58,0,.02,0,.05,0,.08,1.01-.22,2.02-.44,3.03-.65ZM355.4,235.87c5.02,4.85,1.58,10.13-3.39,13.19-2.15,1.34-4.51,2.3-6.91,3.11-11.81,3.68-24.33,3.97-36.61,4.01-5.32-.08-10.65-.19-15.97-.38,7.26,1.5,14.42,3.42,21.39,5.96,8.4,3.19,16.74,7.23,23.31,13.47,3.35,3.17,6.34,7.25,6.48,12.03.33,10.01-11.61,13.71-19.86,13.39-8.74-.23-17.16-3.17-25.14-6.54-9.45-4.05-18.34-9.2-27.04-14.66,2.34,2.17,4.65,4.36,6.9,6.62,3.75,3.69,7.16,7.71,10.7,11.61,2.33,2.63,4.63,5.29,7.01,7.87,2.65,2.9,5.5,5.69,7.46,9.13.94,1.79,1.99,3.96,1.13,5.97-.98,2.48-4.1,2.49-6.34,2.23-8.32-1.38-15.43-6.47-21.91-11.6-5.61-4.44-10.79-9.38-15.54-14.72.9,1.33,1.81,2.65,2.71,3.98,3.14,4.72,6.08,9.56,8.78,14.54,1.96,3.63,3.83,7.32,5.28,11.19,1.26,3.43,2.32,7.05,1.81,10.72-.16,1.11-.65,2.14-1.34,3.01-1.42,1.9-4.02,2.07-6.14,1.5-7.08-1.75-13.09-6.22-18.38-11.08-8.95-8.37-15.98-18.66-21.16-29.73-.15-.33-.3-.66-.45-.99.75,2.43,1.53,4.86,2.42,7.25,2.16,5.84,4.45,11.57,6.64,17.35,2.77,7.33,6.09,14.73,6.09,22.7.09,5.54-2.17,13-8.97,12.43-4.37-.62-7.79-3.79-10.59-6.99-3.86-4.64-6.57-10.12-8.76-15.72-2.05-5.17-3.51-10.55-4.48-16.01-.96-5.37-1.13-10.82-1.45-16.25-.1-1.82-.26-3.63-.44-5.44-.44,1.87-.9,3.73-1.38,5.58-1.99,7.83-4.4,15.57-7.47,23.04-2,4.93-4.39,9.71-7.15,14.26-2.84,4.62-6.18,8.98-10.4,12.42-3.07,2.49-6.93,5.18-11.07,4.09-2.59-.54-4.56-2.88-5.01-5.43-1.11-5.73.31-11.56,1.69-17.12,2.44-8.94,5.45-17.81,9.95-25.94,3.37-6.22,7.7-11.83,11.97-17.44.36-.48.71-.95,1.06-1.44-6.2,7.28-12.98,14.04-19.86,20.68-7.24,6.69-14.5,13.84-23.7,17.77-3.4,1.38-7.11,2.59-10.8,1.77-5.61-1.22-5.91-5.6-4.82-10.42,1.48-5.91,4.26-11.45,7.54-16.56,2.93-4.47,6.35-8.6,10.08-12.43-.6.44-1.19.88-1.79,1.31-5.86,4.27-11.96,8.39-18.78,10.96-3.65,1.42-7.53,2.49-11.48,2.25-3.76-.21-7.37-2-6.78-6.34.34-2.66,1.29-5.22,2.46-7.62,1.89-3.73,4.37-7.15,7.09-10.33,2.67-3.01,5.72-5.67,8.9-8.12,2.63-2,5.41-3.81,8.27-5.49-.41.15-.82.31-1.23.46-7.47,2.7-15.24,5.1-23.25,5.17-2.61-.04-5.36-.25-7.68-1.53-2.81-1.5-4.19-4.86-2.33-7.66,4.05-6.09,15.55-10.49,22.3-13.2,2.77-1.03,5.58-1.97,8.41-2.84-5.7.71-11.45.98-17.18,1.09-5.12.01-10.27-.61-15.14-2.22-5.22-1.64-9.86-5.09-6.24-10.86,3.9-5.88,12.59-9.38,19.18-11.24,5.26-1.41,10.64-2.4,16.06-2.9.33-.03.66-.05.99-.08-2.71-.25-5.42-.54-8.12-.87-3.24-.37-6.45-.93-9.59-1.82-3.55-1.04-7.02-2.36-10.41-3.85-2.59-1.19-5.19-2.44-7.5-4.14-2.5-1.8-4.53-5.01-3.35-8.14,1.25-3.14,4.84-5.25,7.77-6.64,9.63-4.26,20.46-4.39,30.78-3.45,1.34.11,2.66.22,3.98.36-2.02-.48-4.03-.99-6.01-1.56-9.29-2.6-18.29-6.3-26.47-11.42-3.38-2.24-7.1-4.47-9.14-8.1-2.32-4.4-.46-8.95,4.04-10.88,2.25-1,4.79-1.08,7.19-.78,4.94.56,9.63,2.33,14.19,4.25,3.96,1.69,7.97,3.59,11.68,5.73,4.05,2.27,7.95,4.78,11.94,7.17-3.04-2.65-6.04-5.35-8.91-8.18-5.25-5.26-10.3-10.87-14.02-17.35-1.82-3.23-3.47-6.67-4.12-10.35-.81-4.73,1.39-8.48,6.6-7.7,6.98.98,13.36,6.16,18.5,10.72,6.77,6.22,12.55,13.43,17.8,20.95-6.96-13.91-13.08-28.59-14.75-44.18-.43-3.95-.78-7.91-.76-11.88,0-3.48.47-8.65,4.33-9.92,4.79-1.16,9.99,7.23,12.3,10.67,4.76,7.42,8.79,15.29,12.41,23.32,1.32,3.09,2.56,6.21,3.71,9.36-.79-5.42-1.4-10.87-1.76-16.34-.41-6.4-1.07-12.85-.39-19.25.37-4,2.19-9.29,6.92-9.47,4.15-.02,7.3,2.98,9.19,6.43,1.85,3.21,2.75,6.86,3.49,10.46,1.48,6.79,1.8,13.75,2,20.68.2,5.22.32,10.43.52,15.65.08,1.6.22,3.2.34,4.8.02-2.05.07-4.1.19-6.15.69-11.07,2.21-22.24,6.3-32.61,2.35-5.93,5.43-11.54,8.75-16.97,2.29-3.63,5.69-7.55,10.37-7.37,2.23.08,4.24,1.63,5.1,3.66,1.24,3.2.94,6.76.69,10.12-.42,4.21-1.36,8.35-2.25,12.48-.75,3.38-1.48,6.76-2.34,10.12-.85,3.39-1.88,6.72-2.93,10.05.75-1.71,1.54-3.4,2.37-5.07,2.95-5.47,6.45-10.64,10.42-15.41,3.48-4.25,7.48-8.03,12-11.13,3.84-2.61,12.3-6.47,16.58-3.56,3.5,2.15,3.21,6.81,2.75,10.37-.68,4.81-2.55,9.52-4.74,13.78.02-.04.04-.07.06-.11.02-.04.04-.09.06-.13-3.37,6.61-7.47,12.79-11.78,18.83,1.38-1.61,2.82-3.18,4.32-4.68,4.48-4.38,9.34-8.38,14.47-11.97,6.7-4.56,16.2-10.81,24.45-10.96,3.34-.04,5.88,2.09,6.04,5.49.14,3.79-1.8,7.25-3.53,10.49-4.34,8.17-10.22,15.39-16.54,22.11-.42.44-.84.88-1.26,1.31,4.9-3.46,10.02-6.61,15.3-9.44,8.08-4.3,16.76-8.03,26-8.58,2.56-.1,5.49.04,7.4,1.97,1.56,1.62,2.17,3.95,2.14,6.15-.15,3.48-1.72,6.71-3.33,9.74-4.01,7.44-10.16,13.46-16.44,19.01-3.11,2.7-6.36,5.21-9.7,7.6,4.52-1.44,9.16-2.46,13.89-2.87,4.16-.4,8.39-.39,12.53.21,4.12.78,8.39,2.35,11.12,5.68,1.25,1.49,1.74,3.46,1.95,5.36.07.95-.06,1.91-.24,2.85-.24,1.25-.57,2.49-1.19,3.61-1.21,2.2-2.91,4.07-4.72,5.79-2.15,2.03-4.46,3.89-7,5.41-7.99,4.87-16.98,7.79-26.01,10.07-6.81,1.71-13.68,3.15-20.56,4.5,7.77-1.35,15.6-2.31,23.49-2.64,10.09-.42,20.24.5,30.1,2.68,4.66,1.02,9.29,2.31,13.67,4.23,2.87,1.28,5.72,2.76,8.03,4.93Z"/>
    <path class="cls-4" d="M193.04,289.67c-1.6-1.54-3.08-3.2-4.6-4.81-.99-.89-1.96-1.79-2.93-2.69-1.05-.98-2.08-1.98-3.08-3-.5-.55-1.35-1.23-.98-2.06-1-.95-2.01-1.89-2.99-2.87-1.05-.8-2.13-1.57-3.23-2.27-.35.22-.67-.24-.91-.45-.13-.14-.13-.33,0-.47.4-.39,1.05.25,1.44.43-.11-.14-.21-.28-.3-.43-.31-.51.28-1.03.78-.88.43.13.75.49,1.11.75.04-.03.08-.06.12-.09,0,0,0,0,0,0-.4-.67.33-1.53,1.05-1.2.64.28,1.1.84,1.6,1.31.89.87,1.76,1.77,2.59,2.7.48.55.94,1.09,1.46,1.59.55.63,1.37,1.18,1.55,2.04.55.66,1.07,1.35,1.58,2.04.35.55,1.02,1.08.9,1.79.47.59.94,1.18,1.41,1.77.39.56.97,1.05,1.16,1.71,1.16,1.29,2.4,2.5,3.63,3.72.88.92-.45,2.25-1.37,1.37Z"/>
    <path class="cls-4" d="M230.85,293.48c-.71-.21-.67-1.29-.27-1.76-2.83-.49-.11-4.81.59-6.27-2.72,1.57-5.19,3.54-7.73,5.39-.94.74-2.09-.74-1.14-1.47,2.05-1.36,8.12-6.77,10.3-5.98,1.42-1.72,3.35-3.18,5.65-3.28.96-.13,1.17,1.36.2,1.48-2.09.07-3.8,1.47-5.04,3.04-.02.99-.34,1.95-.32,2.94,1.91-1.51,3.66-3.22,5.3-5.03.81-.61,1.68-2.57,2.86-1.9.33.25.4.69.22,1.04,2.45-.41.43,2.37-.32,3.12,0,0,0,0,.01-.01,0,0,0,0,.04-.05-1.27,1.48-8.75,9.43-10.36,8.72ZM230.72,290.46c.68-.09,1.2-.5,1.57-1.06-.52-.21-.83-.74-.92-1.27-.29.69-.63,1.39-.72,2.14h0s0,.11.02.16c0,0,0,.01,0,.02.02,0,.04,0,.06,0Z"/>
  </g>
  <g id="Vector_layer-6" data-name="Vector layer">
    <path class="cls-6" d="M160.18,303.73c-.75-1.47,4.91-7,5.94-8.52,3.54-4.53,7.1-9.11,11.59-12.75.45-.35.9-.69,1.33-1.06,2.41-1.96,5.57,1.43,3.44,3.69-1.96,2.09-4.24,3.83-6.32,5.79-3.62,3.49-7.05,7.17-10.94,10.38-1.06.68-3.99,4.15-5.03,2.46Z"/>
    <path class="cls-6" d="M132.94,290.31c-1.32-1.15.51-2.18,1.42-2.77,2.06-1.51,4.06-3.11,6.07-4.7,3.23-2.43,6.28-5.09,9.58-7.43,1.18-.81,2.42-1.52,3.64-2.27,2.42-1.47,4.71,2.16,2.3,3.7-4.76,3.46-9.83,6.28-14.79,9.42-2.27,1.37-4.49,2.84-6.87,4-.38.32-.95.34-1.35.05Z"/>
    <path class="cls-6" d="M130.46,262.11c-1.23-1.03,1.08-1.92,1.8-2.34.78-.4,1.55-.82,2.32-1.23,1.9-1.03,3.77-2.14,5.75-3.01,3.7-1.57,7.49-2.92,11.24-4.38,1.78-.7,3.66-1.08,5.49-1.59,1.23-.4,2.65.34,3.02,1.59.46,1.49-.56,2.82-2,3.17-1.13.44-2.24.94-3.36,1.39-5.73,2.22-11.73,3.58-17.62,5.3-1.43.38-5.41,1.64-6.63,1.11Z"/>
    <path class="cls-6" d="M127.24,236.19c-.79-.04-1.98-.14-2.17-1.08-.07-.32.1-.66.37-.83.75-.26,1.6-.24,2.37-.48,7.39-2.1,14.93-3.65,22.49-5.01.93-.2,1.89-.26,2.84-.26,3.11-.07,3.62,4.44.54,5.03-3.01.76-6.13.83-9.2,1.11-5.73.61-11.47,1.48-17.23,1.52Z"/>
    <path class="cls-6" d="M157.56,212.95c-2.62.01-5.24-.1-7.84-.4-5.11-.49-10.23-1.19-15.21-2.44-2.52-.65-4.92-1.67-7.4-2.45-.69-.28-1.53-.35-2.07-.89-.26-.31-.1-.8.28-.91,1.41-.24,2.87.07,4.27.28,1.39.24,2.78.51,4.17.75,5.01.65,10.04,1.17,15.09,1.53,2.95.15,5.88.45,8.83.65,2.4.25,2.33,3.77-.1,3.9Z"/>
    <path class="cls-6" d="M159.4,193.57c-4.4-.88-8.6-2.53-12.65-4.44-3.88-1.83-7.85-3.5-11.64-5.52-2.85-1.53-5.73-3.02-8.62-4.5-.95-.49-1.93-.91-2.85-1.47-.3-.15-.63-.43-.39-.79.31-.4.72,0,1.06.13,1.97.76,3.95,1.49,5.91,2.3,4.05,1.61,8.01,3.41,12.1,4.9,4.69,1.78,9.57,4.07,14.29,5.4,1.15.33,2.28.7,3.44.99,1.96.53,1.33,3.37-.67,3Z"/>
    <path class="cls-6" d="M164.28,180.83c-4.43-1.72-7.82-5.21-11.31-8.31-4-3.78-7.72-7.84-11.2-12.1-.58-.68-1.16-1.37-1.69-2.09-.14-.19-.13-.46.06-.61.18-.14.47-.13.61.06.85,1.12,2.01,1.95,3.04,2.9.85.76,1.69,1.53,2.55,2.28,5.37,4.57,10.51,9.42,16.39,13.28.94.57,1.88,1.13,2.87,1.6,1.77.95.59,3.65-1.32,2.98Z"/>
    <path class="cls-6" d="M193.69,314.85c1.41-4.87,4.1-9.4,6.03-14.11,2.61-5.68,4.45-11.73,7.83-17.03,1.04-1.8,4.01-1.3,4.41.74.34,1.88-3.06,6.64-3.85,8.84-2.23,4.67-4.64,9.25-7.33,13.67-1.31,2.24-2.62,4.49-4.02,6.67-.55,1.07-2.36,3.4-3.08,1.22Z"/>
    <path class="cls-6" d="M226.4,321.22c-1.04-6.05-3.01-11.85-4.5-17.79-1.27-5.43-2.21-10.92-2.84-16.45-.28-3.01,4.33-3.49,4.65-.44,1.22,6.88,1.71,13.86,3.11,20.71.92,3.78,1.41,7.63,1.69,11.51-.09,1.2.87,3.34-.85,3.66-.67.06-1.3-.5-1.26-1.19Z"/>
    <path class="cls-6" d="M252.72,310.49c-6.77-8.38-12.58-17.48-17.94-26.82-1.36-2.43,2.51-4.55,3.81-2.05,4.03,6.92,7.46,14.17,11.68,20.98,1.07,1.69,2.23,3.32,3.36,4.98.51.98,2.02,2.31.8,3.3-.56.4-1.37.22-1.7-.39Z"/>
    <path class="cls-6" d="M279.49,302.28c-7.81-5.68-13.82-13.42-19.21-21.33-.62-.9-.44-2.15.45-2.8.88-.63,2.17-.44,2.79.45,3.32,4.52,6.32,9.27,9.78,13.69,2.21,2.7,4.67,5.19,7.21,7.58,1.76,1,.98,3.55-1.02,2.4Z"/>
    <path class="cls-6" d="M172.98,169.56c-2.26-1.27-3.03-5.76-4.05-8.09-.97-3.22-8.62-19.98-6.06-21.8,1.32-.26.98,1.75,1.43,2.54,1.05,3.55,2.66,7.23,4.17,10.51,1.65,3.37,3.13,6.82,4.62,10.27.64,1.35,1.31,2.68,2.05,3.97.82,1.36-.67,3.14-2.15,2.61Z"/>
    <path class="cls-6" d="M187.63,165.82c-.93-2.52-1.37-5.19-1.49-7.87-.66-7.79-.57-15.6-.79-23.4-.06-1.53,2.27-1.26,1.89.23.69,6.83,1.12,13.7,2.04,20.51.37,3.03.73,6.07,1.52,9.02.2.52.29,1.09.04,1.61-.58,1.36-2.71,1.31-3.21-.11Z"/>
    <path class="cls-6" d="M210.38,162.75c-.31-.25-.55-.66-.57-1.07-.09-2.34,0-4.68.27-7.01.57-5.72,1.99-11.29,3.1-16.92.16-.84.29-1.68.43-2.51.07-.41.17-.77.47-.99.54-.38,1.2.33.76.83-.06,1.87-.24,3.73-.5,5.58-.56,4.24-1.03,8.49-1.24,12.76-.12,2.25-.12,4.5-.15,6.75-.06.79.21,1.7-.35,2.36-.53.66-1.58.76-2.22.21Z"/>
    <path class="cls-6" d="M228.05,163c-1.97-1.08.09-3.47.4-4.91,2.24-5.86,5.23-11.39,8.44-16.77,1.61-2.68,3.11-5.42,4.7-8.11.24-.4.79-.51,1.18-.27.84.57.1,1.42-.27,2.04-2.12,4.59-4.68,8.97-6.78,13.57-1.53,3.17-2.73,6.47-3.99,9.75-.9,1.46-1.3,5.61-3.68,4.69Z"/>
    <path class="cls-6" d="M252.59,167.43c-.63-.38-.85-1.29-.43-1.9,2.4-3.34,4.99-6.53,7.56-9.73,1.94-2.4,3.82-4.85,5.73-7.27.52-.57,3.09-4.21,3.77-3.15.16.22.11.54-.11.7-1.34,1.67-2.4,3.58-3.65,5.33-2.28,3.36-4.69,6.64-6.98,9.99-1.13,1.63-2.29,3.24-3.45,4.85-.58.89-1.27,1.85-2.44,1.18Z"/>
    <path class="cls-6" d="M269.82,189.07c-.56-.57-.54-1.6.07-2.12.94-.78,1.88-1.55,2.82-2.32,4.25-3.61,9-6.53,13.61-9.64,2.76-1.92,5.47-3.91,8.23-5.84.84-.53,1.61-1.26,2.58-1.52.61-.18.95.71.34.96-.07.03-.12.09-.18.13-2.77,2.35-5.5,4.91-8.31,7.16-3.4,2.84-7.04,5.38-10.54,8.09-1.12.86-2.2,1.76-3.3,2.64-1.11.89-2.23,1.76-3.34,2.66-.58.47-1.49.33-1.98-.19Z"/>
    <path class="cls-6" d="M270.45,211.94c-.21-.83.35-1.7,1.17-1.9,2.23-.62,4.46-1.25,6.7-1.82,7.41-1.8,14.87-3.75,22.47-4.51.88-.04,1.75.06,2.58.34.28.04.5.28.44.57-.04.25-.3.44-.55.39-.88-.17-1.79-.04-2.67.1-2.2.46-4.36,1.1-6.53,1.69-6.46,1.76-12.84,3.77-19.27,5.61-.94.23-1.86.61-2.81.75-.7,0-1.36-.54-1.52-1.22Z"/>
    <path class="cls-6" d="M274.52,241.44c-1.93-.02-3.86-.05-5.78-.05-2.1-.05-1.99-3.38.13-3.27,7.61-.16,15.22-.16,22.83.08,4.09.13,8.17.01,12.26-.16.5-.02,1.1-.18,1.26.43.08.35-.18.76-.56.77-4.83,1.47-9.96,1.53-14.97,1.75-5.06.13-10.11.46-15.17.44Z"/>
    <path class="cls-6" d="M296.97,272.59c-5.08-.15-9.91-2.01-14.52-4-7.39-3.13-14.83-6.25-21.42-10.9-1.75-1.1-.05-3.84,1.71-2.72,9.57,5.69,19.44,11.16,29.89,15.06,1.47.46,2.96.82,4.47,1.14.45-.08.89.28.87.75-.02.51-.54.81-.99.66Z"/>
  </g>
  <g id="Vector_layer-7" data-name="Vector layer">
    <path class="cls-15" d="M268.56,202.16c.16,3.19.09,6.39-.15,9.57-.25,4.84.1,9.69-.11,14.53-.3,4.07-.91,8.12-1.62,12.15-1.06,5.07-2.71,10.11-4.44,14.96-.32.93-.66,1.85-1.04,2.77-.41,1.15-.84,2.29-1.26,3.44-1,2.67-2.13,5.3-3.48,7.82-.79,1.58-1.84,3.03-3.13,4.24-.71.68-1.48,1.3-2.29,1.85-.94.65-1.9,1.27-2.88,1.86-.19.16-.38.33-.57.5-1.94,1.67-3.84,3.39-5.73,5.13-2.19,2.01-4.59,3.77-6.99,5.52-2.51,1.81-5.25,3.28-8.05,4.58-1.92.87-3.93,1.51-5.97,2.03-3.99,1.09-8.14,1.79-12.28,1.37-5.44-.27-9.72-2.27-14.03-5.47-3.23-2.41-5.88-5.48-8.54-8.46-2.55-2.87-5.11-5.73-7.72-8.54-.09-.06-.17-.11-.26-.17-.16-.1-.32-.19-.48-.29-1.05-.61-2.02-1.27-2.91-2-1.53-1.17-2.94-2.49-4.17-4.01-.66-.82-1.21-1.71-1.73-2.63-.17-.29-.33-.57-.5-.86-.1-.17-.16-.36-.18-.55-2.13-3.82-3.7-7.96-4.94-12.14-1.46-4.72-2.45-9.56-3.04-14.45-.47-3.12-.77-6.27-1.01-9.42-.43-4.92-.78-9.85-.92-14.79-.11-3-.18-6.02.06-9.02,0-.39,0-.78,0-1.17-.02-.63.18-2.9.67-4.14.1-.42.25-.83.51-1.19.17-.28.7-.48.81-.06-.05.3-.09.61-.12.91.07.29.06.62.1.9.06.62.1,1.24.12,1.86,1.01,1.38,1.98,2.79,2.95,4.19,1.11,1.49,2.39,2.86,3.76,4.11,2.92,2.44,6.22,4.35,9.67,5.94,1.41.75,2.9,1.31,4.46,1.65,2.66.64,5.38,1.11,8.11,1.34.93.06,1.87.07,2.79.22,3.34.63,6.45,2.15,9.36,3.88,6.18,3.78,8.8,5.3,16.16,6.14.85,0,1.95.05,2.5-.72.78-1.27,1.16-2.77,2.07-3.96.61-.85,1.57-1.27,2.32-1.93.24-.19.23-.55.38-.81.3-.7.66-1.37,1.16-1.96.69-.98,1.92-1.1,3.02-1.04.92,0,1.83-.05,2.75.04.68.07,1.37.12,2.06.08,3.67-.24,7.25-1.07,10.8-1.99,2.98-.81,6.05-1.36,8.82-2.79,1.54-.69,2.69-1.91,3.77-3.17.61-.67,1.22-1.35,1.84-2.02,1.68-1.89,3.6-3.61,5.12-5.54.31-.38.54-.83.88-1.19.4-.41.91-.52,1.37-.43-.08-1-.15-2.01-.1-3.02.08-.84-.01-1.77.39-2.52.85-.85.88,1.4,1.01,1.84.44,2.33.85,4.66.88,7.03Z"/>
  </g>
  <g id="Vector_layer-8" data-name="Vector layer">
    <path class="cls-8" d="M190.08,215.14c-.29-.53-.61-1.03-.96-1.52-.05-.07-.11-.13-.16-.2-1.43-1.65-3.1-3.07-4.7-4.54-1.97-1.67-4.2-2.99-6.35-4.4-2.93-1.91-6.12-3.35-9.27-4.85-1.98-.93-3.95-1.89-6.02-2.61-.76-.25-1.53-.46-2.29-.71.66,2.64,2.37,4.88,4.06,6.95,2.87,3.18,6.02,6.2,9.87,8.16,1.8.93,3.76,1.47,5.71,1.99,3.28,1.04,6.69,1.49,10.1,1.74ZM262.42,200.21c1.53-1.71,2.59-3.79,3.31-5.97-6.61,1.92-12.93,4.52-19.19,7.33-3.67,1.67-7.02,3.4-10.39,5.53-2.37,1.61-4.64,3.54-6.54,5.69-.11.15-.22.31-.32.46-.16.22-.31.45-.45.68,1.95.53,3.99.57,6,.63,1.85-.02,3.7-.21,5.52-.54,2.45-.6,4.87-1.4,7.17-2.43,2.83-1.56,5.54-3.37,8.13-5.31,2.4-1.86,4.69-3.88,6.78-6.08ZM268.73,191.82c.96,1.49-.57,4.69-1.19,6.21-1.47,3.39-4.24,5.9-6.95,8.3-1.34,1.19-2.74,2.33-4.2,3.38-2.04,1.45-4.04,2.75-6.21,3.97-1.55.84-3.22,1.43-4.89,1.98-3.77,1.32-7.76,2.06-11.76,1.87-1.24-.1-4.6-.12-6.12-.75-1.49,3.86-1.61,8.23-1.09,12.32.36,2.41.71,4.82,1.03,7.23.43,3.26,1.3,6.55.79,9.84-.46,3.48-3.42,6.11-6.67,3.65-.65-.46-1.23-1.03-1.81-1.58-.83-.69-2.55-3.15-3.73-2.43-2.09,1.58-2.88,5.95-6.21,5.1-1.66-.53-2.79-2-3.77-3.37-.52-.74-.99-1.51-1.57-2.21-.47-.59-1.1-.87-1.79-.47-1.59.83-2.47,2.47-3.81,3.59-1.44,1.32-3.64,1.57-5.08.12-1.85-1.86-2.23-4.65-2.38-7.16-.14-2.89-.05-5.79.08-8.68.24-3.78.64-7.55.36-11.33-.07-1.19-.25-2.39-.57-3.54-.51.36-1.19.29-1.79.24-3.49-.22-6.94-.88-10.26-1.96-2.57-.72-5.11-1.6-7.38-3.04-2.26-1.44-4.39-3.12-6.17-5.14-2.47-2.62-4.75-5.51-6.02-8.92-.4-1.07-.67-2.28-.41-3.41-.05-.06-.09-.12-.12-.18-.35-.57-.23-1.36.25-1.82.12-.43.24-.82.26-.99.36-1.33.94-2.59,1.57-3.81,1.98-3.77,4.63-7.17,7.55-10.26,1.51-1.52,3.03-3.03,4.55-4.54,4.04-3.97,8.88-7.09,14-9.5,8.43-3.6,17.71-4.82,26.83-4.37,2.33.15,4.62.58,6.89,1.13,4.25.97,8.41,2.26,12.45,3.9,6.1,2.34,11.78,5.73,17.02,9.61,1.76,1.44,3.51,2.89,5.2,4.41,2.37,2.21,4.69,4.5,7.24,6.51,1.35,1.16,2.56,2.48,3.75,3.8.36.52.88.96,1.17,1.52.39.1.73.32.98.75Z"/>
  </g>
  <g id="Vector_layer-9" data-name="Vector layer">
    <path class="cls-5" d="M210.78,276.62c-3.79.03-7.15-3.06-7.88-6.71-.17-.75-.2-1.53-.07-2.28.09-.41.16-1.41.78-1.23.32.17.33.66.46.97.25,1.12.62,2.2,1.14,3.23,1.08,2.34,3.6,4.13,6.25,3.55,2.93-.59,4.62-3.22,5.28-5.96.25-1.11-.07-2.92,1.52-2.98,1.49.03,1.38,1.76,1.28,2.84-.13,1.21-.59,2.36-1.13,3.45-.82,1.61-1.94,3.13-3.54,4.03-1.25.67-2.65,1.13-4.09,1.09Z"/>
    <path class="cls-5" d="M208.38,275.18c-.16-.09-.28-.22-.38-.37-.01-.02-.02-.04-.03-.05-.59.13-1.19-.34-1.22-.94-.79.42-1.81-.19-1.65-1.11-.9.18-1.52-.8-1.09-1.58-.23-.09-.43-.27-.54-.51-.14-.31-.08-.65.08-.94-.78-.5-.26-1.27.32-1.67.5-.35,2.05-1.9,2.56-1.12.56-.38,1.33-.43,1.52.35.46.11.73.62.59,1.07.66-.46,1.63-.23,1.68.67.45-.38,1.19-.39,1.51.15.26-.18.64-.16.9.03.1.07.17.17.23.28.39-.29.73-.83,1.26-.82.53-.46,1.24-1.57,2.03-1.15.05,0,.11,0,.17,0,.17.02.33.1.44.23,1.05-.07,1.33,1.24.51,1.78-.22.32-.4.62-.51.99-.16.3-.35.58-.53.86-.51.86-1.29,1.48-1.9,2.27-.51.62-1.6,2.04-2.33.96-.23.23-.5.42-.83.43-.34,0-.66-.19-.81-.49-.48.5-1.27,1.1-1.99.7Z"/>
  </g>
  <g id="Vector_layer-10" data-name="Vector layer">
    <path class="cls-13" d="M219,265.75c.44.77.09,1.58-.52,1.95-.33.95-1.67.87-2.65.89-.73.04-1.45.21-2.04.66-1.23.89-2.34,2.44-4.04,2.12-1.13-.16-2.04-1.23-2.78-1.93-.92-.85-1.97-1.76-3.31-1.6-.25.02-.56-.06-.71-.24-.09-.06-.15-.16-.17-.27.06-.95.47-1.87.76-2.77.59-1.56.84-3.44,2.14-4.6.77-.56,1.86-.4,2.55.23.86.73,1.35,1.85,2.27,2.44.2.06.31-.18.42-.31.4-.62.73-1.29,1.19-1.86.98-1.33,2.83-1.95,4.05-.56.87.94,1.06,2.24,1.43,3.41.3.91.9,1.67,1.42,2.46Z"/>
    <path class="cls-12" d="M210.29,270.51c-.76-.89-.2-1.78.57-2.41.56-.56,1.25-.94,1.97-1.24,1.2-.53,2.51-.58,3.79-.74-.31-.83-.73-1.6-1.08-2.41-.37-.74-.63-1.55-1.2-2.16-.31-.3-.85-.1-1.12-.45-.21-.25-.24-.56-.15-.87.77-1.7,2.61-1.02,3.57.12.74.81,1.08,1.87,1.61,2.81.54.89.79,1.85,1.11,2.76.34,1.02-.4,2.18-1.29,2.66-1.44.75-3.18.39-4.64,1.09-.57.19-.91.68-1.37,1.04-.55.39-1.33.31-1.78-.19Z"/>
  </g>
  <g id="Vector_layer-11" data-name="Vector layer">
    <path class="cls-2" d="M192.51,286.73s0,0,0,0c0,0,0,0,0,0,0,0,0,0,0,0Z"/>
    <path class="cls-2" d="M191.07,285.47s0,0,0,0c0,0,0,0,0,0,0,0,0,0,0,0Z"/>
    <path class="cls-2" d="M192.49,286.71s0,0,0,0c0,0,0,0,0,0Z"/>
    <path class="cls-2" d="M192.49,286.72s0,0,0,0c0,0,0,0,0,0,0,0,0,0,0,0Z"/>
    <path class="cls-2" d="M192.5,286.72s0,0,0,0c0,0,0,0,0,0,0,0,0,0,0,0Z"/>
    <path class="cls-2" d="M192.53,286.75l.02.02s-.01-.01-.02-.02Z"/>
    <path class="cls-2" d="M192.48,286.71s0,0,0,0c0,0,0,0,0,0Z"/>
    <path class="cls-2" d="M273.14,288.57s0,0,0,0c0,0,0,0-.01,0,0,0,0,0,0,0Z"/>
    <path class="cls-2" d="M273.14,288.57h0s0,0,0,0c0,0,0,0,0,0Z"/>
    <path class="cls-2" d="M273.17,288.57s0,0,0,0c0,0,0,0,0,0Z"/>
    <path class="cls-2" d="M273.11,288.58s0,0,.01,0c0,0,0,0,0,0,0,0,0,0,0,0,0,0,0,0-.01,0Z"/>
    <path class="cls-2" d="M273.26,288.55s-.02,0-.04,0c.01,0,.02,0,.04,0Z"/>
    <path class="cls-2" d="M273.09,288.58s0,0-.01,0c0,0,0,0,.01,0Z"/>
    <path class="cls-2" d="M194.53,289.5c-2.47,0-4.93-.32-7.38-.64-6.78-.66-13.49-1.9-20.21-2.94-4.01-.52-8.02-1.03-11.99-1.79-2.59-.54-5.05-1.51-7.53-2.42-.98-.31-2.02-.71-2.88-1.31-.22-.3-.44-.6-.65-.91.02.03.04.06.06.09-.06-.08-.11-.17-.16-.26-.03-.05-.05-.11-.07-.16-.02-.05-.03-.11-.05-.16-.01-.06-.02-.13-.03-.19,0-.11,0-.23,0-.34.01-.26.03-.51.07-.77.03-.17.07-.33.12-.5.03-.08.06-.16.09-.23.04-.07.07-.14.12-.21.04-.05.08-.11.12-.16.13-.15.28-.29.42-.43.34-.3.7-.58,1.08-.84.32-.21.65-.4.97-.61.33-.22.62-.47.9-.75.53-.53,1.01-1.09,1.43-1.7.28-.4.54-.8.78-1.22.25-.44.49-.89.7-1.35.14-.31.27-.62.38-.94,2.46-4.26,2.93-9.44,2.79-14.29-.22-7.06-1.23-14.05-1.79-21.08-.3-3.92-.57-7.84-.95-11.75-.28-2.71-.65-5.41-.82-8.14-.36-4.11-.56-8.24-.43-12.37.06-2.8.23-5.61.79-8.37,1.02-5.68,3.42-11,6.55-15.82,2.36-3.65,5.07-7.08,8.18-10.11,3-3,6.24-5.8,9.92-7.94,4.91-2.96,10.38-5.08,16.08-5.88,2.81-.35,5.67-.26,8.48.05,2.05.25,4.1.63,6.09,1.23,1.36.39,2.74,1.05,3.52,2.28.04.05.08.12.13.19.43-.74,1.07-1.35,1.85-1.74,1.2-.74,2.4-1.49,3.73-2,1.35-.54,2.77-.83,4.2-1.09,5.5-1.02,11.15-.97,16.73-.74,5.73.3,11.47,1.69,16.48,4.54,3.8,2.12,7.53,4.45,10.52,7.66,2.02,2.08,3.83,4.36,5.31,6.85,1.08,1.79,2.01,3.66,2.98,5.5.94,1.91,1.89,3.83,2.59,5.85,1.13,3.51,2.28,7.35,3.02,10.86,1.22,5.73,1.51,11.6,1.59,17.44.18,5.65-.04,11.3-.2,16.95-.1,2.9-.22,5.8-.62,8.68-.96,7.74-2.87,15.33-4.13,22.98-.82,5.33-1.54,10.83-.53,16.18.73,3.24,1.71,6.5,3.57,9.29.17.22.33.45.48.68.04.21.07.42.09.63,0,.06,0,.13,0,.19,0,.06-.01.12-.02.19-.01.06-.03.12-.05.18-.06.17-.13.33-.2.5-.07.15-.14.29-.23.43-.04.06-.09.12-.14.18-.04.04-.08.09-.13.13-.13.11-.27.21-.41.31-.27.18-.55.35-.83.51-.32.16-.64.3-.98.42-.28.09-.57.17-.86.24.02,0,.04,0,.06-.01-.02,0-.03,0-.05.01,0,0,0,0,0,0,0,0,0,0,0,0,0,0,0,0,0,0,0,0-.02,0-.02,0,0,0,0,0,0,0,0,0,0,0,0,0,0,0,0,0,0,0,0,0-.02,0-.03,0,0,0,0,0,0,0,0,0,0,0,0,0,0,0-.01,0-.02,0,0,0,0,0,0,0-.02,0-.04,0-.06.01,0,0,.01,0,.02,0-.87.19-1.76.34-2.65.43-.37.03-.73.06-1.1.07-.39.02-.78.02-1.17.02-.98,0-1.97.05-2.95.04-.49,0-.99-.03-1.48-.04-.5,0-1,0-1.51-.01-.5,0-1.01,0-1.51,0-.49,0-.98,0-1.47.01-1.01.03-2.01.08-3.01.1-.49,0-.97.01-1.46.03-.49.02-.99.04-1.48.06-.5.01-1.01.02-1.51.03-.15,0-.3,0-.45,0-.35,0-.69,0-1.04,0-.51.01-1.02.04-1.53.05-.51.01-1.03.02-1.54.03-.32,0-.64,0-.96,0-.2,0-.41,0-.62,0-.5,0-1,.02-1.5.03-.09,0-.17,0-.26,0-.06,0-.12,0-.18,0-.51-.03-1.01-.07-1.51-.1-.97-.07-1.95-.1-2.92-.17-.39-.04-.77-.09-1.16-.13-.45-.05-.9-.09-1.35-.11-.81-.05-1.62-.11-2.42-.18-.07,0-.15-.01-.22-.02.03,0,.06,0,.08,0-.38-.03-.76-.07-1.15-.07-.36,0-.71.02-1.07.03,0-.02.01-.04.02-.06.42-.27.83-.55,1.23-.83.41-.29.8-.59,1.19-.91.96-.68,1.86-1.43,2.78-2.17,2.35-1.82,4.56-3.8,6.65-5.92,2.8-2.65,5.31-5.61,7.55-8.74,3.58-5.33,6.13-11.29,8.25-17.33,1.33-3.62,2.44-7.33,3.18-11.05.12-.62.24-1.24.36-1.86.03-.11.06-.22.09-.32.21-.75.4-1.5.57-2.26.18-.76.31-1.53.43-2.3.12-.77.23-1.53.35-2.3.1-.63.2-1.27.28-1.9.98-5.41,1.83-10.84,2.32-16.32.18-3.13-.05-6.23-.35-9.28-.16-2.1-.43-4.18-.76-6.26-.26-2.35-.74-4.66-1.19-6.98-.25-1.32-.81-2.54-1.5-3.68-.05-.09-.11-.19-.16-.3-.16-.01-.34-.06-.51-.16-.18.13-.39.19-.61.2-1.74.09-3.47.22-5.21.31-1.66.09-3.32.16-4.99.1-10.41-.37-19.89-1.1-28.91-6.86-4.19-2.44-8.36-5.2-11-9.37-.43-.65-1.25-2.01-1.71-3.26-.11.46-.25.92-.42,1.36-1.33,2.82-3.71,5.02-6.2,6.83-1.41,1.03-2.93,1.85-4.49,2.61-3.21,1.68-6.58,3.04-10.04,4.12-4.12,1.24-8.29,2.29-12.58,2.66-1.82.19-3.64.32-5.45.5-2.42.25-4.86.59-7.29.32-.82-.08-1.65-.18-2.47-.25,0,0-.01,0-.02,0-.03.18-.06.35-.07.48-.1.68-.19,1.35-.26,2.03-.34,3.2-1.01,6.36-1.94,9.44-.08.31-.16.63-.24.94,0,.09-.01.17-.02.26-.11,1.16-.26,2.33-.33,3.49-.23,3.6-.15,7.21-.17,10.82.04,6.56.79,12.89,1.96,19.3.95,6.09,3.09,11.8,5.53,17.38,1,2.08,1.81,4.24,2.81,6.32,1.35,2.62,2.77,5.21,4.57,7.55,1.84,2.7,3.95,5.21,6.19,7.59.42.55.83,1.12,1.29,1.64.34.38.7.74,1.03,1.13.32.38.64.77.95,1.16.36.44.71.88,1.07,1.31.32.38.68.72,1.03,1.07.35.35.7.69,1.04,1.06.35.38.69.78,1.05,1.15.69.73,1.36,1.48,2.05,2.21.34.36.71.69,1.06,1.03.36.35.73.69,1.09,1.04,0,0,0,0,0,0,0,0,0,0,0,0t0,0s0,0,0,0c.02.02.04.04.06.05,0,0,0,0,.01.01,0,0,0,0,0,0,.22.2.44.4.66.59.23.19.45.38.67.58,0,0,0,0,0,0,0,0,0,0,0,0,0,0,0,0,0,0,0,0,0,0,0,0,0,0,0,0,0,0t0,0s0,0,0,0c0,0,0,0,0,0h0s0,0,0,0c0,0,0,0,0,0,0,0,.01.01.02.02,0,0,0,0,0,0,.2.19.4.38.6.56.19.17.39.33.58.5.08.08.16.15.25.23.35.34.68.68,1.03,1.01.17.16.35.32.55.45.05.04.1.07.16.11-.14.05-.28.07-.43.07-.24,0-.49-.06-.73-.2Z"/>
    <path class="cls-2" d="M233.29,290.7s-.05,0-.08-.01c.11,0,.22,0,.33.01-.04,0-.08,0-.13,0-.04,0-.08,0-.12,0Z"/>
    <path class="cls-2" d="M271.39,291.25s-.06,0-.09,0c.07,0,.15-.02.22-.03,0,0,0,0,0,0-.01,0-.02.02-.03.03-.03,0-.06-.01-.09-.01Z"/>
    <path class="cls-2" d="M272.17,291.32s.03,0,.05.01c-.02,0-.03,0-.05-.01Z"/>
  </g>
  <g id="Vector_layer-12" data-name="Vector layer">
    <path class="cls-10" d="M272.55,186.46c1.28.72.83,2.05-.1,2.87-.72.74-1.46,1.51-2.38,2.02-.7.38-1.61-.09-1.8-.83-.65.4-1.34.77-2,1.14-2.97,1.89-6.15,3.4-9.41,4.72-5.19,1.92-10.6,3.33-15.44,6.08-1.51.91-2.99,1.88-4.41,2.92-1.73,1.35-3.28,2.93-4.67,4.63-1.45,1.83-2.71,3.79-3.68,5.92-.23.43-.4.93-.82,1.21-.41.26-1,.26-1.36-.1-.46-.4-.44-.96-.33-1.51-.63-2.8-.02-5.71.77-8.43.98-3.44,2.28-6.84,4.28-9.83,2.08-3.03,4.76-5.73,8.01-7.48,6.51-3.25,13.93-4.58,21.17-4.43,2.44.09,4.88.24,7.32.43.72.06,1.43.15,2.14.24.9.13,1.85.12,2.71.43Z"/>
  </g>
  <g id="Vector_layer-13" data-name="Vector layer">
    <path class="cls-10" d="M192.95,207.07c.11,1.79.1,3.59.05,5.38,0,1.31-.37,4.99-1.66,5.5-.36.12-.72-.19-.74-.56.08-.68.28-1.34.31-2.03.02-.43.02-.87,0-1.31-.22-.01-.43-.08-.61-.21-.69-.47-.99-1.26-1.38-1.96-.54-1.12-1.04-1.93-1.73-2.89-.87-1.42-2.09-2.55-3.44-3.52-.86-.63-1.71-1.26-2.63-1.8-1.33-.72-2.75-1.27-4.12-1.92-1.41-.7-2.82-1.42-4.24-2.1-1.07-.54-2.12-1.12-3.2-1.64-1.94-.97-4.02-1.73-6.04-2.47-1.41-.55-2.78-1.16-4.17-1.76-.74-.35-1.53-.66-2.26-1.06.79,1.14-.69,2.42-1.72,1.47-1.95-1.68-2.72-4.26-4.01-6.41-.73-1.17-2.76-3.18-1.51-4.5.57-.61,1.42-.43,2.14-.24.53.13,1.07.25,1.6.36,3.58.65,7.23.89,10.79,1.71,2.12.44,4.09.81,6.15,1.4,3.62.99,7.28,1.87,10.79,3.24,1.75.63,3.36,1.56,4.91,2.58,2.34,1.59,4.45,3.7,5.37,6.44.94,2.66,1.15,5.51,1.33,8.31Z"/>
  </g>
  <g id="Vector_layer-14" data-name="Vector layer">
    <path class="cls-9" d="M268.38,189.76c1.05-.59,2.41.22,2.26,1.46-.1.65-.44,1.23-.72,1.82-.63,1.51-1.01,3.12-1.72,4.61-1.44,3.1-3.46,5.92-5.8,8.4-2.42,2.48-5.32,4.48-8.33,6.19-3.18,1.88-6.63,3.25-10.18,4.28-4.88,1.46-10.03,2.81-15.16,2.05-.59-.14-1.23-.24-1.7-.65-.64-.59-.64-1.68,0-2.28.65-3.31,3.01-6,5.31-8.34,2.56-2.61,5.66-4.61,8.9-6.27,2.5-1.39,5.15-2.46,7.8-3.51,1.68-.68,3.33-1.42,5.03-2.03,3.53-1.3,7.29-2.49,10.71-3.84,1.25-.53,2.39-1.26,3.59-1.88Z"/>
    <path class="cls-10" d="M271.75,187.99c.23.09.4.39.24.61-.04.06-.09.11-.14.16.54.23.65.76-.09,1.23-2.19,1.11-4.65,1.27-6.93,2.04-3.65,1.11-7.36,2.01-11.09,2.85-.96.21-1.91.48-2.86.74-.72.15-1.77.51-2.07-.44-.25-.9.71-1.2,1.37-1.47,1.21-.46,2.46-.82,3.72-1.1,2.61-.7,5.23-1.33,7.84-2.02,1.06-.3,2.12-.61,3.19-.89-.11-.49.05-1.05.56-1.33.42-.24.93-.24,1.4-.34.78-.13,1.57-.21,2.37-.23.47,0,.99-.14,1.41.14.36,0,.74-.12,1.09.06Z"/>
  </g>
  <g id="Vector_layer-15" data-name="Vector layer">
    <path class="cls-9" d="M164.25,194.11s-.06-.02-.09-.03c.03,0,.06.02.09.03,0,0,0,0,0,0Z"/>
    <path class="cls-9" d="M168,195.37s-.02,0-.03-.01c0,0,0,0,0,0,.02,0,.04.01.06.02,0,0-.01,0-.02,0Z"/>
    <path class="cls-9" d="M168.01,195.37s.03,0,.04.01c-.01,0-.03,0-.04-.01Z"/>
    <path class="cls-9" d="M168.08,195.39s0,0,0,0c0,0,0,0,0,0Z"/>
    <path class="cls-9" d="M187.29,219.11c-4.24-.22-8.51-.73-12.48-2.32-1.9-.73-3.81-1.5-5.47-2.69-3.9-2.94-7.44-6.46-9.89-10.72-.95-1.64-1.96-3.25-2.87-4.91-.77-1.41-1.3-2.93-1.86-4.43-.13-.42-.33-.83-.45-1.26.01,0,.03,0,.04-.01,0,0,.02,0,.02,0,0,0,0,0-.02,0,0,0,.01,0,.02,0,.05,0,.09-.02.13-.03.11-.04.22-.08.31-.14,0,0,.01,0,.02,0,.08.02.16.03.25.04.33.04.66.03.99.05-.05,0-.1,0-.16,0,.34.02.69.02,1.03.04.54.03,1.09.09,1.63.19-.05,0-.1-.02-.15-.03.37.07.75.14,1.12.21.78.14,1.56.3,2.34.45.81.15,1.62.35,2.41.6,0,0,0,0,0,0,0,0,0,0,0,0,.01,0,.02,0,.03.01.54.18,1.07.37,1.6.56.58.21,1.17.38,1.76.57.11.03.21.07.32.1.01,0,.02,0,.03.01.03,0,.06.02.09.03,0,0,0,0,0,0,.27.09.55.18.83.26.27.09.55.18.82.26,1.62.64,3.23,1.31,4.81,2.06,2.52,1.11,5,2.31,7.35,3.75,3.73,2.15,7.12,5.04,8.86,9.06.72,1.74,1.19,3.59,1.29,5.47.06.6.15,1.36-.36,1.8-.33.9-1.14,1.1-2,.98-.46.09-.93.13-1.39.13-.33,0-.66-.02-.99-.06Z"/>
  </g>
  <g id="Vector_layer-16" data-name="Vector layer">
    <path d="M179.82,215.76c-1.45-.16-2.39-1.53-2.8-2.8-.3-1.14-.19-2.36.06-3.49.45-1.79,2.12-3.07,3.93-2.09,1.29.75,1.94,2.27,2.05,3.7.3,2.04-.71,4.98-3.23,4.68Z"/>
  </g>
  <g id="Vector_layer-17" data-name="Vector layer">
    <path d="M243.34,214.73c-2.69-.94-2.82-4.27-2.18-6.63,1.29-4.2,5.7-2.48,5.96,1.29.09,1.25-.2,2.56-.91,3.6-.42,1.15-1.62,2.15-2.87,1.74Z"/>
  </g>
  <g id="Vector_layer-18" data-name="Vector layer">
    <path class="cls-7" d="M129.9,345.57c-4.6-1.84-6.44-4.89-9.57-8.41-3.4-3.88-7.74-7.16-13.07-7.43-2.49-.11-4.92.49-7.31,1.11-5.6,1.32-11.58,1.98-17.22.56-2.55-.67-4.95-1.85-7.17-3.25-4.23-2.85-9.57-6.42-10.35-11.85-.12-.6.08-1.58.87-1.43.33.07.55.37.75.61.28.34.55.69.83,1.04.95,1.15,1.92,2.28,3.02,3.29,4.61,4.32,10.33,8.09,16.84,8.26,3.53.16,7.07-.3,10.52-1.04,3.63-.88,7.35-1.95,11.11-1.37,6.93.87,11.92,5.5,16.26,10.62,1.88,2.28,3.6,4.71,5.82,6.68,1.67,1.01.5,3.45-1.32,2.61Z"/>
    <path class="cls-7" d="M136.3,338.57c-1.89-.36-3.63-1.17-5.37-1.96-2.19-.98-4.42-1.83-6.71-2.54-2.04-.7-3.97-1.69-6.02-2.37-.4-.12-.8-.24-1.2-.37-.27-.09-.57-.2-.7-.44-.36-.66.59-.87,1.06-.98,3.66-.82,8.68.63,12.2,1.82,2.75,1.02,5.4,2.3,7.93,3.78,1.67.92.67,3.52-1.19,3.06Z"/>
    <path class="cls-7" d="M136.02,337.14c-2.81-.64-5.45-1.62-8.12-2.61-2.76-.92-5.48-1.96-8.2-2.98-1.3-.51-2.58-1.08-3.88-1.59-1.31-.53-2.57-1.23-3.97-1.5-1.23-.21-2.47-.08-3.7,0-1.4.05-2.79.19-4.18.39-5.6.67-11.12,2.27-16.8,1.92-5.78-.28-12.37-3.79-16.72-7.5-1.76-1.51-5.94-5.08-5.78-7.46.19-1.93,2.78-2.68,3.94-1.12,1.43,2.2,3.35,3.99,5.33,5.68,2.03,1.69,4.35,3,6.73,4.14,1.13.54,2.31.94,3.52,1.26,4.1,1.18,8.45.28,12.56-.42,3.92-.66,7.86-1.2,11.82-1.48,2.27-.22,4.59-.03,6.69.89,1.85.8,3.71,1.56,5.57,2.34,3.24,1.29,6.59,2.37,9.64,4.09,1.27.73,2.46,1.6,3.66,2.44.87.69,1.85,1.3,2.55,2.18.57.66.43,1.52-.66,1.34Z"/>
    <path class="cls-7" d="M135.23,337.82c-.4-.32-.62-.78-1.03-1.09-1.31-.98-2.74-1.79-4.17-2.57-3.13-1.77-6.38-3.32-9.76-4.57-1.69-.59-3.33-1.32-5-1.94-1.13-.33-2.28-.61-3.43-.84-.62-.19-1.42-.29-1.95-.63-1.92-1.11,1.07-1.82,1.94-1.82,1.78-.19,3.52.34,5.2.85,1.67.58,3.34,1.14,4.93,1.92,3.28,1.44,6.68,2.63,9.76,4.49,1.98,1.2,4.1,2.25,5.82,3.81,1.16,1.55-.73,3.5-2.32,2.38Z"/>
  </g>
  <g id="Vector_layer-19" data-name="Vector layer">
    <path class="cls-7" d="M301.58,344.91c-.96-1.24-.22-2.24.79-3.1,1.73-1.76,3.5-3.47,5.31-5.15,2.81-2.46,5.76-4.91,9.26-6.32,3.44-1.3,7.16-1.77,10.82-1.9,3.23-.14,6.47.01,9.68-.36,4.34-.65,8.33-2.32,11.83-4.93,2.18-1.45,4.24-3.06,6.08-4.92,2.59-2.48,4.23-5.7,6.53-8.42.36-.41.72-.9,1.25-1.07.17-.12.4-.15.6-.01.21.14.3.41.21.64-.08.85-.44,1.65-.68,2.46-1.24,3.45-3.11,6.73-5.68,9.37-1.68,1.86-3.63,3.46-5.71,4.85-2.06,1.45-4.17,2.86-6.49,3.86-2.3.95-4.71,1.65-7.17,2.05-4.67.63-9.41.05-14.08.68-1.98.31-3.96.69-5.83,1.42-4.64,1.97-8.15,5.73-11.84,9.02-.79.67-1.6,1.32-2.39,1.99-.73.63-1.86.56-2.5-.17Z"/>
    <path class="cls-7" d="M309.46,351.64c-.64-.43-.89-1.39-.42-2.04.35-.5.7-1,1.09-1.46.99-1.21,2.01-2.38,2.97-3.61,1.67-2.35,3.23-4.77,4.89-7.13,1.54-2.12,2.8-4.47,4.65-6.34.14-.24.44-.34.68-.18.22.15.29.49.1.69-.01.03-.02.06-.03.07-.65,1.74-1.34,3.43-2.08,5.1-1.22,2.39-2.61,4.59-4.02,6.86-.98,1.59-2.01,3.14-3.19,4.59-.82,1.04-1.63,2.1-2.43,2.9-.56.69-1.4,1.1-2.22.56Z"/>
    <path class="cls-7" d="M309.94,350.93c-.51-.37-.18-1.06.02-1.51.69-1.55,1.44-3.08,2.29-4.55,2.29-3.93,4.62-7.91,7.84-11.16,1.14-1.21,2.36-2.37,3.86-3.13,1.39-.8,2.92-1.36,4.49-1.71,1.51-.37,3.08-.28,4.62-.39,1.47-.17,2.95-.17,4.42-.31,1.31-.2,2.61-.5,3.89-.85,4.61-1.15,8.88-3.43,12.61-6.36,2.15-1.79,4.19-3.74,6.08-5.81,1.14-1.34,2.28-2.69,3.22-4.17.15-.29.3-.59.39-.9.21-.68.94-1.1,1.63-.97,2.05.55,1,3.24.18,4.46-1.26,2.23-2.79,4.28-4.55,6.13-2.47,2.7-5.12,5.31-8.3,7.15-2.07,1.22-4.18,2.38-6.43,3.27-2.27.93-4.66,1.56-7.06,2.06-2.21.43-4.48.37-6.72.47-2.64-.23-5.27.61-7.4,2.17-1.88,1.57-3.38,3.54-4.92,5.43-2.24,2.88-4.47,5.76-6.97,8.42-.48.52-.98,1.02-1.5,1.5-.46.37-1.02,1.1-1.66.76Z"/>
    <path class="cls-7" d="M308.88,350.78c-.41-1.5,1.18-4.6,1.86-6.03.56-1.03,1.11-2.07,1.69-3.1,1.02-1.85,2.42-3.44,3.81-5.02.79-1.06,1.62-2.08,2.5-3.07.94-1.39,2.6-2.7,4.15-1.3,1.86,1.98-.63,3.64-1.71,5.23-1.57,2.23-3.53,4.16-5.03,6.44-.87,1.4-1.8,2.77-2.8,4.09-.81,1.02-3.18,4.87-4.47,2.76Z"/>
  </g>
  <g id="Vector_layer-20" data-name="Vector layer">
    <path class="cls-5" d="M315.99,341.49c-.29-.23-.32-.65-.1-.94.34-.45.66-.91,1-1.37,1.12-1.54,2.31-3.03,3.54-4.49.66-.84,1.37-1.65,2.26-2.26,1.33-.88,2.85-1.51,4.37-1.94,1.81-.42,3.7-.47,5.54-.52,2.55-.2,5.09-.59,7.59-1.15,1.76-.39,3.53-.82,5.19-1.55.51-.21,1.03-.36,1.57-.48.76-.32,1.46-.74,2.19-1.12,3.79-1.97,6.92-4.97,9.83-8.03.78-.84,1.32-1.85,1.89-2.83.75-1.24,1.51-2.37,2.38-3.5.02-.1.12-.18.24-.17.53.1-.24,1.36-.34,1.64-.73,1.42-1.37,2.88-2.18,4.26-.53.9-1.22,1.7-1.93,2.47-1.18,1.26-2.49,2.59-3.8,3.7-1.12.92-2.24,1.85-3.44,2.66-1.11.7-2.27,1.31-3.43,1.93-.56.34-1.18.5-1.81.67-3.04,1.24-6.17,2.03-9.41,2.48-2.05.26-4.12.6-6.19.61-1.34.1-2.7.19-3.99.58-1.09.39-2.15.88-3.14,1.49-1.37.88-2.27,2.27-3.31,3.49-.59.7-1.14,1.42-1.72,2.12-.61.73-1.24,1.43-1.85,2.15-.23.28-.65.33-.94.1Z"/>
  </g>
  <g id="Vector_layer-21" data-name="Vector layer">
    <path class="cls-5" d="M125.13,339.84c-2.48-1.94-4.85-4.03-7.14-6.19-1.24-1.13-2.44-1.88-3.8-2.74-2.23-1.38-4.7-2.48-7.34-2.7-1.46-.12-2.9.19-4.34.41-1.86.3-3.64.6-5.38.94.02,0,.05,0,.07-.01-5.26,1.01-10.82.63-15.93-.97-3.44-1.18-6.62-3.11-9.36-5.49-.91-.77-1.67-1.7-2.48-2.58-.62-.68-1.28-1.32-1.83-2.06-.39-.51-.76-1.05-1.15-1.57-.14-.19-.41-.42-.27-.68.49-.87,2.34,1.53,2.83,1.86,6.64,5.9,10.72,9.47,20,10.04,1.91.13,3.8.11,5.69-.07,1.58-.18,2.94-.5,4.47-.77,2.64-.38,5.22-1.2,7.9-1,5.1.43,10.03,3.87,13.64,7.32,1.8,1.66,3.57,3.36,5.36,5.02.76.63-.13,1.84-.96,1.21Z"/>
  </g>
  <g id="Vector_layer_Vector_layer" data-name="Vector layer + Vector layer">
    <g class="cls-16">
      <path class="cls-11" d="M410.28,254.25s-.02.06-.03.09c.01-.03.02-.06.03-.09Z"/>
      <path class="cls-11" d="M409.9,255.23s-.03.09-.05.13c.02-.04.03-.09.05-.13Z"/>
      <path class="cls-11" d="M63.62,317.79c-5.23-2.01-8.31-6.99-11.45-11.33-1.68-2.43-3.08-5.11-5.46-6.96-3.03-2.7-7-3.77-10.84-4.75-7.35-2.27-9.83-6.36-9.61-13.93.27-3.75,1.87-7.25,2.46-10.95.2-1.49.33-3,.47-4.5-.52-2.81-1.33-5.58-2.23-8.29-5.1-13.24-12.89-25.43-16.1-39.37-2.71-9.75-2.29-19.92-.59-29.8,1.17-9.87,5.98-19.1,11.91-26.95,3.8-4.52,7.98-8.78,12.79-12.23,3.28-2.34,6.74-4.41,10.08-6.66,6.54-4.59,13.65-8.25,20.52-12.3,5.53-3.22,10.52-6.98,14.86-11.66,2.8-2.84,5.46-5.81,7.9-8.94,1.37-2.27,2.68-4.58,3.9-6.94,5.12-10.63,7.26-22.3,12.06-33.03,2.52-5.53,5.04-11.15,8.78-15.98,7.17-8.97,17.21-15.63,28.2-18.9,14.27-3.53,32.22-4.82,45.49,2.46,6.22,3.82,10.56,10.04,16.67,14.03,7.34,4.16,16.38,4.6,24.69,4.87,2.6-1.07,5.2-2.13,7.78-3.25,12.08-5.04,24.33-9.64,36.61-14.17,5.75-1.9,11.76-3.08,17.77-3.75,2.39-.07,4.79.03,7.18.13,1.84.08,3.68.15,5.51.15,6.61.16,13.71,1.54,19.89,3.5,6.56,1.68,12.79,4.4,18.63,7.81,13.19,6.62,20.91,19.75,25.32,33.36,1.61,5.5,3.46,10.95,4.74,16.54.86,5.7.59,11.55.13,17.27-1.58,9.35-4.36,19.13-1.61,28.52,1.83,5.8,5.13,11.1,9.19,15.6,3,3.17,6.89,5.26,10.37,7.85,5.37,3.88,11.31,7.12,15.75,12.14,8.55,9.57,11.78,22.88,12.52,35.42.97,11.04-.73,22.04-4.03,32.55-.17.41-.35.82-.5,1.24-.1.27-.18.54-.27.81-.26.63-.56,1.24-.84,1.86-.27.6-.54,1.2-.79,1.81-.47,1.11-.84,2.26-1.26,3.39-.13.33-.25.66-.38.99-.01.03-.03.07-.04.1,0,0,0,0,0,0,0,0,0,0,0,0-.02.05-.04.09-.05.14l.05-.14h0c-.03.09-.07.17-.1.26-.26.62-.58,1.21-.82,1.84-.19.47-.35.94-.45,1.43-.02.11-.04.23-.06.34,0,0,0,.01,0,.02-.33.63-.59,1.32-.75,2.01-.09.39-.13.8-.18,1.2-.08.58-.14,1.18-.05,1.77.08.5.22.96.41,1.42.18.42.41.82.6,1.23.06.14.11.28.17.43.08.21.18.42.27.62.13.3.21.62.34.92.1.24.2.47.32.7.09.16.19.32.28.48,2.72,6.57,3.6,10.66-.54,17.02-3.59,5.38-10.52,5.77-16.38,5.78-3.93.31-6.81,3.14-9.01,6.17-4.77,6.08-10.61,13.29-18.92,13.76-4.67-.25-6.5-4.91-5.22-8.97,1.34-5.27,5.32-9.35,7.55-14.23.08-.18.15-.35.21-.53.16-.27.31-.54.46-.82.16-.3.31-.61.42-.93.07-.18.13-.37.2-.54.17-.4.25-.83.32-1.25.06-.27.13-.55.16-.83.03-.31.04-.62.05-.94.02-.46.02-.91.03-1.37.03-.87.05-1.75.03-2.62-.01-.7-.05-1.4-.12-2.09-.09-.85-.22-1.7-.28-2.55,0,.05,0,.1,0,.14-.09-1.3-.29-2.56-.57-3.83-.07-.33-.14-.66-.22-.98-.09-.32-.18-.64-.27-.96-.37-7.45,1.7-15.13,9.51-17.77,1.55-.56,3.18-.51,4.81-.45,1.71.06,3.4.11,4.98-.54.82-1.51,1.69-3.01,2.17-4.64,3.24-9.19,6.46-18.57,7.2-28.34.42-11.3-5.89-16.53-14.47-22.34-13.25-7.71-25.83-17.75-33.37-31.34-2.91-4.97-4.13-10.7-4.15-16.42-.03-4.79-.4-9.74,1.11-14.36,2.03-6.4,4.59-12.73,5.29-19.45.99-7.96.33-16.47-3.21-23.76-6.04-11.49-16.55-22.65-28.88-27.18-11.66-3.5-23.9-6.54-36.14-4.83-3.99.38-8,1.14-11.57,3.04-6.87,3.63-13.48,7.79-20.59,10.96-12.51,5.44-26.35,7.88-39.95,6.4-7.59-.79-14.43-3.68-21.13-7-.76-.28-1.52-.57-2.27-.86-5.6-2.18-10.93-5.06-16.69-6.82-6.36-2.19-12.32-1.42-18.51.86-3.88,1.4-7.82,2.76-11.37,4.88-.29.49-.76.91-1.31,1.16-10.84,6.23-11.5,19.53-14.55,30.35-1.38,5.72-3.82,11.07-6.66,16.19-4.4,8.73-10.17,16.85-17.41,23.46-7.61,7.18-17.86,9.88-27.04,14.35-12.6,6.02-21.71,17.84-27.12,30.43-5.26,17.31-4.53,39.42-.17,56.89,1.17,4.35,2.68,8.61,4.66,12.65.03.07.06.14.1.22.37.29.74.57,1.14.83,2.13,1.52,4.69,1.95,7.11,2.75,4.85,1.74,9.51,5.38,10.48,10.7.48,3.78.2,7.7-.82,11.37-.82,3.51-3.03,7.01-2.16,10.7,1.25,4.27,3.51,8.24,4.13,12.69.35,3.83.63,8.34-1.46,11.73-.98,1.26-2.5,2.04-4.05,2.04-.58,0-1.17-.11-1.73-.34Z"/>
      <path class="cls-11" d="M355.13,172.53c-1.06-.92-2.17-1.78-3.1-2.84-.83-.95-1.54-1.98-2.22-3.04-2.4-3.98-4.31-8.3-5.52-12.79-.54-2.32-1.21-4.61-1.69-6.94-.6-3.58-.57-7.26-.32-10.87.25-2.55.6-5.09,1.14-7.59.53-2.26,1.04-4.52,1.47-6.79.75-3.49,1.15-7.05,1.46-10.6.29-2.96.44-5.93.23-8.91-.24-4.58-1.7-9.02-3.69-13.13-2.23-4.81-5.39-9.06-8.68-13.18-3.49-4.62-8.31-8.06-13.38-10.77-4.93-2.43-10.19-4.19-15.54-5.4-3.85-.83-7.8-.91-11.71-1.13-2.92-.21-5.84-.21-8.75.11-2.73.34-5.43.81-8.14,1.26-2.53.52-5.26,1.53-7.48,2.64-2.13,1.08-4.35,1.96-6.5,2.98-3.08,1.58-6.33,2.87-9.76,3.4-1.25.18-2.55.39-3.77-.04-.28.11-.42-.36-.13-.44.14-.13.26-.27.41-.39.79-.6,1.69-.89,2.55-1.34,1.09-.54,2.17-1.09,3.26-1.63,2.31-1.1,4.32-2.67,6.53-3.93,1.86-.95,3.75-1.83,5.58-2.85,3.41-1.81,7.1-3.09,10.91-3.72,2.41-.44,4.82-.94,7.26-1.17,3.64-.39,7.29-.2,10.94,0,3.69.1,7.38.43,10.98,1.29,4.49,1.1,8.9,2.6,13.14,4.44,4.22,1.8,8.14,4.26,11.72,7.12,2.63,2.17,4.9,4.72,6.92,7.46,5.31,6.67,10,14.11,11.87,22.53,1.1,4.92,1.04,10.03.53,15.02-.4,4.39-.94,8.76-1.86,13.07-1.11,5.43-2.59,10.86-2.51,16.45-.18,8.62,2.61,17.17,7.24,24.39.99,1.5,2.22,2.81,3.54,4.02.81.74.83,2.08.19,2.91-.71.92-2.18,1.17-3.1.4Z"/>
      <path class="cls-11" d="M220.74,58.65c-3.04-.24-6.03-.87-8.96-1.69-4.1-1.12-8.11-2.68-11.79-4.83-1.76-1.07-3.36-2.37-4.93-3.69-1.5-1.25-3.07-2.41-4.6-3.62-1.13-.87-2.33-1.64-3.51-2.44-2.28-1.64-4.65-3.21-7.39-3.96-1.67-.57-3.39-.97-5.13-1.2-1.3-.2-2.72-.16-3.94-.66-.96-.73-.03-2.02.88-2.32,2.24-1.02,4.8-.56,7.15-.23,2.8.57,5.6,1.4,8.1,2.83,4.43,2.61,8.43,5.86,12.49,8.99,4.32,3.58,9.56,5.72,14.94,7.15,2.72.71,5.51,1.17,8.33,1.16,3.79-.13,7.43-1.36,10.96-2.66,2.97-1.08,5.91-2.22,8.75-3.63,2.54-1.18,5.07-2.38,7.63-3.51,3.92-1.73,7.77-3.63,11.85-4.96,2.84-.93,5.73-1.67,8.63-2.33,5.68-1.47,11.51-2.1,17.36-2.24,5.87-.36,11.79-.63,17.65.05,2.1.24,4.13.85,6.19,1.3,1.96.36,2.74,2.97,1.17,4.29-.46.4-1.14.68-1.76.61-.84-.1-1.69-.13-2.53-.2-2.78-.3-5.55-.62-8.35-.69-4.79-.23-9.57.08-14.35.2-3.82.07-7.62.43-11.37,1.14-4.01.81-8.06,1.56-11.93,2.92-6.15,2.32-11.99,5.38-18,8.04-2.56,1.23-5.2,2.28-7.88,3.22-5,1.74-10.27,3.36-15.62,2.94Z"/>
      <path class="cls-11" d="M383.32,255.1c-.44-.63.22-1.12.53-1.62.69-.74,1.07-1.33,1.78-1.97.6-.78,1.3-1.48,1.78-2.32.72-.95,1.14-2.1,1.98-2.95,1.92-2.38,5.44-.3,4.16,2.52-1.34,3.12-4.23,5.74-7.61,6.35-.51.14-1.05.19-1.57.2-.34.19-.8.12-1.04-.21Z"/>
      <g id="Vector_layer-22" data-name="Vector layer">
        <path class="cls-14" d="M28.21,247.27c-4.55-.38-9.36-.78-13.54-2.74-1.24-.77-2.34-2.56-1-3.77.49-.43,1.22-.57,1.83-.34,1.67-.16,3.33-.38,5-.57,12.08-.94,23.82-4.54,34.27-10.66,4.38-2.99,9.92,2.48,6.89,6.88-1.45,1.76-3.52,2.94-5.29,4.35-8.17,4.67-18.75,7.34-28.16,6.85Z"/>
        <path class="cls-14" d="M21.43,219.56c-4.54-.52-9.02-1.46-13.56-2-2.37-.39-2.88-3.84-.68-4.85.73-.4,1.5-.25,2.25-.09,1.13-.04,2.25-.13,3.38-.17,14.74-.49,29.21-3.67,43.42-7.4,5.83-1.92,9.33,6.36,3.85,9.16-2.02.87-4.02,1.83-6.02,2.38-10.6,2.65-21.72,3.8-32.63,2.98Z"/>
        <path class="cls-14" d="M52.94,194.22c-11.95-.67-23.98-2.61-35.24-6.75-2.34-.85-4.66-1.78-6.9-2.87-2.09-1.15-4.62-1.99-6.09-3.95-.61-.8-.48-2.01.29-2.67.89-.82,2.13-.36,3.17-.19,10.75,1.86,21.61,2.93,32.45,4.11,6.48.81,12.98,1.31,19.51,1.19,2.68.33,5.8-.61,8.02,1.3,2,1.7,2.22,4.97.45,6.91-.71.86-1.95,1.48-3,1.6-4.18.78-8.37,1.5-12.65,1.31Z"/>
        <path class="cls-14" d="M72.85,177.38c-5.37-1.29-10.28-3.81-15.06-6.5-4.9-2.63-9.58-5.64-13.79-9.29-3.03-2.54-5.92-5.25-8.58-8.18-2.06-2.56-4.58-4.94-6.19-7.82-.38-.75.56-1.63,1.26-1.21.98.46,1.97.93,2.95,1.39,3.37,1.72,6.83,3.25,10.23,4.91,5.55,2.86,10.72,6.39,16.4,9.01,3.77,1.85,7.55,3.69,11.42,5.32,2.69,1.46,6.44,1.76,7.93,4.74,2.19,4.2-2.1,9.15-6.58,7.61Z"/>
        <path class="cls-14" d="M104.99,156.59c-5.61-.78-10.61-3.55-15.6-6.08-4.73-2.48-9.41-5.11-13.64-8.39-6.68-4.8-11.9-10.93-17.46-16.77-1.76-2.06,1.55-4.64,3.11-2.38,1.55,1.66,3.7,2.69,5.62,3.88,9.23,5.4,18.91,10.02,28.66,14.37,2.85,1.14,5.75,2.16,8.72,2.98,2.34.78,5.13,1.02,6.56,3.32,2.92,4.17-.97,10.1-5.96,9.07Z"/>
        <path class="cls-14" d="M119.39,142.68c-9.84-4.89-17.91-12.83-24.93-21.16-4.14-5.03-7.04-10.87-10.53-16.33-1.62-2.24.83-5.47,3.43-4.49,1.04.31,1.49,1.18,2.01,2.01,2.55,3.08,5.28,6.03,8.1,8.87,8.09,8.44,18.47,14.06,27.84,20.89,6.04,4.05.62,13.45-5.92,10.22Z"/>
        <path class="cls-14" d="M133.57,115.81c-2.17-.44-3.67-2.32-5.41-3.56-3.33-2.62-6.26-5.67-9.11-8.8-8.88-9.45-16.83-19.73-23.22-31.04-1.1-1.27-.06-3.37,1.67-3.22,3.12.97,5.64,5.4,8.19,7.56,9,8.76,18.09,17.42,27.67,25.55,2.1,2.4,5.68,3.89,6.48,7.16.87,3.6-2.65,7.18-6.27,6.34Z"/>
        <path class="cls-14" d="M145.85,98.17c-1.36-.08-2.84-.72-3.71-1.81-3.5-4.27-7.05-8.54-9.76-13.38-8.09-13.81-12.58-29.2-16.47-44.61-.74-1.74.38-3.84,2.37-3.73,2.61.23,2.26,3.32,3.36,5.06,4.35,10.53,9.74,20.61,15.83,30.24,2.57,4.46,5.47,8.71,8.49,12.88,1.61,2.28,3.02,4.7,4.68,6.95,2.59,3.47-.51,8.83-4.79,8.41Z"/>
        <path class="cls-14" d="M162.01,86.25c-3.77-1.66-6.67-14.39-7.84-18.53-2.45-10.38-3.52-21.08-3.5-31.73.19-4.72-.45-9.69,1.07-14.23.3-1.19,1.91-1.69,2.83-.84.81.66.55,1.59.4,2.45.06,1.19.21,2.35.37,3.53,1.77,14.04,5.85,27.68,10.47,41.02,1.46,3.81,2.48,7.75,3.79,11.61,1.72,4.44-3.4,8.99-7.6,6.73Z"/>
        <path class="cls-14" d="M186.64,94.89c-4.53-3.18-3.61-15.11-3.56-20.28.43-12.93,2.83-25.76,6.63-38.12.66-2.09,1.11-4.26,1.91-6.31.95-2.53,4.77-.98,3.61,1.51-1.34,15.62-1.65,31.36-.81,47.03.27,3.39.5,6.82,1.11,10.16,1.24,4.87-4.82,8.94-8.88,6Z"/>
        <path class="cls-14" d="M226.04,97.55c-5.66-11.97-5.86-27.58-5.2-40.65.41-4.72.26-9.05,1.96-13.36.65-1.47,2.98-1.32,3.45.21.31,1.2-.58,2.33-.39,3.58.17,4.89.69,9.76,1.24,14.62,1.92,10.51,4.03,21.1,7.77,31.13,2.81,5.85-5.78,10.21-8.84,4.47Z"/>
        <path class="cls-14" d="M261.79,84.67c-3.97-1.4-6.75-12.95-8.54-16.95-3.47-9.29-5.84-19.15-5.85-29.1-.09-1.55,1.19-3.63,2.9-2.57,1.3,1.25.94,3.46,1.58,5.08,2.57,10.74,7.45,20.68,12.15,30.6,1.02,3.02,4.25,7.15,3.31,10.23-.72,2.23-3.34,3.52-5.54,2.72Z"/>
        <path class="cls-14" d="M282.59,72.21c-4.08-2.3-3.21-8-3.83-12-.9-11.27-1.09-22.67-.26-33.95.22-3.01,4.87-2.41,4.29.56-.18.58-.15,1.19-.17,1.79.52,9.03,2.04,18.01,4.21,26.79.53,4.03,4.28,11.14,2.6,14.51-1.17,2.48-4.41,3.57-6.84,2.31Z"/>
        <path class="cls-14" d="M300.32,76.21c-8.49-.89-1.46-15.64-.38-20.61,2.27-6.99,4.28-14.06,6.64-21.03.86-2.01,1.13-4.58,2.84-6.07,2.83-1.04.9,3.81,1.06,5.18-.8,6.52-1.48,13.06-2.67,19.52-1.07,5.27-1.97,11.15-2.5,16.38-.02,3.18-1.15,6.84-4.99,6.62Z"/>
        <path class="cls-14" d="M318.01,85.64c-6.28-2.57-1.27-9.46.63-13.49,5.07-8.96,10.84-17.59,17.53-25.43,1.82-1.61,5.1-8.2,7.55-4.37.44,2.84-2.17,5.27-3.25,7.75-4.62,9.05-9.5,17.97-13.86,27.15-1.98,3.47-3.24,10.09-8.6,8.39Z"/>
        <path class="cls-14" d="M333.51,98.23c-1.95-1.31-2.55-4.09-1.2-6.05,4.43-6.85,9.66-13.06,15.55-18.69,4.42-4.45,8.57-9.32,13.64-13.05,2.59-1.21,3.63,2.15,2.14,3.9-2.23,3.56-4.7,7.17-7.18,10.49.02-.03.04-.05.06-.08,0,0,0-.01.12-.16-.17.22-.33.43-.5.65.1-.13.19-.24.28-.36-3.99,5.12-8.11,10.09-11.86,15.39-3.02,3.14-5.58,11.13-11.06,7.97Z"/>
        <path class="cls-14" d="M337.54,122.11c-2.27-.1-4.15-2.21-3.97-4.48.09-4.06,11.61-9.89,15.14-11.77,9.17-4.44,19.28-6.96,27.69-12.9,0,0-.01.01-.01.01.69-.47,1.65-.36,2.14.37,1.41,1.79-4.52,6.12-5.86,7.31-5.37,3.93-11.08,7.36-16.9,10.59-4.4,2.55-8.54,5.5-12.82,8.23-1.77.97-3.22,2.86-5.42,2.65Z"/>
        <path class="cls-14" d="M336.16,163.5c-8.22-7.58,25.59-24.82,31.13-28.06,3.61-2.18,7.14-4.51,10.49-7.08,1.99-1.44,4.25,1.84,2.15,3.17-2.53,1.91-4.51,4.53-7.12,6.39-7.5,6.07-15.6,11.38-22.87,17.73-1.97,1.76-3.87,3.59-5.83,5.35-2.13,2.17-4.91,5.14-7.95,2.5Z"/>
        <path class="cls-14" d="M351.83,197.41c-4.45-4.45,2.34-8.8,5.3-11.78,5.89-5.38,11.58-10.98,17.26-16.58,3.79-3.73,7.67-7.37,11.19-11.36,1.64-1.3,3.6-6.21,6.02-4.53,1.12,1.02.3,2.27-.58,3.09-.76,1.08-1.46,2.19-2.2,3.28-5.33,7.38-11.38,14.21-17.24,21.16-3.5,4.08-6.99,8.16-10.29,12.4-2.24,2.84-5.57,7.56-9.45,4.31Z"/>
        <path class="cls-14" d="M375.03,200.47c-3.62-5.78,4.05-9.57,8.02-12.27,4.38-2.89,8.78-5.74,13.26-8.47,4.29-2.54,8.35-5.61,12.87-7.72,8.39.97-6.44,12.96-8.58,15.14-3.86,3.41-7.71,6.85-11.59,10.23-3.6,3.16-10.01,8.46-13.99,3.08Z"/>
        <path class="cls-14" d="M388.88,221.52c-9.29,1.06-9.95-8.59-3.27-9.65,10.74-1.21,21.59,0,32.32-1.18,2.62-.51,5.47-.76,7.88-1.9,2.24-1.61,5.05,1.31,1.23,4.11-9.15,6.63-26.95,8.79-38.16,8.62Z"/>
        <path class="cls-14" d="M396.3,247.08c-5.09-.57-10.08-2.01-14.73-4.17-4-1.83-3.61-8.12.57-9.45,1.37-.48,2.81-.32,4.1.29,3.1,1.12,6.31,1.9,9.48,2.81,8.63,2.41,17.77,3.94,26.72,2.77,3.29-2.47,6.77,2.94-1.07,5.7-7.91,3.1-16.76,3.17-25.08,2.05Z"/>
      </g>
    </g>
  </g>
  <g id="Vector_layer-23" data-name="Vector layer">
    <path class="cls-9" d="M37.67,293.54c-1.43-.58-2.91-1.12-4.09-2.15-2.22-1.77-3.7-4.32-4.4-7.06-.33-1.21-.41-2.47-.38-3.72-.14-1.02-.06-2.05.06-3.07.14-1.04.33-2.09.72-3.06.15-.39.34-.79.71-1.01.45-.3,1.06-.13,1.54,0,2.4.76,3.94,3.22,5.32,5.19,1.21,1.84,1.99,3.93,2.59,6.04.66,2.23.71,4.62,0,6.84-.27,1.12-.55,2.66-2.07,2ZM37.36,291.49c.15.08.31.15.47.22.23-1.13.44-2.27.37-3.42-.22-2.19-1-4.3-1.91-6.29-.66-1.35-1.5-2.59-2.41-3.78-.69-.91-1.38-1.86-2.38-2.44-.74,2.19-.8,4.76-.26,6.96.16.9.46,1.76.73,2.63.11.38-.07.79-.39.99,1.16,2.43,3.36,4.1,5.78,5.14Z"/>
    <path class="cls-9" d="M36.66,292.33c-.22-.1-.42-.24-.63-.36-1.3.03-2.22-1.21-2.88-2.19-1.74-2.3-2.66-5.13-2.67-8.02-.02-1.41.1-2.82.3-4.21-.1-.61-.42-1.4.16-1.87.36-.28.89-.22,1.2.1.88-.75,2.03.51,1.92,1.41.29.18.43.5.58.81.27.58.59,1.25.85,1.76.22.1.4.29.47.53.24.53.47,1.07.69,1.61.5,1,1.37,2.07,1.16,3.25.31.75.63,1.49.95,2.24.42.9,1.2,2.73-.39,2.85,0,.27-.05.55-.22.76.11.83-.65,1.72-1.5,1.34Z"/>
  </g>
  <g id="Vector_layer-24" data-name="Vector layer">
    <path class="cls-9" d="M64.34,280.7c-1.72-1.44-3.03-3.28-4.21-5.16-.78-1.25-1.12-2.72-1.54-4.12-.65-2.76-1.04-5.85.1-8.53.11-.29.51-.58.73-.22.2.63.09,1.32.05,1.97-.22,3.3.09,6.77,1.52,9.79.93,1.51,1.97,2.99,3.23,4.25.33.34.7.65,1.07.95.69.62-.22,1.69-.94,1.08Z"/>
    <path class="cls-9" d="M64.96,280.69c-.24-.12-.23-.48-.13-.66.22-.57.34-1.17.44-1.78.21-2.57.37-5.2-.29-7.72-.76-2.54-2.48-4.91-4.87-6.12-.41-.18-.85-.34-1.24-.56-.84-.58-.39-1.92.64-1.85.34.02.65.21.96.34.8.26,1.52.7,2.18,1.24,1.1.81,2.1,1.76,2.82,2.93,1.82,2.69,2.43,6.15,1.88,9.33-.32,1.57-.47,3.35-1.63,4.56-.18.18-.48.41-.76.28Z"/>
    <path class="cls-9" d="M58.91,264.23c-.75-.07-.29-1.59.36-1.38.36.13.18.5.13.76,0,.29-.13.65-.48.62Z"/>
    <path class="cls-9" d="M59.11,272.15c-.98-1.57-2.19-8.77-.31-9.76.33-.11.7.06.82.4.08.23.01.48-.13.67-.13.35-.18.73-.19,1.1,0,1.87.2,3.74.67,5.56.1.72.96,1.88.1,2.35-.34.17-.78.03-.96-.32Z"/>
    <path class="cls-9" d="M64.56,280.11c-.31-.11-.51-.4-.71-.65-.42-.56-.82-1.14-1.21-1.72-1.6-2.42-2.48-5.21-3.11-8.02-.42-1.5-.41-3.08-.29-4.63.03-.24.05-.48.11-.72-.05-.37.1-.81.51-.88.75-.09,1,.84,1.24,1.39.7-.18,1.26.47,1.58,1.01,1.1-.41,2.2,2.38,2.58,3.18,0,0,0,0,0,0,.1.31,0,.68-.27.88.52,1.16,1.09,2.3,1.51,3.5.31.75.15,1.8-.87,1.62.34.89,1.52,3.28-.22,3.3.14.42.36.9.15,1.34-.18.36-.62.53-1,.4Z"/>
  </g>
  <g id="Vector_layer-25" data-name="Vector layer">
    <path class="cls-9" d="M385.73,256.71c.49,2.36-.29,4.77-1.24,6.92-1.33,3.12-3.55,5.78-6.25,7.82-1.78,1.19-3.56,3.02-5.88,2.72-.13,0-.29-.04-.45-.11-.12.02-.26,0-.39-.05-.27-.06-.44-.22-.55-.43-.06-.07-.11-.17-.14-.28-1.12-5.04-.08-10.62,3.29-14.6,1.1-1.16,2.45-2.11,3.92-2.78,1.81-.96,4.23-1.83,6.03-1.52.22.05.41.14.55.25.12.04.22.12.3.21.54.43.69,1.21.81,1.86Z"/>
  </g>
  <g id="Vector_layer-26" data-name="Vector layer">
    <path class="cls-9" d="M407.8,272.34c.38,3.15.24,6.55-1.24,9.41-1.21,2.28-2.64,4.61-5.02,5.82-1.93.99-3.96,1.88-6.14,2.11-.59.07-1.24.22-1.81-.01-.06-.03-.12-.06-.16-.09-.42.11-.92-.08-1.02-.6,0-.23,0-.47,0-.7-.05-.32,0-.69.06-1.02.23-2.42,1.04-4.82,2.18-6.95,2.06-4.11,5.63-9.57,10.25-10.95.32-.07.63-.19.96-.19h0c.17-.05.37-.05.51.02.8.13,1.25,2.44,1.42,3.16Z"/>
  </g>
  <g id="Vector_layer-27" data-name="Vector layer">
    <path d="M31.36,285.37c-.75-.24-1.17-1.17-.49-1.73.23-.18.43-.4.67-.58,1.16-1.07,2.59-1.84,4.18-1.98.76-.19,1.83-.14,1.9.85.04.66-.6,1.07-1,1.51-1.24,1.12-3.55,2.47-5.26,1.92Z"/>
  </g>
  <g id="Vector_layer-28" data-name="Vector layer">
    <path d="M60.69,273.33c-.59-.05-1.23-.5-1.14-1.15.15-.62.82-.94,1.26-1.35,1.35-.94,3.08-1.63,4.74-1.34,1.25-.1,1.58,1.49.48,2.02-1.05.74-2.25,1.21-3.49,1.54-.61.17-1.23.36-1.86.29Z"/>
  </g>
  <g id="Vector_layer-29" data-name="Vector layer">
    <path d="M379.2,266.89c-2.22-1.15-4.17-2.88-5.45-5.05-.95-.32-.67-1.74.29-1.71,1.52,0,2.78,1.05,3.86,2.01.84.75,1.55,1.63,2.18,2.57.31.5.74.97.81,1.57.08.46-.28.98-.77.96-.32,0-.64-.2-.93-.36ZM377.46,264.24c.22.16.43.31.66.46-.91-1.02-1.94-2-3.16-2.63.83.77,1.62,1.5,2.51,2.17Z"/>
    <path d="M378.01,265.3c-.78-.4-1.4-1.18-2.05-1.77-.62-.72-1.52-1.32-1.87-2.22-.12-.35.29-.63.52-.32,1.41.81,2.71,1.86,3.9,2.97.6.5.35,1.49-.51,1.33Z"/>
    <path d="M374.94,263.75c-.8-.7-1.51-1.83-1.29-2.92.14-.3.4-.12.5.1.44.77,1.04,1.35,1.61,1.96.44.53-.28,1.27-.83.86Z"/>
    <path d="M379.23,267.09c-1.6-.68-3.13-1.55-4.3-2.86-.63-.72-1.23-1.51-1.49-2.44-.05-.3-.2-1.03.13-1.14.17-.03.29.2.35.32.11.2.22.4.35.58,1.19,1.55,2.69,2.88,4.47,3.71.45.28,1.03.29,1.46.57.79.69-.09,1.7-.97,1.25Z"/>
    <path d="M397.69,277.98c0-.14.12-.26.26-.26s.26.12.26.26c0,.14-.12.26-.26.26s-.26-.12-.26-.26Z"/>
    <path d="M404.45,283.26c-1.83-.29-3.42-1.35-4.73-2.63-.61-.65-1.39-1.11-1.99-1.78-.4-.4-.9-.86-.75-1.49.23-.82,1.23-.86,1.89-.57,1.04.37,2.08.8,2.98,1.46.77.61,1.46,1.3,2.17,1.97.55.61,1.23,1.17,1.53,1.95.23.7-.44,1.24-1.11,1.08Z"/>
    <path d="M401.38,281.08c-.54-.46-1.05-.96-1.55-1.46-.18-.23-.69-.55-.38-.86.26-.21.47.18.64.3.31.26.63.5.96.73.35.32,1.3.58.94,1.19-.13.18-.42.24-.6.09Z"/>
  </g>
  <g id="Vector_layer-30" data-name="Vector layer">
    <path class="cls-14" d="M360.99,305.63c-.51-.34-.24-1.14-.23-1.65.06-.48.11-1.1.58-1.36.59-.33,1.34.31,1.1.95-.25.46-.78,2.4-1.45,2.06Z"/>
    <path class="cls-14" d="M366.8,311.44s-.05-.07-.03-.1c.01-.48.46-.82.72-1.19.3-.42.6-.85.96-1.22.71-.79,1.89.24,1.22,1.06-.22.25-.47.46-.73.67-.37.28-1.8,1.37-2.14.78Z"/>
  </g>
  <g id="Vector_layer-31" data-name="Vector layer">
    <path class="cls-14" d="M68.99,312.94c-.58-.28-.55-1.07-.7-1.61-.11-.69-.25-1.38-.31-2.08-.05-1.12,1.61-1.32,1.82-.22.05.38.09.76.09,1.15,0,.63-.11,1.24-.22,1.86-.04.38-.15,1.06-.68.91Z"/>
    <path class="cls-14" d="M62.86,316.16c-1.02-.38-1.82-1.21-2.5-2.04-.67-.8.5-1.81,1.2-1.04.64.77,1.26,1.55,1.93,2.3.18.21.52.52.22.8-.23.21-.61.05-.85-.02Z"/>
  </g>
  <g id="Layer_group" data-name="Layer group">
    <g id="Vector_layer-32" data-name="Vector layer">
      <path class="cls-8" d="M13.26,144.16c-9.45-2.33-14.94-13.23-12.8-21.8.75-4.35,5.53-7.37,9.67-4.38.82.27,1.84.8,1.4,1.77-1.14,1.76-3.18-.63-4.75-.49-2.54.34-2.99,3.17-3.21,5.13-.33,4.98,2.11,10.06,5.9,13.51,6.34,4.61,12.37,3.2,9.88-5.24-.47-2.6,3.89-3.44,4.56-.88,2.84,7.36-1.78,14.52-10.66,12.39Z"/>
      <path class="cls-8" d="M43.7,124.5c-6.54-.89-11.36-9.83-12.78-15.28-1.82-1.33-1.66-4.32-1.43-6.27.53-4.33,3.96-6.97,8.58-5.44,1.8.57,3.29,1.71,4.67,2.9,2.59,2.13,4.25,5.02,5.54,7.96.63,1.49,1.03,3.08,1.43,4.64.44,1.66.79,3.36.66,5.08-.13,3.65-2.26,7.1-6.67,6.42ZM44.55,120.56c1.15-.06,1.06-1.52,1.21-2.32.11-2.22-.82-4.34-1.53-6.42-1.13-2.96-2.69-5.9-5.28-7.99-1.06-.81-2.18-1.85-3.65-1.78-.75.97-.66,3.03-.64,3.77.04.49.07.98.1,1.47.05.86-.56,1.67-1.36,2.06,1.75,3.66,6.34,11.19,11.14,11.19Z"/>
      <path class="cls-8" d="M74.31,106.93c-2.19-1.37-3.92-3.3-5.64-5.15-2.29-2.58-4.46-5.31-5.95-8.37-1.15-2.41-2.61-7.11-1.55-9.61,1.15-1.94,4.17-2.48,6.29-1.77-.58-1.64-1-3.38-.93-5.11.17-3.57,3.21-7.14,7.33-6.5,2.87.35,5.37,1.86,7.46,3.66,2.26,1.94,4.47,3.93,6.69,5.9.98,1.01,2.6,1.67,2.82,3.14.34,2.17-2.4,3.63-4.25,2.3-2.45-1.83-4.58-4.01-6.92-5.97-1.45-1.26-2.82-2.66-4.6-3.53-.9-.34-2.44-1.18-2.95.05-1.49,2.96,1.86,7.72,3.54,10.24.42.56.9,1.11,1.21,1.72.49.98.09,2.22-.81,2.86-1.53,1.06-3.09.3-4.18-.9-1.24-.99-2.57-1.89-3.91-2.75-.93-.47-1.86-1.41-2.98-1.23-.13,3.06.89,6.05,2.33,8.76,2.14,3.8,4.64,7.46,7.72,10.67.58-.3,1.2.3.97.85.18.93-1.02,1.21-1.7.75Z"/>
      <path class="cls-8" d="M95.96,68.57c-3.34-3.29-6.29-6.89-9.48-10.31-.85-.92-1.77-1.78-2.53-2.76-.26-.35-.51-.74-.46-1.18.05-.44.59-.72,1.02-.54,5.32,3.42,9.64,8,14.55,11.89,2,1.94-.99,4.75-3.1,2.9Z"/>
      <path class="cls-8" d="M107.6,51.31c-4.04-1.69-7.22-4.93-10.12-7.99-3.6-2.98-3.7-7.89,1.45-9.29,4.32-1.2,9.2,1.52,13.33-.26-.8-2.41-5.76-3.96-8.01-5.45-2.82-1.49-.6-5.65,2.37-4.43,1.51.67,2.89,1.56,4.34,2.33,5.24,1.97,9.94,8.61,3.56,12.12-4.63,2.34-9.95-.29-14.71.55,2.21,3.78,5.43,7.08,8.75,10.04,2.43.24.97,2.89-.96,2.36Z"/>
      <path class="cls-8" d="M131.12,26.2c-3.59-.15-6.52-2.84-7.67-5.89-1.04-2.99-.8-6.25-.18-9.3.5-2.11,1.23-4.26,2.8-5.89,1.45-1.61,3.91-2.62,6.15-2.04.53.14,1.21.34,1.55.79.24.32.15.8-.27.95-.88.32-1.88.24-2.72.66-3.53,1.39-4.51,11.65-2.4,14.27.61.8,1.4,1.62,2.48,1.81,1.25.19,2.68.23,3.64-.67,2.18-1.75,2.41-4.55,2.46-7.06-.78.28-1.43.8-2.2,1.1-1.62.68-3.62-.55-3.57-2.21-.02-1.39,1.32-2.32,2.51-2.92,3.8-2.14,8.66-.96,8.27,3.79-.12,2.19-.22,4.45-1.07,6.52-1.54,3.71-5.32,6.68-9.76,6.1Z"/>
    </g>
    <g id="Vector_layer-33" data-name="Vector layer">
      <path class="cls-8" d="M219.02,41.99c-4.39-.1-7.99-2.56-8.85-6.67-.4-1.75.31-3.66,1.43-5.06.66-.69,1.18-1.65,2.17-1.95,1.62-.46,3.04,1.27,2.19,2.63-.43.72-.77,1.49-1.08,2.27-.19.55-.28,1.14-.02,1.69.32,1.02.99,1.9,2.06,2.31,3.59,1.56,6.17-.71,8.2-3.28,2.12-3.11,3.08-7.94-.74-10.25-1.02-.62-2.21-.94-3.39-1.17-1.37-.19-2.84-.34-3.93-1.22-4.72-3.85,1.38-10.61,5.21-12.94,3.52-2.15,8.09-2.62,10.71,1.01.31.39.41.98.06,1.38-.2.24-.4.61-.78.41-.25-.13-.24-.41-.11-.61,0-.08-.05-.16-.09-.23-.05-.06-.1-.12-.1-.12-3.66-3.33-9.1,1.16-11.23,4.15-.69,1.15-1.72,2.41-1.56,3.78.34,1.03,2.17.81,3.1,1.09.67.13,1.33.3,1.98.5,2,.56,3.8,1.67,5.11,3.19,1.41,1.65,1.82,3.81,1.96,5.87.17,2.75-.99,5.53-2.61,7.78-2.32,2.98-5.55,5.51-9.69,5.44Z"/>
      <path class="cls-8" d="M263.18,29.24c-4.08.01-6.2-3.87-6.55-7.22-.22-2.23.05-4.47.6-6.65.03-1.55.22-3.11.51-4.64.44-2.69,1.29-5.42,3.22-7.52,2.28-2.72,6.19-3.75,8.93-.97,2.1,2.09,2.95,4.99,3.14,7.79.1,1.4.12,2.79.04,4.19-.21,3.03-.49,6.11-1.66,8.97-1.29,3.26-4.2,6.36-8.23,6.05ZM263.47,25.53c3.42-.16,4.45-5.06,4.77-7.61.37-2.95.62-5.94.24-8.9-.28-1.53-.8-3.15-2.08-4.2-.7-.43-1.48.35-1.97.77-1.84,1.75-2.27,4.25-2.79,6.56-.25,1.11-.51,2.23-.74,3.35-.12.6-.59,1.09-1.18,1.3-.19,2.23-.13,4.58.86,6.66.55,1.11,1.42,2.24,2.88,2.08Z"/>
      <path class="cls-8" d="M306.17,27.32c-3.56-.15-5.76-3.23-6.87-6.08-.62-1.71-.97-3.5-.95-5.31-.3-2.52-.07-5.09.67-7.53.84-2.42,2.42-6.36,4.76-7.75,2.51-1.58,5.64-.04,7.43,1.83,1.52,1.61,2.38,3.68,3.01,5.72,1.36,5.79.76,19.32-8.04,19.12ZM306.51,23.13c3.39-.64,3.76-8.34,3.54-10.96,0-1.73-.38-3.42-1.16-4.99-.57-1.21-1.36-2.59-2.78-3.05-.47.28-.73.78-1.02,1.21-.54.94-1.04,1.9-1.49,2.87-.88,2.01-1.2,4.17-1.33,6.33-.01,1.06-.3,2.2-.14,3.23.52,1.65,2.2,5.48,4.39,5.36Z"/>
      <path class="cls-8" d="M345.32,37.61c-4.27-1.5-3.66-7.3-3.1-10.72.56-2.9,1.39-5.75,1.77-8.67.1-1.09.3-2.24-.08-3.29-.57-1.31-3.14,2.14-3.61,2.64-2.42,3.19-4.3,6.72-5.93,10.32-.43,1.07-.82,2.16-1.1,3.28-.06.29-.44.52-.75.36-.38-.2-.44-.56-.49-.93-.08-1.02.15-2.03.39-3.02.46-1.94,1.09-3.85,1.78-5.73,1.34-3.11,2.67-6.32,5.02-8.91,3.89-4.59,9.61-2.07,9.44,3.53-.01,2.77-.64,5.5-1.22,8.21-.55,2.76-1.72,6.22-.57,8.93.58-.48.8-1.26,1.1-1.88.52-1.2,1.11-2.37,1.7-3.53.58-1.14,1.22-2.25,1.78-3.39,1.21-2.67,2.45-5.32,4.21-7.72,1.67-2.22,5.22-.11,3.71,2.25-1.68,2.52-3.04,5.18-4.31,7.89-.91,1.84-1.91,3.65-2.74,5.53-1.03,2.99-3.2,5.93-7.01,4.85Z"/>
      <path class="cls-8" d="M359.01,46.42c-1.26-.36-2.09-1.73-1.57-2.9.53-1.36,2.87-3.02,4.15-1.57,1.11.21,1.84,1.33,1.7,2.36-.24,1.79-2.6,2.67-4.28,2.11Z"/>
      <path class="cls-8" d="M368.01,58.93c-1.75-.53-2.01-2.58-.68-3.67.61-.5,1.69-.95,2.37-.34,1.69-.21,2.47,1.7,1.65,2.9-.65,1.02-2.15,1.46-3.33,1.11Z"/>
      <path class="cls-8" d="M373.64,73.48c-2.06-1.08-.78-4.21,1.4-4.16,1.34-.75,3.19.62,2.95,2-.09.65-.55,1.15-1.07,1.54-.87.73-2.2,1.23-3.28.61Z"/>
    </g>
  </g>
</svg>