<svg width="37" height="24" viewBox="0 0 37 24" fill="none" xmlns="http://www.w3.org/2000/svg">
<path d="M34.6394 16.719C34.7846 17.0428 33.099 16.8915 32.8812 16.9127C28.6264 16.6858 24.3928 16.1895 20.1259 16.1653C15.1055 16.1441 10.079 16.3317 5.07069 15.8566C4.26876 15.79 3.46077 15.6992 2.65884 15.7416C2.65279 15.7476 2.64673 15.7567 2.64371 15.7628C2.58319 15.8142 2.50451 15.7991 2.44398 15.7567C2.42885 15.7567 2.41372 15.7567 2.40162 15.7597C2.34412 15.7658 2.29267 15.7265 2.28662 15.669C2.28662 15.6115 2.31083 15.5812 2.34714 15.5661C2.33807 15.4511 2.36228 15.3361 2.38648 15.2271C3.31552 10.8574 8.51144 5.97918 12.7239 4.71121C15.5957 3.79731 18.643 3.86389 21.5996 4.25729C26.4203 4.84739 31.6767 7.22596 33.4713 12.0557C33.8919 13.1088 34.1794 14.2013 34.4366 15.3028C34.485 15.7658 34.5395 16.2349 34.5698 16.6979C34.597 16.6948 34.6242 16.7039 34.6394 16.7251V16.719Z" fill="#D6A8E6"/>
<path d="M17.8592 9.2202C17.3538 8.91456 17.381 8.2488 17.3417 7.73133C17.3114 7.1503 17.257 6.56625 17.257 5.98523C17.2479 4.3511 17.0875 2.71697 17.1662 1.08587C17.2025 0.680361 17.3024 0.235515 17.72 0.0599969C18.1194 -0.109468 18.6036 0.0932847 18.7549 0.501817C18.9577 1.48835 18.879 2.45369 18.9637 3.42509C19.0394 4.74148 19.0394 6.06088 19.109 7.37424C19.0848 7.9129 19.2815 8.53024 18.9577 9.00534C18.7095 9.33822 18.2163 9.43203 17.8592 9.2202Z" fill="black"/>
<path d="M14.9574 9.64084C14.2977 8.84193 14.1676 7.75857 13.8256 6.8023C13.3293 5.29527 12.9601 3.75495 12.5728 2.21765C12.2913 1.47322 12.6394 0.631944 13.5412 0.910352C13.9103 1.05863 14.0828 1.46717 14.222 1.81215C14.4944 2.67461 14.7607 3.5068 15.0361 4.36321C15.5445 5.83392 15.6322 7.43174 16.3434 8.83285C16.7065 9.68623 15.5293 10.3823 14.9574 9.64387V9.64084Z" fill="black"/>
<path d="M12.1216 10.8574C11.1895 10.2884 10.7023 9.31098 10.2635 8.35471C9.56143 7.06254 8.87449 5.76432 8.3661 4.38136C8.0544 3.80336 8.2269 3.05287 8.99857 3.09524C9.33447 3.12853 9.52512 3.44022 9.72182 3.67929C10.1576 4.3057 10.5056 4.98659 10.8657 5.6584C11.5254 6.76598 11.7917 8.08236 12.6784 9.05073C12.9447 9.38361 13.3623 9.65294 13.438 10.0978C13.556 10.7999 12.6784 11.3113 12.1246 10.8604L12.1216 10.8574Z" fill="black"/>
<path d="M8.27823 12.3039C7.38853 11.6139 6.93158 10.5426 6.25372 9.66807C5.71506 8.85706 5.23996 8.00671 4.69827 7.19569C4.57117 6.99899 4.43197 6.79019 4.435 6.54809C4.41684 6.04878 4.98273 5.67051 5.43666 5.88839C5.95111 6.18798 6.21136 6.78111 6.55634 7.24411C7.40669 8.62707 8.39927 9.91319 9.35252 11.2296C9.89117 11.9226 8.97122 12.8486 8.27823 12.3039Z" fill="black"/>
<path d="M5.62434 15.0425C5.00095 14.743 4.63781 14.1286 4.18691 13.6324C3.21854 12.5944 2.22898 11.4747 1.29692 10.4246C0.664456 9.69531 1.75388 8.84798 2.3228 9.62873C3.6876 11.0298 4.99187 12.4945 6.48377 13.7685C7.22518 14.3496 6.44746 15.5116 5.62434 15.0425Z" fill="black"/>
<path d="M20.8459 9.81031C19.4448 9.64689 20.2407 7.93106 20.3103 7.04439C20.5191 5.57065 20.8731 4.13322 21.2998 2.71092C21.4511 2.21463 21.4965 1.66084 21.7658 1.21297C22.0533 0.822593 22.7161 0.922456 22.8825 1.37941C23.0399 2.35989 22.589 3.47351 22.4498 4.42373C22.2046 5.60999 21.9323 6.78111 21.8445 7.99461C21.7144 8.67247 21.7961 9.7982 20.8459 9.81031Z" fill="black"/>
<path d="M23.6632 10.3278C21.8536 9.83452 23.7479 7.30767 24.1444 6.29087C24.5559 5.4496 24.8949 4.57504 25.2852 3.72469C25.5546 3.27076 25.7482 2.75026 26.066 2.33568C26.6924 1.73952 27.6668 2.54751 27.1978 3.27681C26.5471 4.62346 25.9691 5.99734 25.485 7.41358C25.2822 7.94316 25.0522 8.46366 24.8616 8.99627C24.6921 9.6015 24.4651 10.4488 23.6632 10.3278Z" fill="black"/>
<path d="M26.7168 11.2447C25.7091 10.7757 26.5504 9.56216 26.9801 8.99929C27.8244 7.67383 28.7716 6.40587 29.746 5.17724C30.0849 4.85647 30.3603 4.3632 30.8505 4.28755C31.4921 4.19071 31.9763 4.96239 31.6192 5.50407C31.4406 5.77037 31.1864 5.97918 30.9716 6.21824C30.1303 7.3349 29.2679 8.43037 28.5749 9.6136C28.0876 10.2188 27.7124 11.6048 26.7168 11.2447Z" fill="black"/>
<path d="M30.0184 13.7292C29.0077 13.0574 30.1425 12.0134 30.6509 11.4142C31.5678 10.3732 32.3244 9.2081 33.2201 8.14592C33.665 7.40148 34.7725 7.34096 35.057 8.24881C35.2476 8.8843 34.706 9.30494 34.3156 9.69834C33.5197 10.5245 32.6391 11.275 31.9915 12.2282C31.4468 12.8032 31.0201 14.2134 30.0184 13.7292Z" fill="black"/>
<path d="M30.2 13.8684C29.1832 13.2359 30.1001 12.1495 30.6176 11.508C31.1653 10.7636 31.7463 10.0494 32.3213 9.32915C32.4968 9.12338 32.6602 8.94181 32.9296 8.85405C33.6861 8.62406 34.258 9.61664 33.6922 10.1614C33.6982 10.1553 33.7043 10.1492 33.7073 10.1432C33.1051 10.9118 32.5634 11.738 32.0459 12.5702C31.6132 13.2178 31.1744 14.3859 30.1969 13.8714L30.2 13.8684Z" fill="black"/>
<path d="M2.74961 16.25C2.00215 15.6024 1.38178 14.8156 0.673658 14.1226C0.440643 13.8321 0.0684249 13.596 0.00790154 13.2057C-0.0949881 12.5278 0.834045 12.1798 1.21837 12.7215C1.82965 13.472 2.53778 14.1498 3.27011 14.7884C3.52431 15.0093 3.85113 15.2241 3.89653 15.5873C3.99034 16.1985 3.23379 16.6313 2.74961 16.247V16.25Z" fill="black"/>
<path d="M32.7784 16.8946C31.6314 15.8868 33.2474 14.7611 33.8648 13.9652C34.5699 13.2662 35.3173 11.508 36.5248 12.2706C37.133 12.7154 36.897 13.5022 36.4067 13.9319C36.0648 14.3284 35.7833 14.7702 35.4777 15.1908C34.7726 15.9201 34.004 17.7025 32.7784 16.8946Z" fill="black"/>
<path d="M34.4304 16.8734C34.4546 16.9127 34.4394 16.9672 34.4031 16.9914C34.3941 17.0005 34.3819 17.0035 34.3698 17.0035C34.2125 17.3303 33.3712 18.1716 32.5209 18.9191C32.5178 18.9221 32.5148 18.9251 32.5118 18.9281C32.2606 19.1612 32.0034 19.3881 31.7371 19.606C30.6809 20.4806 29.534 21.2311 28.3357 21.8484C27.1645 22.4536 25.945 22.9227 24.7164 23.2677C23.4484 23.6248 22.1744 23.8396 20.9125 23.9365C20.3708 23.9788 19.8321 24 19.2995 24C18.549 24 17.8046 23.9607 17.0723 23.882C15.7831 23.7458 14.5273 23.4886 13.3259 23.1315C12.7237 22.9529 12.1305 22.7502 11.5526 22.5232C11.0351 22.3175 10.5297 22.0935 10.0334 21.8545C9.04386 21.3763 8.10272 20.8316 7.20698 20.2233C6.37478 19.6544 5.58193 19.0371 4.83446 18.3744C4.1445 17.757 3.49992 17.0943 2.89772 16.3922C2.83417 16.3196 2.77062 16.2439 2.70404 16.1683C2.6647 16.1199 2.62234 16.0714 2.583 16.0261C2.55879 15.9988 2.5376 15.9716 2.51339 15.9443C2.50129 15.9383 2.48918 15.9322 2.48011 15.9232C2.46195 15.9111 2.44984 15.8929 2.44379 15.8747C2.40445 15.8112 2.4105 15.7234 2.45892 15.6659C2.45892 15.6659 2.468 15.6569 2.47103 15.6508C2.59813 15.5116 2.72522 15.3724 2.85535 15.2362C3.03389 15.0486 3.21546 14.861 3.40006 14.6764C3.40611 14.6703 3.40914 14.6643 3.41519 14.6613C3.84188 14.2315 4.28673 13.82 4.74065 13.4175C5.04327 13.1512 5.35194 12.894 5.66363 12.6458C6.16598 12.2464 6.6774 11.859 7.20092 11.4929C7.7305 11.1237 8.27521 10.7787 8.829 10.4519C9.38279 10.125 9.95171 9.82242 10.5267 9.54703C11.716 8.97509 12.9476 8.50906 14.2126 8.17315C15.4654 7.83725 16.7485 7.6345 18.0407 7.57095C19.3328 7.50437 20.628 7.59213 21.902 7.82212C23.1912 8.05211 24.4561 8.43946 25.6636 8.96904C26.8922 9.50467 28.0573 10.1946 29.1467 10.9996C29.6763 11.393 30.1847 11.8136 30.6719 12.2645C31.1561 12.7154 31.6251 13.1875 32.0669 13.6868C32.884 14.6098 33.6254 15.6084 34.2881 16.6616C34.3335 16.7342 34.3789 16.8068 34.4243 16.8794L34.4304 16.8734Z" fill="white"/>
<path d="M18.4553 20.7257C17.9288 20.6742 17.4385 20.4261 17.0602 20.0569C16.9513 19.951 16.8514 19.833 16.7637 19.7059C16.0798 19.4456 16.0071 18.5559 15.7772 17.9507C15.3444 16.4648 15.2324 14.8822 15.5139 13.357C15.7711 10.8543 18.192 8.63313 20.2407 11.051C21.2636 12.3583 21.5329 14.0742 21.4573 15.6932C21.3483 17.527 20.961 20.992 18.4553 20.7227V20.7257ZM18.7337 19.1279C19.7596 18.1625 20.0531 14.7672 19.6627 13.4235C19.5266 12.7124 18.3645 10.5517 17.7563 11.974C17.2842 13.1179 16.7849 19.3336 18.7337 19.1309V19.1279Z" fill="black"/>
<path d="M17.357 20.6349C15.3204 19.7301 15.0844 15.672 15.8924 13.8684C15.9075 13.708 15.9226 13.481 16.1405 13.4962C16.2706 13.5053 16.3584 13.6263 16.3342 13.7534C16.2101 14.3496 16.5097 14.9336 16.549 15.5237C16.6731 16.5677 16.6398 17.6844 17.1573 18.6286C17.4478 19.2156 18.2134 19.2852 18.737 18.9766C19.0245 18.5408 19.5389 18.217 20.0564 18.4893C21.0005 19.0068 20.4377 20.1901 19.6327 20.5199C18.9397 20.8467 18.0773 20.9133 17.357 20.6349Z" fill="black"/>
<path d="M18.0347 20.1326C16.7001 19.8844 16.8272 16.3438 16.7788 15.2786C16.8363 14.2225 17.0905 13.1784 17.4809 12.198C17.6382 11.9589 17.5807 11.6684 17.7018 11.4172C17.8501 11.1237 18.2344 11.0359 18.5128 11.1993C19.8141 10.6879 19.6537 12.0164 19.8564 12.8546C19.9593 12.9787 20.0531 13.1209 20.0652 13.2904C20.5615 13.708 20.498 16.5375 20.0985 17.0549C20.0713 17.7056 20.1893 18.7072 19.4449 18.9887C19.3571 19.3215 19.0908 19.6302 18.7307 19.6484C18.6399 19.9449 18.3524 20.1598 18.0347 20.1326Z" fill="black"/>
</svg>
