<svg width="37" height="17" viewBox="0 0 37 17" fill="none" xmlns="http://www.w3.org/2000/svg">
<path d="M13.9753 8.51928C12.3193 8.21791 10.6931 7.71066 9.15045 7.03334C8.51788 6.75584 7.89426 6.46343 7.29153 6.13222C6.79622 5.8607 6.31881 5.55635 5.85333 5.23708C5.01786 4.6612 4.23312 4.00178 3.52297 3.27373C3.03661 2.77543 2.58307 2.24132 2.17429 1.67738C2.01018 1.44763 1.92961 1.18207 1.96542 0.898607C2.00122 0.630064 2.14743 0.379423 2.36227 0.212329C2.80089 -0.124842 3.49612 -0.0591977 3.82732 0.40031C4.05111 0.710627 4.28981 1.01199 4.54045 1.30142C4.91045 1.71916 5.30729 2.11601 5.70414 2.47108C5.71309 2.47705 5.71906 2.48302 5.72801 2.49197L5.73398 2.49793C6.23228 2.93357 6.76041 3.33639 7.30944 3.70936C7.97483 4.15395 8.66707 4.55975 9.38021 4.92378C9.99786 5.22813 10.6394 5.48772 11.2869 5.71747C12.2745 6.05763 13.289 6.3202 14.3125 6.53206C15.3747 6.74391 16.4459 6.89011 17.526 6.96172C18.5614 7.0214 19.5908 7.0035 20.6053 6.93785C21.5691 6.87221 22.5239 6.7439 23.4698 6.55592C24.4097 6.36198 25.3436 6.1173 26.2358 5.80997C27.0116 5.53546 27.7784 5.22813 28.5154 4.8641C28.9212 4.65822 29.3151 4.43443 29.703 4.19573C30.1088 3.94509 30.5146 3.69444 30.9085 3.42889C31.4515 3.05292 31.9707 2.64414 32.4929 2.23536C32.7077 2.06528 32.9345 1.91907 33.1702 1.78182C33.2567 1.73109 33.3403 1.67738 33.4298 1.63263C33.6953 1.49835 33.9967 1.4715 34.1847 1.74899C34.3816 2.04439 34.1161 2.45914 33.9639 2.71575C33.7998 2.99325 33.6058 3.23494 33.385 3.47364C32.8718 4.01968 32.284 4.49112 31.6813 4.9387C30.5832 5.75328 29.3419 6.36794 28.0977 6.9289C27.4532 7.21833 26.7848 7.46301 26.1135 7.68082C25.454 7.89566 24.7916 8.08961 24.1173 8.24477C22.5806 8.59686 21.0141 8.82959 19.4387 8.8833C19.0985 8.89524 18.7554 8.9012 18.4122 8.9012C16.9263 8.9012 15.4403 8.78484 13.9783 8.51928H13.9753Z" fill="black"/>
<path d="M18.403 16.0624C17.6511 15.7222 18.0688 14.3944 18.0121 13.7141C17.9913 12.1864 17.9525 10.6646 18.0151 9.1399C18.0151 8.79079 18.0032 8.43572 18.1524 8.11048C18.3075 7.77033 18.6566 7.55549 19.0326 7.6092C19.8681 7.72856 19.7815 8.66249 19.7487 9.29804C19.7099 10.2141 19.6682 10.972 19.6324 11.8552C19.5757 12.8697 19.4832 13.8543 19.3966 14.839C19.3698 15.1225 19.4116 15.4238 19.3071 15.6924C19.1609 16.0415 18.7402 16.2086 18.4 16.0594L18.403 16.0624Z" fill="black"/>
<path d="M13.8738 14.7763C13.6978 13.2695 14.2259 11.7418 14.4049 10.2439C14.5153 9.65013 14.6138 9.05635 14.7272 8.46257C14.7928 8.13137 14.8913 7.76436 15.2016 7.58235C15.7327 7.25413 16.4429 7.73751 16.3504 8.34919C16.3265 8.55507 16.2638 8.75201 16.2042 8.95192C15.7089 10.602 15.4672 12.3207 15.13 14.0005C15.0256 14.3526 15.0763 14.842 14.7123 15.0538C14.4139 15.2269 14.014 15.0986 13.8738 14.7733V14.7763Z" fill="black"/>
<path d="M9.66629 14.1527C9.39775 13.8842 9.4992 13.4873 9.57678 13.1591C9.75879 12.3535 9.94677 11.5449 10.2004 10.7571C10.6241 9.56659 10.8628 8.31339 11.2895 7.12882C11.74 6.30827 13.0649 6.76479 12.9157 7.69276C12.8083 8.19105 12.4741 8.81169 12.3398 9.25926C11.931 10.4319 11.4506 11.5777 11.0388 12.7503C10.8538 13.1919 10.7494 13.6753 10.5256 14.099C10.3168 14.3556 9.89903 14.4093 9.66629 14.1527Z" fill="black"/>
<path d="M5.09521 11.9895C5.16384 11.0883 5.84714 10.2887 6.2052 9.49499C6.80196 8.34025 7.20776 7.08108 7.89105 5.97707C8.49378 5.19829 9.75295 5.92634 9.36207 6.83641C8.95926 7.55551 8.49677 8.2388 8.13572 8.97879C7.59267 9.99925 6.89744 10.9213 6.35439 11.9447C6.241 12.1416 6.14552 12.3684 5.91576 12.4579C5.56964 12.5982 5.14296 12.3833 5.09521 11.9895Z" fill="black"/>
<path d="M1.60116 9.44426C1.04318 8.70128 2.68727 7.16462 3.09307 6.50221C3.53169 5.93528 3.96136 5.36239 4.40296 4.79845C4.7103 4.41652 5.08327 3.90629 5.63826 3.98984C5.77552 3.65863 6.23801 3.87048 6.04705 4.17782C6.6647 4.74176 6.16938 5.42207 5.61738 5.79206C4.98182 6.356 4.46562 7.03333 3.90168 7.66292C3.48991 8.15226 3.105 8.6625 2.73799 9.18466C2.56493 9.65312 1.9443 9.89183 1.60414 9.44724L1.60116 9.44426Z" fill="black"/>
<path d="M0.0137975 3.41694C-0.0607979 3.07977 0.183875 2.78139 0.345001 2.50688C0.834347 1.73705 1.36845 0.934407 2.09053 0.373449C2.78278 -0.0323497 3.50486 0.901586 2.93495 1.46851C2.10247 2.08019 1.41022 2.7605 0.825396 3.57508C0.619512 3.87645 0.0913768 3.78097 0.0137975 3.41694Z" fill="black"/>
<path d="M36.0226 5.71746C35.1066 4.89094 34.2771 3.96894 33.4655 3.03799C32.7464 2.39647 33.3103 1.25069 34.2383 1.68035C34.6471 1.9489 34.8977 2.38752 35.2081 2.75751C35.7601 3.54524 36.2464 4.3091 36.8223 5.06997C37.0968 5.58319 36.4792 6.07552 36.0226 5.72044V5.71746Z" fill="black"/>
<path d="M23.2666 15.8982C22.6161 15.8893 22.4371 15.2239 22.3834 14.6898C22.1387 13.4336 22.2074 12.1476 21.9866 10.8854C21.9508 10.1096 21.6285 9.3249 21.7598 8.55805C21.9716 7.75242 23.198 7.69872 23.4636 8.49241C23.7858 10.7124 23.9529 12.9771 24.0872 15.2179C24.0872 15.2179 24.0842 15.2179 24.0812 15.2179C24.0156 15.6028 23.6754 15.9191 23.2636 15.8982H23.2666Z" fill="black"/>
<path d="M27.641 14.645C27.2769 14.1438 27.2292 13.4664 27.0263 12.8906C26.3937 11.2047 25.9909 9.43231 25.427 7.73452C25.3285 6.74986 26.6861 6.33213 27.1576 7.2034C27.4321 7.7942 27.5186 8.45362 27.7066 9.07127C28.0557 10.7691 28.8822 12.3594 29.1299 14.0692C29.112 14.8121 28.1601 15.1911 27.6439 14.645H27.641Z" fill="black"/>
<path d="M32.6744 11.3509C31.6391 10.0052 31.0005 8.37008 30.2456 6.85131C29.995 6.1352 29.1267 5.12667 30.0636 4.56571C30.735 4.20467 31.3049 4.81635 31.4242 5.44892C31.6361 6.09939 31.8718 6.74688 32.1612 7.36751C32.6267 8.31338 33.0862 9.2682 33.5606 10.2111C33.6621 10.405 33.7964 10.6079 33.7814 10.8347C33.7695 11.3807 33.0952 11.7 32.6715 11.3479L32.6744 11.3509Z" fill="black"/>
</svg>
